<svg width="20" height="20" viewBox="0 0 20 20" fill="none" xmlns="http://www.w3.org/2000/svg">
<path fill-rule="evenodd" clip-rule="evenodd" d="M13.6757 2.30751L13.6766 2.9322C15.9721 3.11211 17.4885 4.67632 17.4909 7.07512L17.5 14.0966C17.5033 16.712 15.8602 18.3212 13.2265 18.3253L6.79324 18.3336C4.176 18.337 2.51235 16.6895 2.50906 14.0666L2.50001 7.12759C2.49672 4.71297 3.95961 3.15292 6.25515 2.94219L6.25433 2.3175C6.2535 1.95102 6.52502 1.67533 6.88704 1.67533C7.24906 1.67449 7.52057 1.94935 7.5214 2.31584L7.52222 2.89888L12.4095 2.89222L12.4087 2.30917C12.4078 1.94269 12.6794 1.66783 13.0414 1.667C13.3952 1.66616 13.6749 1.94103 13.6757 2.30751ZM3.76796 7.38496L16.2247 7.3683V7.07678C16.1894 5.28601 15.2909 4.34648 13.6783 4.20655L13.6791 4.8479C13.6791 5.20605 13.4002 5.49008 13.0464 5.49008C12.6844 5.49091 12.412 5.20772 12.412 4.84957L12.4112 4.1749L7.52392 4.18157L7.52474 4.8554C7.52474 5.21438 7.25405 5.49757 6.89203 5.49757C6.53001 5.49841 6.25767 5.21605 6.25767 4.85706L6.25685 4.21572C4.65244 4.37647 3.76467 5.31933 3.76714 7.12593L3.76796 7.38496ZM12.7 11.1705V11.1797C12.7082 11.5628 13.0209 11.8535 13.4002 11.8452C13.7704 11.836 14.0658 11.5187 14.0576 11.1355C14.0403 10.769 13.7433 10.47 13.3739 10.4709C12.9954 10.4792 12.6992 10.7874 12.7 11.1705ZM13.3796 14.9103C13.0011 14.902 12.6959 14.5863 12.6951 14.2032C12.6868 13.8201 12.9904 13.5027 13.3689 13.4935H13.3772C13.7639 13.4935 14.0773 13.8092 14.0773 14.2007C14.0782 14.5922 13.7655 14.9095 13.3796 14.9103ZM9.31014 11.184C9.3266 11.5671 9.64007 11.8661 10.0185 11.8495C10.3888 11.832 10.6842 11.5155 10.6677 11.1323C10.6587 10.7575 10.3542 10.466 9.98399 10.4668C9.60552 10.4835 9.30932 10.8008 9.31014 11.184ZM10.0218 14.8729C9.64337 14.8895 9.33072 14.5905 9.31344 14.2074C9.31344 13.8242 9.60882 13.5077 9.98729 13.4902C10.3575 13.4894 10.6628 13.7809 10.671 14.1549C10.6883 14.5389 10.3921 14.8554 10.0218 14.8729ZM5.92041 11.2131C5.93687 11.5962 6.25035 11.8961 6.62882 11.8786C6.99907 11.8619 7.29444 11.5446 7.27717 11.1614C7.26894 10.7866 6.96451 10.4951 6.59344 10.4959C6.21497 10.5126 5.91959 10.8299 5.92041 11.2131ZM6.63199 14.877C6.25351 14.8945 5.94086 14.5946 5.92358 14.2115C5.92276 13.8284 6.21896 13.511 6.59743 13.4944C6.96768 13.4935 7.27293 13.785 7.28116 14.1599C7.29843 14.543 7.00306 14.8603 6.63199 14.877Z" fill="#FB3F6C"/>
</svg>
