<svg width="525" height="526" viewBox="0 0 525 526" fill="none" xmlns="http://www.w3.org/2000/svg">
<path opacity="0.3" d="M461.493 452.012C450.774 463.33 440.632 470.629 432.619 476.396C338.427 544.18 226.973 524.421 203.286 519.596C168.307 512.471 100.695 498.697 51.8121 441.041C-22.1435 353.813 -10.6275 216.386 46.7374 125.669C57.2304 109.075 112.657 16.9768 225.312 2.20705C293.489 -6.7315 372.962 11.2964 430.514 59.657C551.321 161.17 542.721 366.244 461.493 452.012Z" fill="#D7D7D7"/>
<path d="M175.269 455.618C175.269 455.618 173.847 463.667 173.15 471.634C172.878 474.748 175.278 477.451 178.401 477.582C189.011 478.023 211.707 478.883 219.85 478.519C221.075 478.465 221.875 477.211 221.422 476.073C221.042 475.119 220.31 474.347 219.377 473.918L181.889 456.689L175.269 455.618Z" fill="url(#paint0_linear_514_4436)"/>
<path d="M174.105 450.889L175.248 460.516C175.248 460.516 181.815 463.573 186.299 460.131L183.58 449.402L174.105 450.889Z" fill="url(#paint1_linear_514_4436)"/>
<path d="M174.961 269.895C174.468 272.409 172.313 395.354 185.454 450.45C185.669 451.349 185.213 452.275 184.357 452.625C182.342 453.448 178.39 454.641 173.655 454.8C172.188 454.849 170.873 453.896 170.459 452.489C166.703 439.705 148.702 375.658 146.354 314.476C143.73 246.111 146.354 312.149 146.354 312.149L147.892 269.89L174.961 269.895Z" fill="url(#paint2_linear_514_4436)"/>
<path d="M132.144 459.817C132.144 459.817 129.881 463.88 127.69 474.678C127.294 476.627 128.656 478.494 130.636 478.688C134.14 479.033 139.533 479.476 143.854 479.446C145.845 479.432 147.4 477.698 147.16 475.721C146.681 471.78 145.19 465.314 140.585 460.274L132.144 459.817Z" fill="url(#paint3_linear_514_4436)"/>
<path d="M130.156 447.435L132.825 461.994C132.825 461.994 135.464 463.957 140.685 462.534L139.411 446.869L130.156 447.435Z" fill="url(#paint4_linear_514_4436)"/>
<path d="M122.946 273.668C112.198 338.535 125.278 433.991 129.689 452.674C129.959 453.818 130.882 454.695 132.042 454.887C134.011 455.213 137.253 455.48 140.449 454.551C141.55 454.232 142.323 453.239 142.368 452.093C142.96 436.988 141.895 344.259 151.91 307.612C152.418 305.755 153.552 304.135 155.121 303.019L174.559 289.201L176.049 266.863L122.946 273.668Z" fill="url(#paint5_linear_514_4436)"/>
<path d="M198.472 186.543C198.472 186.543 198.419 186.578 198.376 186.648L197.971 186.665C197.928 186.726 197.489 186.831 197.489 186.954V186.962L197.875 187.093C197.875 187.224 198.056 187.39 198.021 187.573L198.111 187.652C197.657 190.341 195.192 197.703 192.493 207.229C192.467 207.308 192.474 207.395 192.448 207.474C186.397 228.85 177.66 261.023 175.023 275.92C175.023 275.92 170.355 278.236 163.09 279.383H163.072C152.577 281.678 136.737 283.779 121.997 279.919C121.997 279.919 114.077 215.269 123.674 159.245C123.674 159.245 148.848 152.968 176.022 151.256C176.162 151.247 176.301 151.733 176.441 151.725C178.633 151.602 180.833 152.019 183.034 152.019H184.78C185.025 152.019 185.26 152.019 185.505 152.019H185.549C186.675 152.019 188.71 152.415 191.085 153.419C191.155 153.445 191.294 153.198 191.294 153.233C191.294 153.233 191.312 153.027 191.321 153.027C191.321 153.027 191.731 153.21 191.915 153.289C192.185 153.402 192.465 153.517 192.753 153.657C192.814 153.692 192.884 153.719 192.945 153.745C192.971 153.763 193.006 153.767 193.032 153.784C193.216 153.881 193.408 153.975 193.609 154.071C193.652 154.088 193.687 154.105 193.722 154.122C193.949 154.235 194.176 154.357 194.412 154.479C194.447 154.497 194.263 154.514 194.298 154.54C194.569 154.68 194.919 154.828 195.198 154.977C195.451 155.108 195.643 155.247 195.661 155.396L195.696 155.169C195.827 155.239 195.966 155.317 196.097 155.396C196.097 155.396 196.124 155.404 196.132 155.413C197.582 156.26 199.04 157.247 200.394 158.4C200.402 158.408 200.402 158.417 200.411 158.426C200.429 158.452 200.455 158.487 200.472 158.513C206.558 168.625 209.387 185.19 198.472 186.543Z" fill="url(#paint6_linear_514_4436)"/>
<path d="M228.087 186.298C221.346 179.509 216.22 171.922 211.641 165.887C198.201 148.171 183.363 151.232 183.363 151.232L192.445 190.321C196.438 196.684 200.77 201.852 205.3 206.027C207.959 203.964 210.593 201.863 213.014 199.442C218.016 195.123 223.298 190.896 228.087 186.298Z" fill="url(#paint7_linear_514_4436)"/>
<path d="M261.023 203.182C246.503 201.377 236.142 194.408 228.088 186.298C223.299 190.896 218.016 195.123 213.014 199.443C210.594 201.863 207.96 203.964 205.301 206.027C223.822 223.098 245.67 223.512 261.369 220.539C273.807 218.183 282.385 213.704 282.385 213.704C305.257 207.045 303.202 197.207 303.202 197.207L293.237 199.639C282.278 202.94 272.853 204.022 264.671 203.519L261.023 203.182Z" fill="url(#paint8_linear_514_4436)"/>
<path d="M325.752 216.22C325.675 214.198 324.683 212.319 323.055 211.116L307.169 199.369C307.169 199.369 307.493 197.024 311.911 196.522C316.329 196.02 316.56 191.278 316.56 191.278C316.56 191.278 310.422 192.355 301.357 194.236C296.173 195.312 292.554 198.65 290.402 201.312L293.408 208.505C303.488 214.633 314.388 218.137 325.885 219.735L325.752 216.22Z" fill="url(#paint9_linear_514_4436)"/>
<path d="M185.821 151.021C185.725 151.013 185.638 151.013 185.55 151.013C185.524 151.004 185.507 151.004 185.48 150.995L185.821 151.021Z" fill="url(#paint10_linear_514_4436)"/>
<path d="M191.328 150.725L191.293 150.742V150.707C191.302 150.716 191.31 150.725 191.328 150.725Z" fill="url(#paint11_linear_514_4436)"/>
<path d="M136.037 190.404L123.683 159.215C123.683 159.215 93.5963 179.657 88.6484 205.576C94.3333 205.995 104.678 207.474 114.803 212.586C117.028 200.348 136.037 190.404 136.037 190.404Z" fill="url(#paint12_linear_514_4436)"/>
<path d="M158.809 124.607L148.56 154.247C148.39 154.738 148.592 155.281 149.046 155.533C151.84 157.077 161.906 161.542 174.035 153.852C175.299 153.051 176.159 151.744 176.351 150.26L179.67 124.607H158.809Z" fill="url(#paint13_linear_514_4436)"/>
<path d="M176.836 189.796V194.14L192.9 193.175V188.348L176.836 189.796Z" fill="url(#paint14_linear_514_4436)"/>
<path d="M162.367 218.839C162.367 218.839 128.588 237.93 117.19 221.629C114.823 218.244 114.258 214.88 114.841 211.673C104.715 206.56 94.3707 205.082 88.6858 204.663C87.194 212.477 87.9827 220.787 92.5742 229.186C112.539 265.708 166.838 227.168 166.838 227.168L162.367 218.839Z" fill="url(#paint15_linear_514_4436)"/>
<path d="M158.308 242.991L176.744 178.609C176.953 177.878 177.577 177.345 178.332 177.257C181.672 176.868 191.35 175.774 202.526 174.828C215.986 173.69 231.618 172.767 240.959 173.552C242.287 173.663 243.09 175.068 242.499 176.263C237.187 187.009 215.337 230.724 204.396 245.045C204.033 245.519 203.473 245.796 202.876 245.791L160.102 245.393C158.857 245.381 157.966 244.187 158.308 242.991Z" fill="url(#paint16_linear_514_4436)"/>
<path d="M204.438 169.247L217.804 167.019C218.516 166.901 219.099 167.581 218.873 168.266L217.55 172.276C217.435 172.625 217.13 172.877 216.766 172.926L203.903 174.644C203.238 174.733 202.689 174.128 202.842 173.475L203.661 169.974C203.75 169.597 204.056 169.31 204.438 169.247Z" fill="url(#paint17_linear_514_4436)"/>
<path d="M194.43 180.562L195.532 174.826C195.642 174.251 196.117 173.816 196.7 173.757L223.696 171.018C224.605 170.926 225.333 171.758 225.119 172.646L223.403 179.793C223.266 180.365 222.768 180.778 222.18 180.808L195.799 182.136C194.941 182.179 194.268 181.406 194.43 180.562Z" fill="url(#paint18_linear_514_4436)"/>
<path d="M162.763 227.435C162.763 227.435 160.195 216.876 161.231 213.129C162.267 209.383 164.274 204.566 170.964 205.636C177.654 206.706 185.545 209.525 185.545 209.525C185.545 209.525 185.147 214.405 180.062 212.83L183.215 215.27C183.215 215.27 182.765 219.177 178.47 217.09L181.402 220.325C181.402 220.325 179.558 223.534 176.398 221.476C173.238 219.418 171.724 228.707 162.763 227.435Z" fill="url(#paint19_linear_514_4436)"/>
<path d="M185.341 90.3121C185.538 90.6685 189.297 111.938 191.611 125.104C192.567 130.543 188.569 135.596 183.055 135.923L178.006 136.222C168.73 136.771 160.56 130.166 159.154 120.98L155.504 97.1313C155.504 97.1313 180.572 81.6621 185.341 90.3121Z" fill="url(#paint20_linear_514_4436)"/>
<path d="M150.06 97.19C148.124 94.7826 146.436 90.8907 150.559 86.7977C154.732 82.6536 159.466 83.6866 162.47 85.0763C163.799 85.6913 165.437 85.4188 166.383 84.3004C166.804 83.8037 167.428 83.4655 168.354 83.5695C170.1 83.7653 171.658 82.6125 171.866 80.868C172.221 77.8771 173.814 74.3553 179.103 73.3336C188.802 71.4587 193.641 81.1656 193.468 87.9883C193.295 94.8104 182.663 96.2452 176.632 95.1128C172.201 94.2809 168.37 98.1744 166.648 100.3C166.023 101.071 165.79 102.082 166.015 103.049L167.548 109.64C166.486 111.689 165.444 113.781 163.952 115.53C162.878 116.789 161.7 117.483 160.451 117.777C158.643 114.411 153.585 113.84 151.235 113.765C150.335 113.736 149.495 113.34 148.904 112.661C147.131 110.628 144.355 106.09 149.668 101.635C150.989 100.527 151.14 98.5336 150.06 97.19Z" fill="url(#paint21_linear_514_4436)"/>
<path d="M162.2 124.834C162.2 124.834 161.991 112.933 157.174 111.815C152.357 110.697 147.16 114.179 151.28 121.305C156.404 130.168 162.2 124.834 162.2 124.834Z" fill="url(#paint22_linear_514_4436)"/>
<path d="M181.28 131.339C167.935 134.339 158.044 121.535 157.945 121.406L158.776 120.775C158.871 120.9 168.366 133.173 181.052 130.322L181.28 131.339Z" fill="url(#paint23_linear_514_4436)"/>
<path d="M178.234 132.246H183.135C183.253 132.246 183.35 132.15 183.35 132.032V130.367C183.35 130.249 183.253 130.152 183.135 130.152H178.234C178.116 130.152 178.02 130.249 178.02 130.367V132.032C178.02 132.15 178.116 132.246 178.234 132.246Z" fill="url(#paint24_linear_514_4436)"/>
<path d="M156.332 107.476C156.332 107.476 158.888 86.0907 171.573 82.6806C171.573 82.6806 167.784 81.3767 164.15 83.6576C160.515 85.9385 151.802 97.1836 153.162 108.351C155.848 108.937 156.332 107.476 156.332 107.476Z" fill="url(#paint25_linear_514_4436)"/>
<path d="M154.047 106.334C146.736 108.591 148.594 117.935 148.594 117.935C148.738 124.836 151.075 128.032 153.797 129.394C155.657 130.324 157.869 130.207 159.624 129.091C161.378 127.975 162.419 126.02 162.366 123.942C162.318 122.064 162.299 120.277 162.375 119.634C162.558 118.077 161.357 104.076 154.047 106.334Z" fill="url(#paint26_linear_514_4436)"/>
<path d="M154.968 108.652C153.393 108.537 151.947 109.512 151.468 111.017C148.038 121.792 154.182 127.966 156.884 127.838C159.732 127.704 158.316 114.08 157.367 110.646C156.969 109.207 155.981 108.726 154.968 108.652Z" fill="url(#paint27_linear_514_4436)"/>
<path d="M469.343 182.617L481.439 181.763L496.529 225.937L476.747 325.091L457.977 322.322L469.343 182.617Z" fill="url(#paint28_linear_514_4436)"/>
<path d="M397.167 318.111L421.066 227.514L435.332 178.464L469.341 182.618L484.988 228.232L463.503 322.31H397.109L397.167 318.111Z" fill="url(#paint29_linear_514_4436)"/>
<path d="M481.437 181.763L450.989 177.355L435.332 178.464L469.34 182.617L481.437 181.763Z" fill="url(#paint30_linear_514_4436)"/>
<path d="M474.594 225.983L457.941 220.752V199.95L466.268 200.689L474.594 225.983Z" fill="url(#paint31_linear_514_4436)"/>
<path d="M444.197 197.335L436.585 195.411L429.668 218.374H440.907L444.197 197.335Z" fill="url(#paint32_linear_514_4436)"/>
<path d="M350.469 279.206C350.469 279.206 342.425 321.615 339.412 321.615C336.399 321.615 280.848 314.934 280.848 314.934V302.844L324.725 304.466L335.251 272.949L350.469 279.206Z" fill="url(#paint33_linear_514_4436)"/>
<path d="M360.957 324.729H435.347L430.828 272.073C430.828 272.073 436.389 232.323 411.014 227.91C396.066 223.845 396.066 223.89 396.066 223.89C396.066 223.89 376.948 220.919 360.957 227.978C344.967 235.036 331.758 277.457 331.758 277.457L350.876 285.11L355.743 269.289L360.957 324.729Z" fill="url(#paint34_linear_514_4436)"/>
<path d="M392.458 198.424L400.031 227.504C400.031 227.504 384.207 235.143 370.77 228.531L375.011 200.338L392.458 198.424Z" fill="url(#paint35_linear_514_4436)"/>
<path d="M356.828 174.951C356.828 174.951 355.619 196.034 358.605 205.764C361.59 215.495 361.817 222.44 373.55 220.294C385.283 218.148 392.545 209.231 394.074 197.877C394.074 197.877 396.56 180.335 392.581 174.993C388.602 169.652 356.828 174.951 356.828 174.951Z" fill="url(#paint36_linear_514_4436)"/>
<path d="M387.788 192.437L387.058 192.392C386.13 192.334 385.437 191.51 385.552 190.586C385.999 187.009 386.491 179.008 381.984 178.846C376.175 178.637 354.685 181.933 347.757 176.431C341.099 171.144 341.526 160.991 346.122 156.453C346.429 156.149 346.914 156.122 347.236 156.41L348.016 157.111C348.551 157.591 349.398 157.176 349.346 156.46C349.297 155.772 350.079 155.347 350.624 155.769C352.732 157.402 357.579 159.522 367.801 157.758C382.327 155.252 393.349 157.44 397.039 166.756C397.274 167.348 398.031 167.446 398.427 166.947C399.205 165.965 400.706 165.085 403.52 166.098C408.414 167.862 409.89 176.573 404.173 186.294C403.902 186.756 404.129 187.362 404.651 187.481C406.492 187.9 409.553 189.383 404.95 194.563C400.188 199.921 395.663 201.294 393.854 201.641C393.404 201.728 392.979 201.418 392.917 200.964L391.691 192.032C391.621 191.527 391.102 191.215 390.623 191.392L387.788 192.437Z" fill="url(#paint37_linear_514_4436)"/>
<path d="M388.085 194.306C388.085 194.306 386.823 181.589 393.225 182.924C399.628 184.259 395.321 196.922 391.298 198.899L388.085 194.306Z" fill="url(#paint38_linear_514_4436)"/>
<path d="M372.243 210.55C385.86 209.259 391.289 194.018 391.342 193.864L390.357 193.522C390.305 193.67 385.088 208.284 372.145 209.512L372.243 210.55Z" fill="url(#paint39_linear_514_4436)"/>
<path d="M375.045 210.756H370.144C370.026 210.756 369.93 210.66 369.93 210.541V208.877C369.93 208.759 370.026 208.662 370.144 208.662H375.045C375.163 208.662 375.26 208.759 375.26 208.877V210.541C375.26 210.66 375.164 210.756 375.045 210.756Z" fill="url(#paint40_linear_514_4436)"/>
<path d="M387.984 178.697C387.984 178.697 379.442 158.057 365.68 158.147C365.68 158.147 369.143 155.802 373.45 157.077C377.757 158.353 389.691 167.176 391.429 178.697C388.88 180.021 387.984 178.697 387.984 178.697Z" fill="url(#paint41_linear_514_4436)"/>
<path d="M390.039 177.008C397.687 177.239 398.382 186.741 398.382 186.741C400.078 193.432 398.676 197.133 396.414 199.171C394.869 200.562 392.705 201.038 390.717 200.429C388.729 199.819 387.206 198.212 386.704 196.194C386.251 194.372 385.794 192.644 385.549 192.045C384.959 190.592 382.392 176.776 390.039 177.008Z" fill="url(#paint42_linear_514_4436)"/>
<path d="M389.766 179.487C391.254 178.957 392.907 179.513 393.77 180.836C399.942 190.31 395.661 197.896 393.023 198.492C390.242 199.12 387.983 185.611 387.984 182.048C387.985 180.555 388.809 179.828 389.766 179.487Z" fill="url(#paint43_linear_514_4436)"/>
<path d="M420.976 287.665C421.087 287.665 421.197 287.612 421.264 287.513L429.607 275.231C429.715 275.072 429.673 274.856 429.514 274.748C429.356 274.64 429.14 274.681 429.032 274.84L420.689 287.122C420.581 287.281 420.622 287.497 420.781 287.605C420.841 287.646 420.909 287.665 420.976 287.665Z" fill="url(#paint44_linear_514_4436)"/>
<path d="M177.961 325.06C177.961 327.499 180.105 329.36 182.75 329.36H516.156C518.8 329.36 520.944 327.499 520.944 325.06C520.944 322.621 518.801 320.761 516.156 320.761H182.75C180.105 320.761 177.961 322.621 177.961 325.06Z" fill="url(#paint45_linear_514_4436)"/>
<path d="M402.706 281.435C402.812 281.435 402.916 281.387 402.984 281.296C403.099 281.143 403.068 280.925 402.915 280.81L399.84 278.503L409.717 251.168C409.783 250.987 409.689 250.788 409.509 250.723C409.328 250.658 409.129 250.751 409.063 250.932L399.099 278.509C399.047 278.653 399.095 278.813 399.217 278.905L402.498 281.366C402.56 281.413 402.633 281.435 402.706 281.435Z" fill="url(#paint46_linear_514_4436)"/>
<path d="M183.027 329.359C191.943 377.647 200.864 425.902 209.779 474.107C210.307 476.919 212.837 479.515 215.315 479.515H486.386C488.863 479.515 491.593 476.919 492.12 474.107C501.036 425.902 509.957 377.647 518.872 329.359H183.027Z" fill="url(#paint47_linear_514_4436)"/>
<path d="M399.723 329.359C403.284 378.97 406.84 429.243 410.401 479.515H486.387C488.865 479.515 491.595 476.919 492.122 474.107C501.037 425.902 509.959 377.647 518.874 329.359H399.723Z" fill="url(#paint48_linear_514_4436)"/>
<path d="M419.375 325.06C419.375 327.499 420.034 329.36 420.847 329.36H523.337C524.15 329.36 524.809 327.499 524.809 325.06C524.809 322.621 524.15 320.761 523.337 320.761H420.847C420.034 320.761 419.375 322.621 419.375 325.06Z" fill="url(#paint49_linear_514_4436)"/>
<path d="M243.079 316.13H335.912C337.93 316.13 339.72 317.745 339.72 319.763V322.083H239.176V319.763C239.176 317.745 241.06 316.13 243.079 316.13Z" fill="url(#paint50_linear_514_4436)"/>
<path d="M216.574 221.631L228.477 303.179C228.866 305.843 231.368 308.003 234.074 308.003L323.195 308C326.042 308 327.935 305.787 327.425 303.05L311.812 219.309C311.337 216.761 308.743 214.752 306.018 214.822L220.61 217.013C218.014 217.079 216.211 219.147 216.574 221.631Z" fill="url(#paint51_linear_514_4436)"/>
<path d="M303.872 216.356L320.323 306.1C320.528 307.218 321.845 308.132 323.002 308.132C325.848 308.132 327.955 305.891 327.441 303.138L311.816 219.334C311.339 216.772 308.743 214.752 306.018 214.822L304.519 214.86C304.042 215.205 303.761 215.755 303.872 216.356Z" fill="url(#paint52_linear_514_4436)"/>
<path d="M231.092 274.991C231.423 274.979 231.642 274.69 231.582 274.346L223.067 226.03C222.681 223.837 224.415 222.429 226.316 222.332L235.369 221.87C235.694 221.853 235.909 221.572 235.849 221.241C235.789 220.911 235.476 220.657 235.151 220.674L226.104 221.138C223.28 221.283 221.432 223.455 221.895 226.088L230.383 274.39C230.443 274.733 230.761 275.003 231.092 274.991Z" fill="#91B3FA"/>
<path d="M297.217 300.838L309.757 300.813C312.327 300.808 313.853 298.514 313.304 295.483L309.927 276.85C309.863 276.496 309.53 276.212 309.184 276.215C308.837 276.218 308.608 276.507 308.672 276.861L312.038 295.488C312.452 297.774 311.37 299.503 309.523 299.508L296.99 299.537C296.643 299.538 296.413 299.83 296.475 300.189C296.538 300.548 296.87 300.839 297.217 300.838Z" fill="#91B3FA"/>
<path d="M241.824 320.961V322.037L263.306 322.745H294.66C295.416 322.745 296.029 321.915 296.029 321.159C296.029 318.217 293.958 315.469 291.009 315.469H246.748C246.368 315.469 245.962 315.522 245.626 315.596C243.3 316.131 241.824 318.398 241.824 320.961Z" fill="url(#paint53_linear_514_4436)"/>
<path d="M235.849 320.879C235.856 317.937 238.25 315.573 241.199 315.586L245.671 315.605L263.329 315.685L285.46 315.816C288.402 315.829 290.778 318.543 290.772 321.485C290.769 322.067 290.296 322.744 289.715 322.744H236.905C236.624 322.744 236.354 322.424 236.156 322.225C235.957 322.026 235.847 321.652 235.848 321.37L235.849 320.879Z" fill="url(#paint54_linear_514_4436)"/>
<path d="M278.068 256.597C280.086 256.597 281.513 258.033 281.513 260.051V315.468H253.73V256.597H278.068Z" fill="url(#paint55_linear_514_4436)"/>
<path d="M253.03 256.597H273.712C275.73 256.597 277.541 258.033 277.541 260.051V315.468H249.098V260.051C249.098 258.033 251.012 256.597 253.03 256.597Z" fill="url(#paint56_linear_514_4436)"/>
<path d="M354.005 322.083H330.02C330.02 322.083 335.466 310.38 345.43 310.959C355.395 311.538 354.005 322.083 354.005 322.083Z" fill="url(#paint57_linear_514_4436)"/>
<path d="M419.39 288.766L402.706 281.088L387.954 307.016C387.954 307.016 346.241 300.527 338.825 308.406C331.409 316.285 334.885 316.169 335.812 316.169C336.739 316.169 341.026 311.535 341.026 311.535C341.026 311.535 337.268 317.19 339.288 317.444C341.309 317.698 346.241 312.346 346.241 312.346C346.241 312.346 342.185 319.414 344.618 318.603C347.052 317.792 349.021 313.968 349.021 313.968C349.021 313.968 345.777 318.501 347.979 318.667C350.18 318.834 353.54 314.934 353.54 314.934C353.54 314.934 358.697 317.27 361.651 317.27C364.606 317.27 394.385 324.706 399.773 321.615C405.161 318.525 419.39 288.766 419.39 288.766Z" fill="url(#paint58_linear_514_4436)"/>
<g opacity="0.5">
<path d="M364.271 282.726L365.173 274.764L365.174 274.765C365.371 272.025 367.654 269.839 370.445 269.839C372.119 269.839 373.611 269.826 374.58 271.811H379.423C380.391 269.826 381.883 269.839 383.558 269.839C386.348 269.839 388.632 272.013 388.828 274.753L388.83 274.758L389.731 282.723C389.837 283.654 389.319 284.545 388.458 284.913L387.564 285.297C386.728 285.655 385.756 285.648 385.149 284.97L380.879 280.41H373.124L368.854 284.97C368.247 285.648 367.275 285.759 366.439 285.401L365.545 284.967C364.683 284.598 364.166 283.657 364.271 282.726Z" fill="white"/>
<mask id="mask0_514_4436" style="mask-type:luminance" maskUnits="userSpaceOnUse" x="364" y="269" width="26" height="17">
<path d="M364.271 282.726L365.173 274.764L365.174 274.765C365.371 272.025 367.654 269.839 370.445 269.839C372.119 269.839 373.611 269.826 374.58 271.811H379.423C380.391 269.826 381.883 269.839 383.558 269.839C386.348 269.839 388.632 272.013 388.828 274.753L388.83 274.758L389.731 282.723C389.837 283.654 389.319 284.545 388.458 284.913L387.564 285.297C386.728 285.655 385.756 285.648 385.149 284.97L380.879 280.41H373.124L368.854 284.97C368.247 285.648 367.275 285.759 366.439 285.401L365.545 284.967C364.683 284.598 364.166 283.657 364.271 282.726Z" fill="white"/>
</mask>
<g mask="url(#mask0_514_4436)">
<path d="M364.301 270.378L365.039 269.863H364.301V270.378Z" fill="white"/>
</g>
<mask id="mask1_514_4436" style="mask-type:luminance" maskUnits="userSpaceOnUse" x="364" y="269" width="26" height="17">
<path d="M364.271 282.726L365.173 274.764L365.174 274.765C365.371 272.025 367.654 269.839 370.445 269.839C372.119 269.839 373.611 269.826 374.58 271.811H379.423C380.391 269.826 381.883 269.839 383.558 269.839C386.348 269.839 388.632 272.013 388.828 274.753L388.83 274.758L389.731 282.723C389.837 283.654 389.319 284.545 388.458 284.913L387.564 285.297C386.728 285.655 385.756 285.648 385.149 284.97L380.879 280.41H373.124L368.854 284.97C368.247 285.648 367.275 285.759 366.439 285.401L365.545 284.967C364.683 284.598 364.166 283.657 364.271 282.726Z" fill="white"/>
</mask>
<g mask="url(#mask1_514_4436)">
<path d="M364.195 270.955L366.039 269.826H365.037L364.195 270.377V270.955Z" fill="white"/>
</g>
<mask id="mask2_514_4436" style="mask-type:luminance" maskUnits="userSpaceOnUse" x="364" y="269" width="26" height="17">
<path d="M364.271 282.726L365.173 274.764L365.174 274.765C365.371 272.025 367.654 269.839 370.445 269.839C372.119 269.839 373.611 269.826 374.58 271.811H379.423C380.391 269.826 381.883 269.839 383.558 269.839C386.348 269.839 388.632 272.013 388.828 274.753L388.83 274.758L389.731 282.723C389.837 283.654 389.319 284.545 388.458 284.913L387.564 285.297C386.728 285.655 385.756 285.648 385.149 284.97L380.879 280.41H373.124L368.854 284.97C368.247 285.648 367.275 285.759 366.439 285.401L365.545 284.967C364.683 284.598 364.166 283.657 364.271 282.726Z" fill="white"/>
</mask>
<g mask="url(#mask2_514_4436)">
<path d="M364.195 271.533L367.041 269.826H366.039L364.195 270.955V271.533Z" fill="white"/>
</g>
<mask id="mask3_514_4436" style="mask-type:luminance" maskUnits="userSpaceOnUse" x="364" y="269" width="26" height="17">
<path d="M364.271 282.726L365.173 274.764L365.174 274.765C365.371 272.025 367.654 269.839 370.445 269.839C372.119 269.839 373.611 269.826 374.58 271.811H379.423C380.391 269.826 381.883 269.839 383.558 269.839C386.348 269.839 388.632 272.013 388.828 274.753L388.83 274.758L389.731 282.723C389.837 283.654 389.319 284.545 388.458 284.913L387.564 285.297C386.728 285.655 385.756 285.648 385.149 284.97L380.879 280.41H373.124L368.854 284.97C368.247 285.648 367.275 285.759 366.439 285.401L365.545 284.967C364.683 284.598 364.166 283.657 364.271 282.726Z" fill="white"/>
</mask>
<g mask="url(#mask3_514_4436)">
<path d="M364.195 272.111L368.043 269.826H367.041L364.195 271.533V272.111Z" fill="white"/>
</g>
<mask id="mask4_514_4436" style="mask-type:luminance" maskUnits="userSpaceOnUse" x="364" y="269" width="26" height="17">
<path d="M364.271 282.726L365.173 274.764L365.174 274.765C365.371 272.025 367.654 269.839 370.445 269.839C372.119 269.839 373.611 269.826 374.58 271.811H379.423C380.391 269.826 381.883 269.839 383.558 269.839C386.348 269.839 388.632 272.013 388.828 274.753L388.83 274.758L389.731 282.723C389.837 283.654 389.319 284.545 388.458 284.913L387.564 285.297C386.728 285.655 385.756 285.648 385.149 284.97L380.879 280.41H373.124L368.854 284.97C368.247 285.648 367.275 285.759 366.439 285.401L365.545 284.967C364.683 284.598 364.166 283.657 364.271 282.726Z" fill="white"/>
</mask>
<g mask="url(#mask4_514_4436)">
<path d="M364.195 272.689L369.045 269.826H368.043L364.195 272.111V272.689Z" fill="white"/>
</g>
<mask id="mask5_514_4436" style="mask-type:luminance" maskUnits="userSpaceOnUse" x="364" y="269" width="26" height="17">
<path d="M364.271 282.726L365.173 274.764L365.174 274.765C365.371 272.025 367.654 269.839 370.445 269.839C372.119 269.839 373.611 269.826 374.58 271.811H379.423C380.391 269.826 381.883 269.839 383.558 269.839C386.348 269.839 388.632 272.013 388.828 274.753L388.83 274.758L389.731 282.723C389.837 283.654 389.319 284.545 388.458 284.913L387.564 285.297C386.728 285.655 385.756 285.648 385.149 284.97L380.879 280.41H373.124L368.854 284.97C368.247 285.648 367.275 285.759 366.439 285.401L365.545 284.967C364.683 284.598 364.166 283.657 364.271 282.726Z" fill="white"/>
</mask>
<g mask="url(#mask5_514_4436)">
<path d="M364.195 273.267L370.046 269.826H369.045L364.195 272.689V273.267Z" fill="white"/>
</g>
<mask id="mask6_514_4436" style="mask-type:luminance" maskUnits="userSpaceOnUse" x="364" y="269" width="26" height="17">
<path d="M364.271 282.726L365.173 274.764L365.174 274.765C365.371 272.025 367.654 269.839 370.445 269.839C372.119 269.839 373.611 269.826 374.58 271.811H379.423C380.391 269.826 381.883 269.839 383.558 269.839C386.348 269.839 388.632 272.013 388.828 274.753L388.83 274.758L389.731 282.723C389.837 283.654 389.319 284.545 388.458 284.913L387.564 285.297C386.728 285.655 385.756 285.648 385.149 284.97L380.879 280.41H373.124L368.854 284.97C368.247 285.648 367.275 285.759 366.439 285.401L365.545 284.967C364.683 284.598 364.166 283.657 364.271 282.726Z" fill="white"/>
</mask>
<g mask="url(#mask6_514_4436)">
<path d="M364.195 273.845L371.048 269.826H370.046L364.195 273.267V273.845Z" fill="white"/>
</g>
<mask id="mask7_514_4436" style="mask-type:luminance" maskUnits="userSpaceOnUse" x="364" y="269" width="26" height="17">
<path d="M364.271 282.726L365.173 274.764L365.174 274.765C365.371 272.025 367.654 269.839 370.445 269.839C372.119 269.839 373.611 269.826 374.58 271.811H379.423C380.391 269.826 381.883 269.839 383.558 269.839C386.348 269.839 388.632 272.013 388.828 274.753L388.83 274.758L389.731 282.723C389.837 283.654 389.319 284.545 388.458 284.913L387.564 285.297C386.728 285.655 385.756 285.648 385.149 284.97L380.879 280.41H373.124L368.854 284.97C368.247 285.648 367.275 285.759 366.439 285.401L365.545 284.967C364.683 284.598 364.166 283.657 364.271 282.726Z" fill="white"/>
</mask>
<g mask="url(#mask7_514_4436)">
<path d="M364.195 274.423L372.05 269.826H371.048L364.195 273.845V274.423Z" fill="white"/>
</g>
<mask id="mask8_514_4436" style="mask-type:luminance" maskUnits="userSpaceOnUse" x="364" y="269" width="26" height="17">
<path d="M364.271 282.726L365.173 274.764L365.174 274.765C365.371 272.025 367.654 269.839 370.445 269.839C372.119 269.839 373.611 269.826 374.58 271.811H379.423C380.391 269.826 381.883 269.839 383.558 269.839C386.348 269.839 388.632 272.013 388.828 274.753L388.83 274.758L389.731 282.723C389.837 283.654 389.319 284.545 388.458 284.913L387.564 285.297C386.728 285.655 385.756 285.648 385.149 284.97L380.879 280.41H373.124L368.854 284.97C368.247 285.648 367.275 285.759 366.439 285.401L365.545 284.967C364.683 284.598 364.166 283.657 364.271 282.726Z" fill="white"/>
</mask>
<g mask="url(#mask8_514_4436)">
<path d="M364.195 275.001L373.052 269.826H372.05L364.195 274.423V275.001Z" fill="white"/>
</g>
<mask id="mask9_514_4436" style="mask-type:luminance" maskUnits="userSpaceOnUse" x="364" y="269" width="26" height="17">
<path d="M364.271 282.726L365.173 274.764L365.174 274.765C365.371 272.025 367.654 269.839 370.445 269.839C372.119 269.839 373.611 269.826 374.58 271.811H379.423C380.391 269.826 381.883 269.839 383.558 269.839C386.348 269.839 388.632 272.013 388.828 274.753L388.83 274.758L389.731 282.723C389.837 283.654 389.319 284.545 388.458 284.913L387.564 285.297C386.728 285.655 385.756 285.648 385.149 284.97L380.879 280.41H373.124L368.854 284.97C368.247 285.648 367.275 285.759 366.439 285.401L365.545 284.967C364.683 284.598 364.166 283.657 364.271 282.726Z" fill="white"/>
</mask>
<g mask="url(#mask9_514_4436)">
<path d="M364.195 275.579L374.054 269.826H373.052L364.195 275.001V275.579Z" fill="white"/>
</g>
<mask id="mask10_514_4436" style="mask-type:luminance" maskUnits="userSpaceOnUse" x="364" y="269" width="26" height="17">
<path d="M364.271 282.726L365.173 274.764L365.174 274.765C365.371 272.025 367.654 269.839 370.445 269.839C372.119 269.839 373.611 269.826 374.58 271.811H379.423C380.391 269.826 381.883 269.839 383.558 269.839C386.348 269.839 388.632 272.013 388.828 274.753L388.83 274.758L389.731 282.723C389.837 283.654 389.319 284.545 388.458 284.913L387.564 285.297C386.728 285.655 385.756 285.648 385.149 284.97L380.879 280.41H373.124L368.854 284.97C368.247 285.648 367.275 285.759 366.439 285.401L365.545 284.967C364.683 284.598 364.166 283.657 364.271 282.726Z" fill="white"/>
</mask>
<g mask="url(#mask10_514_4436)">
<path d="M364.195 276.157L375.055 269.826H374.054L364.195 275.579V276.157Z" fill="white"/>
</g>
<mask id="mask11_514_4436" style="mask-type:luminance" maskUnits="userSpaceOnUse" x="364" y="269" width="26" height="17">
<path d="M364.271 282.726L365.173 274.764L365.174 274.765C365.371 272.025 367.654 269.839 370.445 269.839C372.119 269.839 373.611 269.826 374.58 271.811H379.423C380.391 269.826 381.883 269.839 383.558 269.839C386.348 269.839 388.632 272.013 388.828 274.753L388.83 274.758L389.731 282.723C389.837 283.654 389.319 284.545 388.458 284.913L387.564 285.297C386.728 285.655 385.756 285.648 385.149 284.97L380.879 280.41H373.124L368.854 284.97C368.247 285.648 367.275 285.759 366.439 285.401L365.545 284.967C364.683 284.598 364.166 283.657 364.271 282.726Z" fill="white"/>
</mask>
<g mask="url(#mask11_514_4436)">
<path d="M364.195 276.735L376.057 269.826H375.055L364.195 276.157V276.735Z" fill="white"/>
</g>
<mask id="mask12_514_4436" style="mask-type:luminance" maskUnits="userSpaceOnUse" x="364" y="269" width="26" height="17">
<path d="M364.271 282.726L365.173 274.764L365.174 274.765C365.371 272.025 367.654 269.839 370.445 269.839C372.119 269.839 373.611 269.826 374.58 271.811H379.423C380.391 269.826 381.883 269.839 383.558 269.839C386.348 269.839 388.632 272.013 388.828 274.753L388.83 274.758L389.731 282.723C389.837 283.654 389.319 284.545 388.458 284.913L387.564 285.297C386.728 285.655 385.756 285.648 385.149 284.97L380.879 280.41H373.124L368.854 284.97C368.247 285.648 367.275 285.759 366.439 285.401L365.545 284.967C364.683 284.598 364.166 283.657 364.271 282.726Z" fill="white"/>
</mask>
<g mask="url(#mask12_514_4436)">
<path d="M364.195 277.313L377.059 269.826H376.057L364.195 276.735V277.313Z" fill="white"/>
</g>
<mask id="mask13_514_4436" style="mask-type:luminance" maskUnits="userSpaceOnUse" x="364" y="269" width="26" height="17">
<path d="M364.271 282.726L365.173 274.764L365.174 274.765C365.371 272.025 367.654 269.839 370.445 269.839C372.119 269.839 373.611 269.826 374.58 271.811H379.423C380.391 269.826 381.883 269.839 383.558 269.839C386.348 269.839 388.632 272.013 388.828 274.753L388.83 274.758L389.731 282.723C389.837 283.654 389.319 284.545 388.458 284.913L387.564 285.297C386.728 285.655 385.756 285.648 385.149 284.97L380.879 280.41H373.124L368.854 284.97C368.247 285.648 367.275 285.759 366.439 285.401L365.545 284.967C364.683 284.598 364.166 283.657 364.271 282.726Z" fill="white"/>
</mask>
<g mask="url(#mask13_514_4436)">
<path d="M364.195 277.891L378.061 269.826H377.059L364.195 277.313V277.891Z" fill="white"/>
</g>
<mask id="mask14_514_4436" style="mask-type:luminance" maskUnits="userSpaceOnUse" x="364" y="269" width="26" height="17">
<path d="M364.271 282.726L365.173 274.764L365.174 274.765C365.371 272.025 367.654 269.839 370.445 269.839C372.119 269.839 373.611 269.826 374.58 271.811H379.423C380.391 269.826 381.883 269.839 383.558 269.839C386.348 269.839 388.632 272.013 388.828 274.753L388.83 274.758L389.731 282.723C389.837 283.654 389.319 284.545 388.458 284.913L387.564 285.297C386.728 285.655 385.756 285.648 385.149 284.97L380.879 280.41H373.124L368.854 284.97C368.247 285.648 367.275 285.759 366.439 285.401L365.545 284.967C364.683 284.598 364.166 283.657 364.271 282.726Z" fill="white"/>
</mask>
<g mask="url(#mask14_514_4436)">
<path d="M364.195 278.469L379.063 269.826H378.061L364.195 277.891V278.469Z" fill="white"/>
</g>
<mask id="mask15_514_4436" style="mask-type:luminance" maskUnits="userSpaceOnUse" x="364" y="269" width="26" height="17">
<path d="M364.271 282.726L365.173 274.764L365.174 274.765C365.371 272.025 367.654 269.839 370.445 269.839C372.119 269.839 373.611 269.826 374.58 271.811H379.423C380.391 269.826 381.883 269.839 383.558 269.839C386.348 269.839 388.632 272.013 388.828 274.753L388.83 274.758L389.731 282.723C389.837 283.654 389.319 284.545 388.458 284.913L387.564 285.297C386.728 285.655 385.756 285.648 385.149 284.97L380.879 280.41H373.124L368.854 284.97C368.247 285.648 367.275 285.759 366.439 285.401L365.545 284.967C364.683 284.598 364.166 283.657 364.271 282.726Z" fill="white"/>
</mask>
<g mask="url(#mask15_514_4436)">
<path d="M364.195 279.047L380.065 269.826H379.063L364.195 278.469V279.047Z" fill="white"/>
</g>
<mask id="mask16_514_4436" style="mask-type:luminance" maskUnits="userSpaceOnUse" x="364" y="269" width="26" height="17">
<path d="M364.271 282.726L365.173 274.764L365.174 274.765C365.371 272.025 367.654 269.839 370.445 269.839C372.119 269.839 373.611 269.826 374.58 271.811H379.423C380.391 269.826 381.883 269.839 383.558 269.839C386.348 269.839 388.632 272.013 388.828 274.753L388.83 274.758L389.731 282.723C389.837 283.654 389.319 284.545 388.458 284.913L387.564 285.297C386.728 285.655 385.756 285.648 385.149 284.97L380.879 280.41H373.124L368.854 284.97C368.247 285.648 367.275 285.759 366.439 285.401L365.545 284.967C364.683 284.598 364.166 283.657 364.271 282.726Z" fill="white"/>
</mask>
<g mask="url(#mask16_514_4436)">
<path d="M364.195 279.625L381.066 269.826H380.065L364.195 279.047V279.625Z" fill="white"/>
</g>
<mask id="mask17_514_4436" style="mask-type:luminance" maskUnits="userSpaceOnUse" x="364" y="269" width="26" height="17">
<path d="M364.271 282.726L365.173 274.764L365.174 274.765C365.371 272.025 367.654 269.839 370.445 269.839C372.119 269.839 373.611 269.826 374.58 271.811H379.423C380.391 269.826 381.883 269.839 383.558 269.839C386.348 269.839 388.632 272.013 388.828 274.753L388.83 274.758L389.731 282.723C389.837 283.654 389.319 284.545 388.458 284.913L387.564 285.297C386.728 285.655 385.756 285.648 385.149 284.97L380.879 280.41H373.124L368.854 284.97C368.247 285.648 367.275 285.759 366.439 285.401L365.545 284.967C364.683 284.598 364.166 283.657 364.271 282.726Z" fill="white"/>
</mask>
<g mask="url(#mask17_514_4436)">
<path d="M364.195 280.203L382.068 269.826H381.066L364.195 279.625V280.203Z" fill="white"/>
</g>
<mask id="mask18_514_4436" style="mask-type:luminance" maskUnits="userSpaceOnUse" x="364" y="269" width="26" height="17">
<path d="M364.271 282.726L365.173 274.764L365.174 274.765C365.371 272.025 367.654 269.839 370.445 269.839C372.119 269.839 373.611 269.826 374.58 271.811H379.423C380.391 269.826 381.883 269.839 383.558 269.839C386.348 269.839 388.632 272.013 388.828 274.753L388.83 274.758L389.731 282.723C389.837 283.654 389.319 284.545 388.458 284.913L387.564 285.297C386.728 285.655 385.756 285.648 385.149 284.97L380.879 280.41H373.124L368.854 284.97C368.247 285.648 367.275 285.759 366.439 285.401L365.545 284.967C364.683 284.598 364.166 283.657 364.271 282.726Z" fill="white"/>
</mask>
<g mask="url(#mask18_514_4436)">
<path d="M364.195 280.781L383.07 269.826H382.068L364.195 280.203V280.781Z" fill="white"/>
</g>
<mask id="mask19_514_4436" style="mask-type:luminance" maskUnits="userSpaceOnUse" x="364" y="269" width="26" height="17">
<path d="M364.271 282.726L365.173 274.764L365.174 274.765C365.371 272.025 367.654 269.839 370.445 269.839C372.119 269.839 373.611 269.826 374.58 271.811H379.423C380.391 269.826 381.883 269.839 383.558 269.839C386.348 269.839 388.632 272.013 388.828 274.753L388.83 274.758L389.731 282.723C389.837 283.654 389.319 284.545 388.458 284.913L387.564 285.297C386.728 285.655 385.756 285.648 385.149 284.97L380.879 280.41H373.124L368.854 284.97C368.247 285.648 367.275 285.759 366.439 285.401L365.545 284.967C364.683 284.598 364.166 283.657 364.271 282.726Z" fill="white"/>
</mask>
<g mask="url(#mask19_514_4436)">
<path d="M364.195 281.359L384.072 269.826H383.07L364.195 280.781V281.359Z" fill="white"/>
</g>
<mask id="mask20_514_4436" style="mask-type:luminance" maskUnits="userSpaceOnUse" x="364" y="269" width="26" height="17">
<path d="M364.271 282.726L365.173 274.764L365.174 274.765C365.371 272.025 367.654 269.839 370.445 269.839C372.119 269.839 373.611 269.826 374.58 271.811H379.423C380.391 269.826 381.883 269.839 383.558 269.839C386.348 269.839 388.632 272.013 388.828 274.753L388.83 274.758L389.731 282.723C389.837 283.654 389.319 284.545 388.458 284.913L387.564 285.297C386.728 285.655 385.756 285.648 385.149 284.97L380.879 280.41H373.124L368.854 284.97C368.247 285.648 367.275 285.759 366.439 285.401L365.545 284.967C364.683 284.598 364.166 283.657 364.271 282.726Z" fill="white"/>
</mask>
<g mask="url(#mask20_514_4436)">
<path d="M364.195 281.937L385.074 269.826H384.072L364.195 281.359V281.937Z" fill="white"/>
</g>
<mask id="mask21_514_4436" style="mask-type:luminance" maskUnits="userSpaceOnUse" x="364" y="269" width="26" height="17">
<path d="M364.271 282.726L365.173 274.764L365.174 274.765C365.371 272.025 367.654 269.839 370.445 269.839C372.119 269.839 373.611 269.826 374.58 271.811H379.423C380.391 269.826 381.883 269.839 383.558 269.839C386.348 269.839 388.632 272.013 388.828 274.753L388.83 274.758L389.731 282.723C389.837 283.654 389.319 284.545 388.458 284.913L387.564 285.297C386.728 285.655 385.756 285.648 385.149 284.97L380.879 280.41H373.124L368.854 284.97C368.247 285.648 367.275 285.759 366.439 285.401L365.545 284.967C364.683 284.598 364.166 283.657 364.271 282.726Z" fill="white"/>
</mask>
<g mask="url(#mask21_514_4436)">
<path d="M364.195 282.515L386.076 269.826H385.074L364.195 281.937V282.515Z" fill="white"/>
</g>
<mask id="mask22_514_4436" style="mask-type:luminance" maskUnits="userSpaceOnUse" x="364" y="269" width="26" height="17">
<path d="M364.271 282.726L365.173 274.764L365.174 274.765C365.371 272.025 367.654 269.839 370.445 269.839C372.119 269.839 373.611 269.826 374.58 271.811H379.423C380.391 269.826 381.883 269.839 383.558 269.839C386.348 269.839 388.632 272.013 388.828 274.753L388.83 274.758L389.731 282.723C389.837 283.654 389.319 284.545 388.458 284.913L387.564 285.297C386.728 285.655 385.756 285.648 385.149 284.97L380.879 280.41H373.124L368.854 284.97C368.247 285.648 367.275 285.759 366.439 285.401L365.545 284.967C364.683 284.598 364.166 283.657 364.271 282.726Z" fill="white"/>
</mask>
<g mask="url(#mask22_514_4436)">
<path d="M364.195 283.093L387.077 269.826H386.076L364.195 282.515V283.093Z" fill="white"/>
</g>
<mask id="mask23_514_4436" style="mask-type:luminance" maskUnits="userSpaceOnUse" x="364" y="269" width="26" height="17">
<path d="M364.271 282.726L365.173 274.764L365.174 274.765C365.371 272.025 367.654 269.839 370.445 269.839C372.119 269.839 373.611 269.826 374.58 271.811H379.423C380.391 269.826 381.883 269.839 383.558 269.839C386.348 269.839 388.632 272.013 388.828 274.753L388.83 274.758L389.731 282.723C389.837 283.654 389.319 284.545 388.458 284.913L387.564 285.297C386.728 285.655 385.756 285.648 385.149 284.97L380.879 280.41H373.124L368.854 284.97C368.247 285.648 367.275 285.759 366.439 285.401L365.545 284.967C364.683 284.598 364.166 283.657 364.271 282.726Z" fill="white"/>
</mask>
<g mask="url(#mask23_514_4436)">
<path d="M364.195 283.671L387.921 269.95L387.848 269.826H387.077L364.195 283.093V283.671Z" fill="white"/>
</g>
<mask id="mask24_514_4436" style="mask-type:luminance" maskUnits="userSpaceOnUse" x="364" y="269" width="26" height="17">
<path d="M364.271 282.726L365.173 274.764L365.174 274.765C365.371 272.025 367.654 269.839 370.445 269.839C372.119 269.839 373.611 269.826 374.58 271.811H379.423C380.391 269.826 381.883 269.839 383.558 269.839C386.348 269.839 388.632 272.013 388.828 274.753L388.83 274.758L389.731 282.723C389.837 283.654 389.319 284.545 388.458 284.913L387.564 285.297C386.728 285.655 385.756 285.648 385.149 284.97L380.879 280.41H373.124L368.854 284.97C368.247 285.648 367.275 285.759 366.439 285.401L365.545 284.967C364.683 284.598 364.166 283.657 364.271 282.726Z" fill="white"/>
</mask>
<g mask="url(#mask24_514_4436)">
<path d="M364.195 284.249L388.171 270.408L387.928 269.975L364.195 283.671V284.249Z" fill="white"/>
</g>
<mask id="mask25_514_4436" style="mask-type:luminance" maskUnits="userSpaceOnUse" x="364" y="269" width="26" height="17">
<path d="M364.271 282.726L365.173 274.764L365.174 274.765C365.371 272.025 367.654 269.839 370.445 269.839C372.119 269.839 373.611 269.826 374.58 271.811H379.423C380.391 269.826 381.883 269.839 383.558 269.839C386.348 269.839 388.632 272.013 388.828 274.753L388.83 274.758L389.731 282.723C389.837 283.654 389.319 284.545 388.458 284.913L387.564 285.297C386.728 285.655 385.756 285.648 385.149 284.97L380.879 280.41H373.124L368.854 284.97C368.247 285.648 367.275 285.759 366.439 285.401L365.545 284.967C364.683 284.598 364.166 283.657 364.271 282.726Z" fill="white"/>
</mask>
<g mask="url(#mask25_514_4436)">
<path d="M364.195 284.457L364.341 284.734L388.414 270.842L388.175 270.408L364.195 284.249V284.457Z" fill="white"/>
</g>
<mask id="mask26_514_4436" style="mask-type:luminance" maskUnits="userSpaceOnUse" x="364" y="266" width="27" height="24">
<path d="M368.268 288.19L365.07 280.842L365.072 280.842C363.873 278.37 364.758 275.336 367.175 273.942C368.626 273.105 369.912 272.348 371.742 273.583L375.938 271.163C375.785 268.96 377.083 268.226 378.534 267.389C380.951 265.995 384.016 266.737 385.555 269.012L385.559 269.016L390.32 275.465C390.876 276.218 390.873 277.248 390.312 277.998L389.729 278.777C389.183 279.505 388.338 279.984 387.474 279.7L381.496 277.884L374.779 281.759L373.359 287.844C373.171 288.734 372.386 289.316 371.482 289.424L370.49 289.494C369.56 289.605 368.642 289.048 368.268 288.19Z" fill="white"/>
</mask>
<g mask="url(#mask26_514_4436)">
<path d="M388.409 270.831L364.328 284.723L364.578 285.156L388.659 271.264L388.409 270.831Z" fill="white"/>
</g>
<mask id="mask27_514_4436" style="mask-type:luminance" maskUnits="userSpaceOnUse" x="364" y="266" width="27" height="24">
<path d="M368.081 288.393L364.883 281.045L364.884 281.045C363.685 278.574 364.571 275.539 366.988 274.145C368.439 273.308 369.724 272.552 371.555 273.786L375.75 271.366C375.597 269.163 376.896 268.429 378.347 267.592C380.764 266.198 383.828 266.94 385.368 269.215L385.371 269.219L390.132 275.668C390.689 276.421 390.686 277.451 390.124 278.201L389.541 278.98C388.996 279.708 388.151 280.187 387.286 279.903L381.308 278.087L374.591 281.962L373.171 288.047C372.984 288.937 372.198 289.519 371.295 289.627L370.303 289.697C369.373 289.808 368.454 289.251 368.081 288.393Z" fill="white"/>
</mask>
<g mask="url(#mask27_514_4436)">
<path d="M388.655 271.285L364.574 285.177L364.824 285.61L388.905 271.719L388.655 271.285Z" fill="white"/>
</g>
<mask id="mask28_514_4436" style="mask-type:luminance" maskUnits="userSpaceOnUse" x="364" y="269" width="26" height="17">
<path d="M364.271 282.726L365.173 274.764L365.174 274.765C365.371 272.025 367.654 269.839 370.445 269.839C372.119 269.839 373.611 269.826 374.58 271.811H379.423C380.391 269.826 381.883 269.839 383.558 269.839C386.348 269.839 388.632 272.013 388.828 274.753L388.83 274.758L389.731 282.723C389.837 283.654 389.319 284.545 388.458 284.913L387.564 285.297C386.728 285.655 385.756 285.648 385.149 284.97L380.879 280.41H373.124L368.854 284.97C368.247 285.648 367.275 285.759 366.439 285.401L365.545 284.967C364.683 284.598 364.166 283.657 364.271 282.726Z" fill="white"/>
</mask>
<g mask="url(#mask28_514_4436)">
<path d="M364.828 285.616L364.869 285.702H365.707L389.159 272.157L388.908 271.724L364.828 285.616Z" fill="white"/>
</g>
<mask id="mask29_514_4436" style="mask-type:luminance" maskUnits="userSpaceOnUse" x="364" y="269" width="26" height="17">
<path d="M364.271 282.726L365.173 274.764L365.174 274.765C365.371 272.025 367.654 269.839 370.445 269.839C372.119 269.839 373.611 269.826 374.58 271.811H379.423C380.391 269.826 381.883 269.839 383.558 269.839C386.348 269.839 388.632 272.013 388.828 274.753L388.83 274.758L389.731 282.723C389.837 283.654 389.319 284.545 388.458 284.913L387.564 285.297C386.728 285.655 385.756 285.648 385.149 284.97L380.879 280.41H373.124L368.854 284.97C368.247 285.648 367.275 285.759 366.439 285.401L365.545 284.967C364.683 284.598 364.166 283.657 364.271 282.726Z" fill="white"/>
</mask>
<g mask="url(#mask29_514_4436)">
<path d="M366.709 285.702L389.409 272.591L389.159 272.165L365.707 285.702H366.709Z" fill="white"/>
</g>
<mask id="mask30_514_4436" style="mask-type:luminance" maskUnits="userSpaceOnUse" x="364" y="269" width="26" height="17">
<path d="M364.271 282.726L365.173 274.764L365.174 274.765C365.371 272.025 367.654 269.839 370.445 269.839C372.119 269.839 373.611 269.826 374.58 271.811H379.423C380.391 269.826 381.883 269.839 383.558 269.839C386.348 269.839 388.632 272.013 388.828 274.753L388.83 274.758L389.731 282.723C389.837 283.654 389.319 284.545 388.458 284.913L387.564 285.297C386.728 285.655 385.756 285.648 385.149 284.97L380.879 280.41H373.124L368.854 284.97C368.247 285.648 367.275 285.759 366.439 285.401L365.545 284.967C364.683 284.598 364.166 283.657 364.271 282.726Z" fill="white"/>
</mask>
<g mask="url(#mask30_514_4436)">
<path d="M367.709 285.702L389.657 273.025L389.407 272.599L366.707 285.702H367.709Z" fill="white"/>
</g>
<mask id="mask31_514_4436" style="mask-type:luminance" maskUnits="userSpaceOnUse" x="364" y="269" width="26" height="17">
<path d="M364.271 282.726L365.173 274.764L365.174 274.765C365.371 272.025 367.654 269.839 370.445 269.839C372.119 269.839 373.611 269.826 374.58 271.811H379.423C380.391 269.826 381.883 269.839 383.558 269.839C386.348 269.839 388.632 272.013 388.828 274.753L388.83 274.758L389.731 282.723C389.837 283.654 389.319 284.545 388.458 284.913L387.564 285.297C386.728 285.655 385.756 285.648 385.149 284.97L380.879 280.41H373.124L368.854 284.97C368.247 285.648 367.275 285.759 366.439 285.401L365.545 284.967C364.683 284.598 364.166 283.657 364.271 282.726Z" fill="white"/>
</mask>
<g mask="url(#mask31_514_4436)">
<path d="M368.709 285.702L389.992 273.485V273.32L389.734 273.024L367.707 285.702H368.709Z" fill="white"/>
</g>
<mask id="mask32_514_4436" style="mask-type:luminance" maskUnits="userSpaceOnUse" x="364" y="269" width="26" height="17">
<path d="M364.271 282.726L365.173 274.764L365.174 274.765C365.371 272.025 367.654 269.839 370.445 269.839C372.119 269.839 373.611 269.826 374.58 271.811H379.423C380.391 269.826 381.883 269.839 383.558 269.839C386.348 269.839 388.632 272.013 388.828 274.753L388.83 274.758L389.731 282.723C389.837 283.654 389.319 284.545 388.458 284.913L387.564 285.297C386.728 285.655 385.756 285.648 385.149 284.97L380.879 280.41H373.124L368.854 284.97C368.247 285.648 367.275 285.759 366.439 285.401L365.545 284.967C364.683 284.598 364.166 283.657 364.271 282.726Z" fill="white"/>
</mask>
<g mask="url(#mask32_514_4436)">
<path d="M369.713 285.701L389.994 274.062V273.484L368.711 285.701H369.713Z" fill="white"/>
</g>
<mask id="mask33_514_4436" style="mask-type:luminance" maskUnits="userSpaceOnUse" x="364" y="269" width="26" height="17">
<path d="M364.271 282.726L365.173 274.764L365.174 274.765C365.371 272.025 367.654 269.839 370.445 269.839C372.119 269.839 373.611 269.826 374.58 271.811H379.423C380.391 269.826 381.883 269.839 383.558 269.839C386.348 269.839 388.632 272.013 388.828 274.753L388.83 274.758L389.731 282.723C389.837 283.654 389.319 284.545 388.458 284.913L387.564 285.297C386.728 285.655 385.756 285.648 385.149 284.97L380.879 280.41H373.124L368.854 284.97C368.247 285.648 367.275 285.759 366.439 285.401L365.545 284.967C364.683 284.598 364.166 283.657 364.271 282.726Z" fill="white"/>
</mask>
<g mask="url(#mask33_514_4436)">
<path d="M370.713 285.701L389.992 274.64V274.062L369.711 285.701H370.713Z" fill="white"/>
</g>
<mask id="mask34_514_4436" style="mask-type:luminance" maskUnits="userSpaceOnUse" x="364" y="269" width="26" height="17">
<path d="M364.271 282.726L365.173 274.764L365.174 274.765C365.371 272.025 367.654 269.839 370.445 269.839C372.119 269.839 373.611 269.826 374.58 271.811H379.423C380.391 269.826 381.883 269.839 383.558 269.839C386.348 269.839 388.632 272.013 388.828 274.753L388.83 274.758L389.731 282.723C389.837 283.654 389.319 284.545 388.458 284.913L387.564 285.297C386.728 285.655 385.756 285.648 385.149 284.97L380.879 280.41H373.124L368.854 284.97C368.247 285.648 367.275 285.759 366.439 285.401L365.545 284.967C364.683 284.598 364.166 283.657 364.271 282.726Z" fill="white"/>
</mask>
<g mask="url(#mask34_514_4436)">
<path d="M371.717 285.702L389.994 275.219V274.641L370.715 285.702H371.717Z" fill="white"/>
</g>
<mask id="mask35_514_4436" style="mask-type:luminance" maskUnits="userSpaceOnUse" x="364" y="269" width="26" height="17">
<path d="M364.271 282.726L365.173 274.764L365.174 274.765C365.371 272.025 367.654 269.839 370.445 269.839C372.119 269.839 373.611 269.826 374.58 271.811H379.423C380.391 269.826 381.883 269.839 383.558 269.839C386.348 269.839 388.632 272.013 388.828 274.753L388.83 274.758L389.731 282.723C389.837 283.654 389.319 284.545 388.458 284.913L387.564 285.297C386.728 285.655 385.756 285.648 385.149 284.97L380.879 280.41H373.124L368.854 284.97C368.247 285.648 367.275 285.759 366.439 285.401L365.545 284.967C364.683 284.598 364.166 283.657 364.271 282.726Z" fill="white"/>
</mask>
<g mask="url(#mask35_514_4436)">
<path d="M372.717 285.702L389.992 275.797V275.219L371.715 285.702H372.717Z" fill="white"/>
</g>
<mask id="mask36_514_4436" style="mask-type:luminance" maskUnits="userSpaceOnUse" x="364" y="269" width="26" height="17">
<path d="M364.271 282.726L365.173 274.764L365.174 274.765C365.371 272.025 367.654 269.839 370.445 269.839C372.119 269.839 373.611 269.826 374.58 271.811H379.423C380.391 269.826 381.883 269.839 383.558 269.839C386.348 269.839 388.632 272.013 388.828 274.753L388.83 274.758L389.731 282.723C389.837 283.654 389.319 284.545 388.458 284.913L387.564 285.297C386.728 285.655 385.756 285.648 385.149 284.97L380.879 280.41H373.124L368.854 284.97C368.247 285.648 367.275 285.759 366.439 285.401L365.545 284.967C364.683 284.598 364.166 283.657 364.271 282.726Z" fill="white"/>
</mask>
<g mask="url(#mask36_514_4436)">
<path d="M373.721 285.702L389.994 276.375V275.797L372.719 285.702H373.721Z" fill="white"/>
</g>
<mask id="mask37_514_4436" style="mask-type:luminance" maskUnits="userSpaceOnUse" x="364" y="269" width="26" height="17">
<path d="M364.271 282.726L365.173 274.764L365.174 274.765C365.371 272.025 367.654 269.839 370.445 269.839C372.119 269.839 373.611 269.826 374.58 271.811H379.423C380.391 269.826 381.883 269.839 383.558 269.839C386.348 269.839 388.632 272.013 388.828 274.753L388.83 274.758L389.731 282.723C389.837 283.654 389.319 284.545 388.458 284.913L387.564 285.297C386.728 285.655 385.756 285.648 385.149 284.97L380.879 280.41H373.124L368.854 284.97C368.247 285.648 367.275 285.759 366.439 285.401L365.545 284.967C364.683 284.598 364.166 283.657 364.271 282.726Z" fill="white"/>
</mask>
<g mask="url(#mask37_514_4436)">
<path d="M374.721 285.702L389.992 276.953V276.375L373.719 285.702H374.721Z" fill="white"/>
</g>
<mask id="mask38_514_4436" style="mask-type:luminance" maskUnits="userSpaceOnUse" x="364" y="269" width="26" height="17">
<path d="M364.271 282.726L365.173 274.764L365.174 274.765C365.371 272.025 367.654 269.839 370.445 269.839C372.119 269.839 373.611 269.826 374.58 271.811H379.423C380.391 269.826 381.883 269.839 383.558 269.839C386.348 269.839 388.632 272.013 388.828 274.753L388.83 274.758L389.731 282.723C389.837 283.654 389.319 284.545 388.458 284.913L387.564 285.297C386.728 285.655 385.756 285.648 385.149 284.97L380.879 280.41H373.124L368.854 284.97C368.247 285.648 367.275 285.759 366.439 285.401L365.545 284.967C364.683 284.598 364.166 283.657 364.271 282.726Z" fill="white"/>
</mask>
<g mask="url(#mask38_514_4436)">
<path d="M375.725 285.701L389.994 277.53V276.952L374.723 285.701H375.725Z" fill="white"/>
</g>
<mask id="mask39_514_4436" style="mask-type:luminance" maskUnits="userSpaceOnUse" x="364" y="269" width="26" height="17">
<path d="M364.271 282.726L365.173 274.764L365.174 274.765C365.371 272.025 367.654 269.839 370.445 269.839C372.119 269.839 373.611 269.826 374.58 271.811H379.423C380.391 269.826 381.883 269.839 383.558 269.839C386.348 269.839 388.632 272.013 388.828 274.753L388.83 274.758L389.731 282.723C389.837 283.654 389.319 284.545 388.458 284.913L387.564 285.297C386.728 285.655 385.756 285.648 385.149 284.97L380.879 280.41H373.124L368.854 284.97C368.247 285.648 367.275 285.759 366.439 285.401L365.545 284.967C364.683 284.598 364.166 283.657 364.271 282.726Z" fill="white"/>
</mask>
<g mask="url(#mask39_514_4436)">
<path d="M376.724 285.701L389.993 278.108V277.53L375.723 285.701H376.724Z" fill="white"/>
</g>
<mask id="mask40_514_4436" style="mask-type:luminance" maskUnits="userSpaceOnUse" x="364" y="269" width="26" height="17">
<path d="M364.271 282.726L365.173 274.764L365.174 274.765C365.371 272.025 367.654 269.839 370.445 269.839C372.119 269.839 373.611 269.826 374.58 271.811H379.423C380.391 269.826 381.883 269.839 383.558 269.839C386.348 269.839 388.632 272.013 388.828 274.753L388.83 274.758L389.731 282.723C389.837 283.654 389.319 284.545 388.458 284.913L387.564 285.297C386.728 285.655 385.756 285.648 385.149 284.97L380.879 280.41H373.124L368.854 284.97C368.247 285.648 367.275 285.759 366.439 285.401L365.545 284.967C364.683 284.598 364.166 283.657 364.271 282.726Z" fill="white"/>
</mask>
<g mask="url(#mask40_514_4436)">
<path d="M377.728 285.702L389.995 278.686V278.108L376.727 285.702H377.728Z" fill="white"/>
</g>
<mask id="mask41_514_4436" style="mask-type:luminance" maskUnits="userSpaceOnUse" x="364" y="269" width="26" height="17">
<path d="M364.271 282.726L365.173 274.764L365.174 274.765C365.371 272.025 367.654 269.839 370.445 269.839C372.119 269.839 373.611 269.826 374.58 271.811H379.423C380.391 269.826 381.883 269.839 383.558 269.839C386.348 269.839 388.632 272.013 388.828 274.753L388.83 274.758L389.731 282.723C389.837 283.654 389.319 284.545 388.458 284.913L387.564 285.297C386.728 285.655 385.756 285.648 385.149 284.97L380.879 280.41H373.124L368.854 284.97C368.247 285.648 367.275 285.759 366.439 285.401L365.545 284.967C364.683 284.598 364.166 283.657 364.271 282.726Z" fill="white"/>
</mask>
<g mask="url(#mask41_514_4436)">
<path d="M378.728 285.702L389.993 279.264V278.687L377.727 285.702H378.728Z" fill="white"/>
</g>
<mask id="mask42_514_4436" style="mask-type:luminance" maskUnits="userSpaceOnUse" x="364" y="269" width="26" height="17">
<path d="M364.271 282.726L365.173 274.764L365.174 274.765C365.371 272.025 367.654 269.839 370.445 269.839C372.119 269.839 373.611 269.826 374.58 271.811H379.423C380.391 269.826 381.883 269.839 383.558 269.839C386.348 269.839 388.632 272.013 388.828 274.753L388.83 274.758L389.731 282.723C389.837 283.654 389.319 284.545 388.458 284.913L387.564 285.297C386.728 285.655 385.756 285.648 385.149 284.97L380.879 280.41H373.124L368.854 284.97C368.247 285.648 367.275 285.759 366.439 285.401L365.545 284.967C364.683 284.598 364.166 283.657 364.271 282.726Z" fill="white"/>
</mask>
<g mask="url(#mask42_514_4436)">
<path d="M379.732 285.702L389.995 279.843V279.265L378.73 285.702H379.732Z" fill="white"/>
</g>
<mask id="mask43_514_4436" style="mask-type:luminance" maskUnits="userSpaceOnUse" x="364" y="269" width="26" height="17">
<path d="M364.271 282.726L365.173 274.764L365.174 274.765C365.371 272.025 367.654 269.839 370.445 269.839C372.119 269.839 373.611 269.826 374.58 271.811H379.423C380.391 269.826 381.883 269.839 383.558 269.839C386.348 269.839 388.632 272.013 388.828 274.753L388.83 274.758L389.731 282.723C389.837 283.654 389.319 284.545 388.458 284.913L387.564 285.297C386.728 285.655 385.756 285.648 385.149 284.97L380.879 280.41H373.124L368.854 284.97C368.247 285.648 367.275 285.759 366.439 285.401L365.545 284.967C364.683 284.598 364.166 283.657 364.271 282.726Z" fill="white"/>
</mask>
<g mask="url(#mask43_514_4436)">
<path d="M380.732 285.702L389.993 280.421V279.843L379.73 285.702H380.732Z" fill="white"/>
</g>
<mask id="mask44_514_4436" style="mask-type:luminance" maskUnits="userSpaceOnUse" x="364" y="269" width="26" height="17">
<path d="M364.271 282.726L365.173 274.764L365.174 274.765C365.371 272.025 367.654 269.839 370.445 269.839C372.119 269.839 373.611 269.826 374.58 271.811H379.423C380.391 269.826 381.883 269.839 383.558 269.839C386.348 269.839 388.632 272.013 388.828 274.753L388.83 274.758L389.731 282.723C389.837 283.654 389.319 284.545 388.458 284.913L387.564 285.297C386.728 285.655 385.756 285.648 385.149 284.97L380.879 280.41H373.124L368.854 284.97C368.247 285.648 367.275 285.759 366.439 285.401L365.545 284.967C364.683 284.598 364.166 283.657 364.271 282.726Z" fill="white"/>
</mask>
<g mask="url(#mask44_514_4436)">
<path d="M381.736 285.702L389.995 280.999V280.421L380.734 285.702H381.736Z" fill="white"/>
</g>
<mask id="mask45_514_4436" style="mask-type:luminance" maskUnits="userSpaceOnUse" x="364" y="269" width="26" height="17">
<path d="M364.271 282.726L365.173 274.764L365.174 274.765C365.371 272.025 367.654 269.839 370.445 269.839C372.119 269.839 373.611 269.826 374.58 271.811H379.423C380.391 269.826 381.883 269.839 383.558 269.839C386.348 269.839 388.632 272.013 388.828 274.753L388.83 274.758L389.731 282.723C389.837 283.654 389.319 284.545 388.458 284.913L387.564 285.297C386.728 285.655 385.756 285.648 385.149 284.97L380.879 280.41H373.124L368.854 284.97C368.247 285.648 367.275 285.759 366.439 285.401L365.545 284.967C364.683 284.598 364.166 283.657 364.271 282.726Z" fill="white"/>
</mask>
<g mask="url(#mask45_514_4436)">
<path d="M382.736 285.701L389.993 281.576V280.998L381.734 285.701H382.736Z" fill="white"/>
</g>
<mask id="mask46_514_4436" style="mask-type:luminance" maskUnits="userSpaceOnUse" x="364" y="269" width="26" height="17">
<path d="M364.271 282.726L365.173 274.764L365.174 274.765C365.371 272.025 367.654 269.839 370.445 269.839C372.119 269.839 373.611 269.826 374.58 271.811H379.423C380.391 269.826 381.883 269.839 383.558 269.839C386.348 269.839 388.632 272.013 388.828 274.753L388.83 274.758L389.731 282.723C389.837 283.654 389.319 284.545 388.458 284.913L387.564 285.297C386.728 285.655 385.756 285.648 385.149 284.97L380.879 280.41H373.124L368.854 284.97C368.247 285.648 367.275 285.759 366.439 285.401L365.545 284.967C364.683 284.598 364.166 283.657 364.271 282.726Z" fill="white"/>
</mask>
<g mask="url(#mask46_514_4436)">
<path d="M383.736 285.701L389.992 282.154V281.576L382.734 285.701H383.736Z" fill="white"/>
</g>
<mask id="mask47_514_4436" style="mask-type:luminance" maskUnits="userSpaceOnUse" x="364" y="269" width="26" height="17">
<path d="M364.271 282.726L365.173 274.764L365.174 274.765C365.371 272.025 367.654 269.839 370.445 269.839C372.119 269.839 373.611 269.826 374.58 271.811H379.423C380.391 269.826 381.883 269.839 383.558 269.839C386.348 269.839 388.632 272.013 388.828 274.753L388.83 274.758L389.731 282.723C389.837 283.654 389.319 284.545 388.458 284.913L387.564 285.297C386.728 285.655 385.756 285.648 385.149 284.97L380.879 280.41H373.124L368.854 284.97C368.247 285.648 367.275 285.759 366.439 285.401L365.545 284.967C364.683 284.598 364.166 283.657 364.271 282.726Z" fill="white"/>
</mask>
<g mask="url(#mask47_514_4436)">
<path d="M384.74 285.702L389.994 282.732V282.154L383.738 285.702H384.74Z" fill="white"/>
</g>
<mask id="mask48_514_4436" style="mask-type:luminance" maskUnits="userSpaceOnUse" x="364" y="269" width="26" height="17">
<path d="M364.271 282.726L365.173 274.764L365.174 274.765C365.371 272.025 367.654 269.839 370.445 269.839C372.119 269.839 373.611 269.826 374.58 271.811H379.423C380.391 269.826 381.883 269.839 383.558 269.839C386.348 269.839 388.632 272.013 388.828 274.753L388.83 274.758L389.731 282.723C389.837 283.654 389.319 284.545 388.458 284.913L387.564 285.297C386.728 285.655 385.756 285.648 385.149 284.97L380.879 280.41H373.124L368.854 284.97C368.247 285.648 367.275 285.759 366.439 285.401L365.545 284.967C364.683 284.598 364.166 283.657 364.271 282.726Z" fill="white"/>
</mask>
<g mask="url(#mask48_514_4436)">
<path d="M385.74 285.702L389.992 283.31V282.732L384.738 285.702H385.74Z" fill="white"/>
</g>
<mask id="mask49_514_4436" style="mask-type:luminance" maskUnits="userSpaceOnUse" x="364" y="269" width="26" height="17">
<path d="M364.271 282.726L365.173 274.764L365.174 274.765C365.371 272.025 367.654 269.839 370.445 269.839C372.119 269.839 373.611 269.826 374.58 271.811H379.423C380.391 269.826 381.883 269.839 383.558 269.839C386.348 269.839 388.632 272.013 388.828 274.753L388.83 274.758L389.731 282.723C389.837 283.654 389.319 284.545 388.458 284.913L387.564 285.297C386.728 285.655 385.756 285.648 385.149 284.97L380.879 280.41H373.124L368.854 284.97C368.247 285.648 367.275 285.759 366.439 285.401L365.545 284.967C364.683 284.598 364.166 283.657 364.271 282.726Z" fill="white"/>
</mask>
<g mask="url(#mask49_514_4436)">
<path d="M386.744 285.702L389.994 283.888V283.311L385.742 285.702H386.744Z" fill="white"/>
</g>
<mask id="mask50_514_4436" style="mask-type:luminance" maskUnits="userSpaceOnUse" x="364" y="269" width="26" height="17">
<path d="M364.271 282.726L365.173 274.764L365.174 274.765C365.371 272.025 367.654 269.839 370.445 269.839C372.119 269.839 373.611 269.826 374.58 271.811H379.423C380.391 269.826 381.883 269.839 383.558 269.839C386.348 269.839 388.632 272.013 388.828 274.753L388.83 274.758L389.731 282.723C389.837 283.654 389.319 284.545 388.458 284.913L387.564 285.297C386.728 285.655 385.756 285.648 385.149 284.97L380.879 280.41H373.124L368.854 284.97C368.247 285.648 367.275 285.759 366.439 285.401L365.545 284.967C364.683 284.598 364.166 283.657 364.271 282.726Z" fill="white"/>
</mask>
<g mask="url(#mask50_514_4436)">
<path d="M387.744 285.702L389.992 284.467V283.889L386.742 285.702H387.744Z" fill="white"/>
</g>
<mask id="mask51_514_4436" style="mask-type:luminance" maskUnits="userSpaceOnUse" x="364" y="269" width="26" height="17">
<path d="M364.271 282.726L365.173 274.764L365.174 274.765C365.371 272.025 367.654 269.839 370.445 269.839C372.119 269.839 373.611 269.826 374.58 271.811H379.423C380.391 269.826 381.883 269.839 383.558 269.839C386.348 269.839 388.632 272.013 388.828 274.753L388.83 274.758L389.731 282.723C389.837 283.654 389.319 284.545 388.458 284.913L387.564 285.297C386.728 285.655 385.756 285.648 385.149 284.97L380.879 280.41H373.124L368.854 284.97C368.247 285.648 367.275 285.759 366.439 285.401L365.545 284.967C364.683 284.598 364.166 283.657 364.271 282.726Z" fill="white"/>
</mask>
<g mask="url(#mask51_514_4436)">
<path d="M388.748 285.701L389.994 285.044V284.466L387.746 285.701H388.748Z" fill="white"/>
</g>
<mask id="mask52_514_4436" style="mask-type:luminance" maskUnits="userSpaceOnUse" x="364" y="269" width="26" height="17">
<path d="M364.271 282.726L365.173 274.764L365.174 274.765C365.371 272.025 367.654 269.839 370.445 269.839C372.119 269.839 373.611 269.826 374.58 271.811H379.423C380.391 269.826 381.883 269.839 383.558 269.839C386.348 269.839 388.632 272.013 388.828 274.753L388.83 274.758L389.731 282.723C389.837 283.654 389.319 284.545 388.458 284.913L387.564 285.297C386.728 285.655 385.756 285.648 385.149 284.97L380.879 280.41H373.124L368.854 284.97C368.247 285.648 367.275 285.759 366.439 285.401L365.545 284.967C364.683 284.598 364.166 283.657 364.271 282.726Z" fill="white"/>
</mask>
<g mask="url(#mask52_514_4436)">
<path d="M389.748 285.459L389.901 285.622V285.044L388.746 285.459H389.748Z" fill="white"/>
</g>
<mask id="mask53_514_4436" style="mask-type:luminance" maskUnits="userSpaceOnUse" x="364" y="269" width="26" height="17">
<path d="M364.271 282.726L365.173 274.764L365.174 274.765C365.371 272.025 367.654 269.839 370.445 269.839C372.119 269.839 373.611 269.826 374.58 271.811H379.423C380.391 269.826 381.883 269.839 383.558 269.839C386.348 269.839 388.632 272.013 388.828 274.753L388.83 274.758L389.731 282.723C389.837 283.654 389.319 284.545 388.458 284.913L387.564 285.297C386.728 285.655 385.756 285.648 385.149 284.97L380.879 280.41H373.124L368.854 284.97C368.247 285.648 367.275 285.759 366.439 285.401L365.545 284.967C364.683 284.598 364.166 283.657 364.271 282.726Z" fill="white"/>
</mask>
<g mask="url(#mask53_514_4436)">
</g>
<path d="M359.258 277.668C359.258 267.885 367.217 259.927 376.999 259.927C386.782 259.927 394.74 267.885 394.74 277.668C394.74 287.45 386.781 295.409 376.999 295.409C367.217 295.409 359.258 287.45 359.258 277.668ZM361.253 277.668C361.253 286.351 368.317 293.414 376.999 293.414C385.682 293.414 392.745 286.351 392.745 277.668C392.745 268.986 385.682 261.922 376.999 261.922C368.317 261.922 361.253 268.986 361.253 277.668Z" fill="white"/>
</g>
<path d="M422.402 142.457L518.452 141.726L519.27 122.124L423.403 118.476L422.402 142.457Z" fill="url(#paint59_linear_514_4436)"/>
<path d="M515.699 138.138L516.221 125.623L427.501 122.989L426.871 138.073L515.699 138.138Z" fill="#91B3FA"/>
<path d="M398.309 142.627L444.478 142.277L430.648 108.331L399.815 106.537L398.309 142.627Z" fill="url(#paint60_linear_514_4436)"/>
<path d="M438.306 138.069L427.799 112.528L404.297 111.357L403.184 138.043L438.306 138.069Z" fill="#91B3FA"/>
<path d="M508.242 136.204L513.624 136.232L513.99 127.464L508.613 127.328L508.242 136.204Z" fill="white"/>
<path d="M500.73 136.165L506.296 136.194L506.668 127.278L501.107 127.138L500.73 136.165Z" fill="white"/>
<path d="M492.961 136.126L498.72 136.155L499.098 127.087L493.344 126.941L492.961 136.126Z" fill="white"/>
<path d="M484.918 136.085L490.881 136.115L491.266 126.889L485.308 126.738L484.918 136.085Z" fill="white"/>
<path d="M476.586 136.042L482.764 136.073L483.156 126.683L476.983 126.527L476.586 136.042Z" fill="url(#paint61_linear_514_4436)"/>
<path d="M467.945 135.998L474.35 136.031L474.749 126.472L468.35 126.31L467.945 135.998Z" fill="url(#paint62_linear_514_4436)"/>
<path d="M458.984 135.952L465.629 135.986L466.035 126.251L459.396 126.083L458.984 135.952Z" fill="url(#paint63_linear_514_4436)"/>
<path d="M449.684 135.904L456.581 135.94L456.995 126.022L450.103 125.848L449.684 135.904Z" fill="url(#paint64_linear_514_4436)"/>
<path d="M302.259 126.777C340.546 126.777 371.584 110 371.584 89.304C371.584 68.6083 340.546 51.8311 302.259 51.8311C263.972 51.8311 232.934 68.6083 232.934 89.304C232.934 110 263.972 126.777 302.259 126.777Z" fill="#91B3FA"/>
<path d="M247.126 111.405L228.418 129.012L267.484 119.659L247.126 111.405Z" fill="#91B3FA"/>
<path opacity="0.57" d="M332.605 108.266H262.484C262.009 108.266 261.625 107.881 261.625 107.407V103.314C261.625 102.84 262.009 102.455 262.484 102.455H332.605C333.079 102.455 333.463 102.84 333.463 103.314V107.407C333.463 107.881 333.079 108.266 332.605 108.266Z" fill="white"/>
<path opacity="0.57" d="M331.55 80.7978H261.429C260.955 80.7978 260.57 80.4135 260.57 79.9392V75.8459C260.57 75.3716 260.955 74.9873 261.429 74.9873H331.55C332.024 74.9873 332.409 75.3716 332.409 75.8459V79.9392C332.409 80.4133 332.024 80.7978 331.55 80.7978Z" fill="white"/>
<path opacity="0.57" d="M303.587 95.1584H259.809C259.353 95.1584 258.984 94.7892 258.984 94.334V90.4035C258.984 89.9481 259.354 89.5791 259.809 89.5791H303.587C304.043 89.5791 304.412 89.9483 304.412 90.4035V94.334C304.412 94.7892 304.043 95.1584 303.587 95.1584Z" fill="white"/>
<path opacity="0.57" d="M354.825 94.7297H311.047C310.592 94.7297 310.223 94.3605 310.223 93.9053V89.9748C310.223 89.5194 310.592 89.1504 311.047 89.1504H354.825C355.281 89.1504 355.65 89.5196 355.65 89.9748V93.9053C355.65 94.3607 355.281 94.7297 354.825 94.7297Z" fill="white"/>
<path d="M477.331 342.29C478.728 357.717 484.355 452.41 414.395 472.272C412.277 472.873 409.726 471.495 409.688 469.731C409.448 458.507 411.491 423.243 442.54 385.757C464.942 358.711 473.349 346.274 476.028 341.991C476.311 341.538 477.283 341.761 477.331 342.29Z" fill="#91B3FA"/>
<path d="M409.686 471.128C409.347 471.128 409.008 471.006 408.739 470.758C408.172 470.235 408.136 469.351 408.659 468.784C445.566 428.759 464.332 376.93 464.909 373.574C464.888 372.97 465.264 372.398 465.867 372.199C466.599 371.955 467.391 372.353 467.633 373.086C468.203 374.808 461.726 391.259 453.633 407.294C445.068 424.265 430.669 449.037 410.714 470.678C410.438 470.976 410.063 471.128 409.686 471.128ZM464.979 373.96C464.979 373.96 464.979 373.963 464.98 373.964C464.979 373.963 464.979 373.962 464.979 373.96Z" fill="url(#paint65_linear_514_4436)"/>
<path d="M499.084 433.38C493.578 442.333 458.18 496.095 412.083 478.48C410.687 477.946 409.86 476.161 410.556 475.187C414.984 468.988 430.416 450.648 462.518 442.88C485.681 437.275 495.301 433.928 498.497 432.688C498.835 432.557 499.273 433.073 499.084 433.38Z" fill="#7D97F4"/>
<path d="M410.556 476.584C409.896 476.584 409.31 476.114 409.184 475.442C409.043 474.684 409.543 473.954 410.302 473.813C445.958 467.167 477.247 446.878 479.293 445.04C479.645 444.574 480.265 444.364 480.851 444.557C481.583 444.801 481.978 445.592 481.734 446.324C481.211 447.89 469.419 454.81 460.005 459.495C448.431 465.254 430.502 472.891 410.814 476.56C410.727 476.576 410.641 476.584 410.556 476.584ZM479.084 445.437C479.084 445.437 479.083 445.439 479.083 445.44C479.083 445.439 479.084 445.438 479.084 445.437Z" fill="url(#paint66_linear_514_4436)"/>
<defs>
<linearGradient id="paint0_linear_514_4436" x1="218.664" y1="444.494" x2="81.382" y2="593.818" gradientUnits="userSpaceOnUse">
<stop stop-color="#09005D"/>
<stop offset="1" stop-color="#1A0F91"/>
</linearGradient>
<linearGradient id="paint1_linear_514_4436" x1="174.106" y1="455.585" x2="186.299" y2="455.585" gradientUnits="userSpaceOnUse">
<stop stop-color="#FEBBBA"/>
<stop offset="1" stop-color="#FF928E"/>
</linearGradient>
<linearGradient id="paint2_linear_514_4436" x1="229.471" y1="275.625" x2="112.658" y2="433.951" gradientUnits="userSpaceOnUse">
<stop stop-color="#09005D"/>
<stop offset="1" stop-color="#1A0F91"/>
</linearGradient>
<linearGradient id="paint3_linear_514_4436" x1="187.866" y1="416.181" x2="50.5842" y2="565.506" gradientUnits="userSpaceOnUse">
<stop stop-color="#09005D"/>
<stop offset="1" stop-color="#1A0F91"/>
</linearGradient>
<linearGradient id="paint4_linear_514_4436" x1="130.156" y1="454.96" x2="140.685" y2="454.96" gradientUnits="userSpaceOnUse">
<stop stop-color="#FEBBBA"/>
<stop offset="1" stop-color="#FF928E"/>
</linearGradient>
<linearGradient id="paint5_linear_514_4436" x1="208.654" y1="260.265" x2="91.8404" y2="418.591" gradientUnits="userSpaceOnUse">
<stop stop-color="#09005D"/>
<stop offset="1" stop-color="#1A0F91"/>
</linearGradient>
<linearGradient id="paint6_linear_514_4436" x1="216.189" y1="152.036" x2="142.98" y2="300.51" gradientUnits="userSpaceOnUse">
<stop stop-color="#FDF53F"/>
<stop offset="1" stop-color="#D93C65"/>
</linearGradient>
<linearGradient id="paint7_linear_514_4436" x1="233.406" y1="151.358" x2="206.505" y2="218.123" gradientUnits="userSpaceOnUse">
<stop stop-color="#FDF53F"/>
<stop offset="1" stop-color="#D93C65"/>
</linearGradient>
<linearGradient id="paint8_linear_514_4436" x1="324.125" y1="113.934" x2="146.147" y2="341.642" gradientUnits="userSpaceOnUse">
<stop stop-color="#FEBBBA"/>
<stop offset="1" stop-color="#FF928E"/>
</linearGradient>
<linearGradient id="paint9_linear_514_4436" x1="355.067" y1="174.215" x2="193.751" y2="297.621" gradientUnits="userSpaceOnUse">
<stop stop-color="#FEBBBA"/>
<stop offset="1" stop-color="#FF928E"/>
</linearGradient>
<linearGradient id="paint10_linear_514_4436" x1="185.48" y1="151.008" x2="185.821" y2="151.008" gradientUnits="userSpaceOnUse">
<stop stop-color="#09005D"/>
<stop offset="1" stop-color="#1A0F91"/>
</linearGradient>
<linearGradient id="paint11_linear_514_4436" x1="191.271" y1="150.777" x2="191.23" y2="150.841" gradientUnits="userSpaceOnUse">
<stop stop-color="#53EAC9"/>
<stop offset="0.9964" stop-color="#45AED8"/>
</linearGradient>
<linearGradient id="paint12_linear_514_4436" x1="141.673" y1="159.533" x2="117.212" y2="225.817" gradientUnits="userSpaceOnUse">
<stop stop-color="#FDF53F"/>
<stop offset="1" stop-color="#D93C65"/>
</linearGradient>
<linearGradient id="paint13_linear_514_4436" x1="117.002" y1="165.449" x2="131.847" y2="157.591" gradientUnits="userSpaceOnUse">
<stop stop-color="#FEBBBA"/>
<stop offset="1" stop-color="#FF928E"/>
</linearGradient>
<linearGradient id="paint14_linear_514_4436" x1="174.618" y1="198.862" x2="231.374" y2="158.016" gradientUnits="userSpaceOnUse">
<stop stop-color="#9CFFFB"/>
<stop offset="1" stop-color="#9BFFFA"/>
</linearGradient>
<linearGradient id="paint15_linear_514_4436" x1="88" y1="224.787" x2="166.838" y2="224.787" gradientUnits="userSpaceOnUse">
<stop stop-color="#FEBBBA"/>
<stop offset="1" stop-color="#FF928E"/>
</linearGradient>
<linearGradient id="paint16_linear_514_4436" x1="318.872" y1="120.293" x2="272.126" y2="153.569" gradientUnits="userSpaceOnUse">
<stop stop-color="#FF928E"/>
<stop offset="1" stop-color="#FE7062"/>
</linearGradient>
<linearGradient id="paint17_linear_514_4436" x1="217.83" y1="140.264" x2="208.597" y2="180.806" gradientUnits="userSpaceOnUse">
<stop stop-color="#09005D"/>
<stop offset="1" stop-color="#1A0F91"/>
</linearGradient>
<linearGradient id="paint18_linear_514_4436" x1="314.416" y1="35.0256" x2="266.876" y2="99.4689" gradientUnits="userSpaceOnUse">
<stop stop-color="#09005D"/>
<stop offset="1" stop-color="#1A0F91"/>
</linearGradient>
<linearGradient id="paint19_linear_514_4436" x1="160.984" y1="216.52" x2="185.546" y2="216.52" gradientUnits="userSpaceOnUse">
<stop stop-color="#FEBBBA"/>
<stop offset="1" stop-color="#FF928E"/>
</linearGradient>
<linearGradient id="paint20_linear_514_4436" x1="2636.75" y1="-2146.92" x2="2676.11" y2="-2183.04" gradientUnits="userSpaceOnUse">
<stop stop-color="#FEBBBA"/>
<stop offset="1" stop-color="#FF928E"/>
</linearGradient>
<linearGradient id="paint21_linear_514_4436" x1="145.776" y1="107.528" x2="192.589" y2="81.7182" gradientUnits="userSpaceOnUse">
<stop stop-color="#09005D"/>
<stop offset="1" stop-color="#1A0F91"/>
</linearGradient>
<linearGradient id="paint22_linear_514_4436" x1="2631.51" y1="-2152.61" x2="2670.86" y2="-2188.73" gradientUnits="userSpaceOnUse">
<stop stop-color="#FEBBBA"/>
<stop offset="1" stop-color="#FF928E"/>
</linearGradient>
<linearGradient id="paint23_linear_514_4436" x1="159.974" y1="138.807" x2="175.154" y2="119.223" gradientUnits="userSpaceOnUse">
<stop stop-color="#4F52FF"/>
<stop offset="1" stop-color="#4042E2"/>
</linearGradient>
<linearGradient id="paint24_linear_514_4436" x1="183.081" y1="134.922" x2="167.102" y2="110.103" gradientUnits="userSpaceOnUse">
<stop stop-color="#4F52FF"/>
<stop offset="1" stop-color="#4042E2"/>
</linearGradient>
<linearGradient id="paint25_linear_514_4436" x1="205.291" y1="74.801" x2="77.6868" y2="133.483" gradientUnits="userSpaceOnUse">
<stop stop-color="#4F52FF"/>
<stop offset="1" stop-color="#4042E2"/>
</linearGradient>
<linearGradient id="paint26_linear_514_4436" x1="232.887" y1="83.486" x2="204.715" y2="96.1634" gradientUnits="userSpaceOnUse">
<stop stop-color="#4F52FF"/>
<stop offset="1" stop-color="#4042E2"/>
</linearGradient>
<linearGradient id="paint27_linear_514_4436" x1="167.172" y1="96.158" x2="189.005" y2="56.3651" gradientUnits="userSpaceOnUse">
<stop stop-color="#4F52FF"/>
<stop offset="1" stop-color="#4042E2"/>
</linearGradient>
<linearGradient id="paint28_linear_514_4436" x1="551.11" y1="174.594" x2="395.82" y2="332.26" gradientUnits="userSpaceOnUse">
<stop stop-color="#09005D"/>
<stop offset="1" stop-color="#1A0F91"/>
</linearGradient>
<linearGradient id="paint29_linear_514_4436" x1="556.954" y1="100.206" x2="511.001" y2="164.383" gradientUnits="userSpaceOnUse">
<stop stop-color="#09005D"/>
<stop offset="1" stop-color="#1A0F91"/>
</linearGradient>
<linearGradient id="paint30_linear_514_4436" x1="412.444" y1="220.749" x2="490.298" y2="151.884" gradientUnits="userSpaceOnUse">
<stop stop-color="#09005D"/>
<stop offset="1" stop-color="#1A0F91"/>
</linearGradient>
<linearGradient id="paint31_linear_514_4436" x1="-138.594" y1="-1368.54" x2="-187.716" y2="-1497.68" gradientUnits="userSpaceOnUse">
<stop stop-color="#09005D"/>
<stop offset="1" stop-color="#1A0F91"/>
</linearGradient>
<linearGradient id="paint32_linear_514_4436" x1="-159.633" y1="-1360.54" x2="-208.756" y2="-1489.68" gradientUnits="userSpaceOnUse">
<stop stop-color="#09005D"/>
<stop offset="1" stop-color="#1A0F91"/>
</linearGradient>
<linearGradient id="paint33_linear_514_4436" x1="390.618" y1="298.17" x2="73.2993" y2="292.882" gradientUnits="userSpaceOnUse">
<stop stop-color="#FEBBBA"/>
<stop offset="1" stop-color="#FF928E"/>
</linearGradient>
<linearGradient id="paint34_linear_514_4436" x1="479.671" y1="148.493" x2="451.149" y2="192.07" gradientUnits="userSpaceOnUse">
<stop stop-color="#E1473D"/>
<stop offset="1" stop-color="#E9605A"/>
</linearGradient>
<linearGradient id="paint35_linear_514_4436" x1="396.885" y1="110.621" x2="389.754" y2="183.512" gradientUnits="userSpaceOnUse">
<stop stop-color="#FEBBBA"/>
<stop offset="1" stop-color="#FF928E"/>
</linearGradient>
<linearGradient id="paint36_linear_514_4436" x1="361.067" y1="191.552" x2="419.032" y2="209.471" gradientUnits="userSpaceOnUse">
<stop stop-color="#FEBBBA"/>
<stop offset="1" stop-color="#FF928E"/>
</linearGradient>
<linearGradient id="paint37_linear_514_4436" x1="382.791" y1="152.427" x2="360.679" y2="222.163" gradientUnits="userSpaceOnUse">
<stop stop-color="#09005D"/>
<stop offset="1" stop-color="#1A0F91"/>
</linearGradient>
<linearGradient id="paint38_linear_514_4436" x1="363.969" y1="182.155" x2="421.934" y2="200.073" gradientUnits="userSpaceOnUse">
<stop stop-color="#FEBBBA"/>
<stop offset="1" stop-color="#FF928E"/>
</linearGradient>
<linearGradient id="paint39_linear_514_4436" x1="394.815" y1="211.035" x2="374.306" y2="197.131" gradientUnits="userSpaceOnUse">
<stop stop-color="#4F52FF"/>
<stop offset="1" stop-color="#4042E2"/>
</linearGradient>
<linearGradient id="paint40_linear_514_4436" x1="370.198" y1="213.431" x2="386.178" y2="188.612" gradientUnits="userSpaceOnUse">
<stop stop-color="#4F52FF"/>
<stop offset="1" stop-color="#4042E2"/>
</linearGradient>
<linearGradient id="paint41_linear_514_4436" x1="329.427" y1="159.57" x2="474.575" y2="183.551" gradientUnits="userSpaceOnUse">
<stop stop-color="#4F52FF"/>
<stop offset="1" stop-color="#4042E2"/>
</linearGradient>
<linearGradient id="paint42_linear_514_4436" x1="462.798" y1="137.799" x2="440.612" y2="153.645" gradientUnits="userSpaceOnUse">
<stop stop-color="#4F52FF"/>
<stop offset="1" stop-color="#4042E2"/>
</linearGradient>
<linearGradient id="paint43_linear_514_4436" x1="401.15" y1="175.841" x2="438.83" y2="124.427" gradientUnits="userSpaceOnUse">
<stop stop-color="#4F52FF"/>
<stop offset="1" stop-color="#4042E2"/>
</linearGradient>
<linearGradient id="paint44_linear_514_4436" x1="413.274" y1="307.113" x2="445.95" y2="235.736" gradientUnits="userSpaceOnUse">
<stop stop-color="#FF928E"/>
<stop offset="1" stop-color="#FE7062"/>
</linearGradient>
<linearGradient id="paint45_linear_514_4436" x1="207.553" y1="323.463" x2="721.929" y2="329.252" gradientUnits="userSpaceOnUse">
<stop stop-color="#4F52FF"/>
<stop offset="1" stop-color="#4042E2"/>
</linearGradient>
<linearGradient id="paint46_linear_514_4436" x1="391.766" y1="297.266" x2="424.442" y2="225.889" gradientUnits="userSpaceOnUse">
<stop stop-color="#FF928E"/>
<stop offset="1" stop-color="#FE7062"/>
</linearGradient>
<linearGradient id="paint47_linear_514_4436" x1="425.174" y1="355.821" x2="212.745" y2="604.92" gradientUnits="userSpaceOnUse">
<stop stop-color="#53D8FF"/>
<stop offset="1" stop-color="#3840F7"/>
</linearGradient>
<linearGradient id="paint48_linear_514_4436" x1="485.632" y1="355.821" x2="333.044" y2="419.301" gradientUnits="userSpaceOnUse">
<stop stop-color="#53D8FF"/>
<stop offset="1" stop-color="#3840F7"/>
</linearGradient>
<linearGradient id="paint49_linear_514_4436" x1="428.471" y1="324.569" x2="586.594" y2="326.349" gradientUnits="userSpaceOnUse">
<stop stop-color="#4F52FF"/>
<stop offset="1" stop-color="#4042E2"/>
</linearGradient>
<linearGradient id="paint50_linear_514_4436" x1="339.886" y1="344.708" x2="269.538" y2="310.003" gradientUnits="userSpaceOnUse">
<stop stop-color="#09005D"/>
<stop offset="1" stop-color="#1A0F91"/>
</linearGradient>
<linearGradient id="paint51_linear_514_4436" x1="288.099" y1="240.347" x2="352.542" y2="151.605" gradientUnits="userSpaceOnUse">
<stop stop-color="#09005D"/>
<stop offset="1" stop-color="#1A0F91"/>
</linearGradient>
<linearGradient id="paint52_linear_514_4436" x1="314.512" y1="337.356" x2="316.198" y2="226.078" gradientUnits="userSpaceOnUse">
<stop stop-color="#09005D"/>
<stop offset="1" stop-color="#1A0F91"/>
</linearGradient>
<linearGradient id="paint53_linear_514_4436" x1="246.523" y1="318.762" x2="327.818" y2="319.677" gradientUnits="userSpaceOnUse">
<stop stop-color="#09005D"/>
<stop offset="1" stop-color="#1A0F91"/>
</linearGradient>
<linearGradient id="paint54_linear_514_4436" x1="276.744" y1="158.672" x2="270.934" y2="228.926" gradientUnits="userSpaceOnUse">
<stop stop-color="#09005D"/>
<stop offset="1" stop-color="#1A0F91"/>
</linearGradient>
<linearGradient id="paint55_linear_514_4436" x1="196.417" y1="293.398" x2="334.284" y2="279.136" gradientUnits="userSpaceOnUse">
<stop stop-color="#09005D"/>
<stop offset="1" stop-color="#1A0F91"/>
</linearGradient>
<linearGradient id="paint56_linear_514_4436" x1="267.086" y1="368.321" x2="264.445" y2="311.801" gradientUnits="userSpaceOnUse">
<stop stop-color="#09005D"/>
<stop offset="1" stop-color="#1A0F91"/>
</linearGradient>
<linearGradient id="paint57_linear_514_4436" x1="354.071" y1="316.511" x2="330.02" y2="316.511" gradientUnits="userSpaceOnUse">
<stop stop-color="#09005D"/>
<stop offset="1" stop-color="#1A0F91"/>
</linearGradient>
<linearGradient id="paint58_linear_514_4436" x1="489.511" y1="257.671" x2="457.82" y2="272.725" gradientUnits="userSpaceOnUse">
<stop stop-color="#FEBBBA"/>
<stop offset="1" stop-color="#FF928E"/>
</linearGradient>
<linearGradient id="paint59_linear_514_4436" x1="422.402" y1="130.466" x2="519.27" y2="130.466" gradientUnits="userSpaceOnUse">
<stop stop-color="#4F52FF"/>
<stop offset="1" stop-color="#4042E2"/>
</linearGradient>
<linearGradient id="paint60_linear_514_4436" x1="398.309" y1="124.582" x2="444.478" y2="124.582" gradientUnits="userSpaceOnUse">
<stop stop-color="#4F52FF"/>
<stop offset="1" stop-color="#4042E2"/>
</linearGradient>
<linearGradient id="paint61_linear_514_4436" x1="476.586" y1="131.3" x2="483.156" y2="131.3" gradientUnits="userSpaceOnUse">
<stop stop-color="#4F52FF"/>
<stop offset="1" stop-color="#4042E2"/>
</linearGradient>
<linearGradient id="paint62_linear_514_4436" x1="467.945" y1="131.17" x2="474.749" y2="131.17" gradientUnits="userSpaceOnUse">
<stop stop-color="#4F52FF"/>
<stop offset="1" stop-color="#4042E2"/>
</linearGradient>
<linearGradient id="paint63_linear_514_4436" x1="458.984" y1="131.035" x2="466.035" y2="131.035" gradientUnits="userSpaceOnUse">
<stop stop-color="#4F52FF"/>
<stop offset="1" stop-color="#4042E2"/>
</linearGradient>
<linearGradient id="paint64_linear_514_4436" x1="449.684" y1="130.894" x2="456.995" y2="130.894" gradientUnits="userSpaceOnUse">
<stop stop-color="#4F52FF"/>
<stop offset="1" stop-color="#4042E2"/>
</linearGradient>
<linearGradient id="paint65_linear_514_4436" x1="408.289" y1="421.627" x2="467.668" y2="421.627" gradientUnits="userSpaceOnUse">
<stop stop-color="#DAE3FE"/>
<stop offset="1" stop-color="#E9EFFD"/>
</linearGradient>
<linearGradient id="paint66_linear_514_4436" x1="409.16" y1="460.535" x2="481.806" y2="460.535" gradientUnits="userSpaceOnUse">
<stop stop-color="#DAE3FE"/>
<stop offset="1" stop-color="#E9EFFD"/>
</linearGradient>
</defs>
</svg>
