<svg width="16" height="16" viewBox="0 0 16 16" fill="none" xmlns="http://www.w3.org/2000/svg">
<g clip-path="url(#clip0_475_1573)">
<mask id="path-1-inside-1_475_1573" fill="white">
<path d="M9.07934 15.9688H6.51207C6.08325 15.9688 5.73442 15.6206 5.73442 15.1926V9.41333H4.23663C3.80781 9.41333 3.45898 9.06506 3.45898 8.63721V6.16077C3.45898 5.73279 3.80781 5.38464 4.23663 5.38464H5.73442V4.14453C5.73442 2.91492 6.12129 1.86877 6.85306 1.11938C7.58814 0.366577 8.61542 -0.03125 9.82383 -0.03125L11.7818 -0.0280762C12.2098 -0.0273437 12.5581 0.320801 12.5581 0.748047V3.04736C12.5581 3.47534 12.2094 3.82349 11.7807 3.82349L10.4624 3.82398C10.0604 3.82398 9.95801 3.90442 9.93611 3.92908C9.90003 3.96997 9.8571 4.08557 9.8571 4.40479V5.38452H11.6816C11.8189 5.38452 11.952 5.41834 12.0664 5.48206C12.3131 5.61963 12.4664 5.87976 12.4664 6.16089L12.4655 8.63733C12.4655 9.06506 12.1166 9.41321 11.6878 9.41321H9.8571V15.1926C9.8571 15.6206 9.50815 15.9688 9.07934 15.9688ZM6.67425 15.0308H8.91715V8.99341C8.91715 8.70764 9.15015 8.47522 9.43636 8.47522H11.5256L11.5265 6.32263H9.43623C9.15003 6.32263 8.91715 6.09021 8.91715 5.80444V4.40479C8.91715 4.03833 8.95446 3.62158 9.23161 3.30835C9.56649 2.92969 10.0943 2.88599 10.4622 2.88599L11.6182 2.8855V0.909668L9.8231 0.906738C7.88107 0.906738 6.67425 2.14746 6.67425 4.14453V5.80444C6.67425 6.09009 6.44137 6.32263 6.15517 6.32263H4.39881V8.47522H6.15517C6.44137 8.47522 6.67425 8.70764 6.67425 8.99341V15.0308Z"/>
</mask>
<path d="M9.07934 15.9688H6.51207C6.08325 15.9688 5.73442 15.6206 5.73442 15.1926V9.41333H4.23663C3.80781 9.41333 3.45898 9.06506 3.45898 8.63721V6.16077C3.45898 5.73279 3.80781 5.38464 4.23663 5.38464H5.73442V4.14453C5.73442 2.91492 6.12129 1.86877 6.85306 1.11938C7.58814 0.366577 8.61542 -0.03125 9.82383 -0.03125L11.7818 -0.0280762C12.2098 -0.0273437 12.5581 0.320801 12.5581 0.748047V3.04736C12.5581 3.47534 12.2094 3.82349 11.7807 3.82349L10.4624 3.82398C10.0604 3.82398 9.95801 3.90442 9.93611 3.92908C9.90003 3.96997 9.8571 4.08557 9.8571 4.40479V5.38452H11.6816C11.8189 5.38452 11.952 5.41834 12.0664 5.48206C12.3131 5.61963 12.4664 5.87976 12.4664 6.16089L12.4655 8.63733C12.4655 9.06506 12.1166 9.41321 11.6878 9.41321H9.8571V15.1926C9.8571 15.6206 9.50815 15.9688 9.07934 15.9688ZM6.67425 15.0308H8.91715V8.99341C8.91715 8.70764 9.15015 8.47522 9.43636 8.47522H11.5256L11.5265 6.32263H9.43623C9.15003 6.32263 8.91715 6.09021 8.91715 5.80444V4.40479C8.91715 4.03833 8.95446 3.62158 9.23161 3.30835C9.56649 2.92969 10.0943 2.88599 10.4622 2.88599L11.6182 2.8855V0.909668L9.8231 0.906738C7.88107 0.906738 6.67425 2.14746 6.67425 4.14453V5.80444C6.67425 6.09009 6.44137 6.32263 6.15517 6.32263H4.39881V8.47522H6.15517C6.44137 8.47522 6.67425 8.70764 6.67425 8.99341V15.0308Z" fill="white"/>
<path d="M11.7799 0.909912V1.40991H11.78V0.909912V0.409912H11.7799V0.909912ZM5.73442 9.41333H6.73442V8.41333H5.73442V9.41333ZM5.73442 5.38464V6.38464H6.73442V5.38464H5.73442ZM6.85306 1.11938L7.56853 1.81803L7.56855 1.81802L6.85306 1.11938ZM9.82383 -0.03125L9.82545 -1.03125H9.82383V-0.03125ZM11.7818 -0.0280762L11.7835 -1.02807L11.7834 -1.02807L11.7818 -0.0280762ZM11.7807 3.82349V2.82349H11.7803L11.7807 3.82349ZM10.4624 3.82398V4.82398H10.4628L10.4624 3.82398ZM9.93611 3.92908L9.18832 3.26514L9.18626 3.26747L9.93611 3.92908ZM9.8571 5.38452H8.8571V6.38452H9.8571V5.38452ZM12.0664 5.48206L12.5534 4.60868L12.5531 4.60851L12.0664 5.48206ZM12.4664 6.16089L13.4664 6.16128V6.16089H12.4664ZM12.4655 8.63733L11.4655 8.63694V8.63733H12.4655ZM9.8571 9.41321V8.41321H8.8571V9.41321H9.8571ZM6.67425 15.0308H5.67425V16.0308H6.67425V15.0308ZM8.91715 15.0308V16.0308H9.91715V15.0308H8.91715ZM11.5256 8.47522V9.47522H12.5252L12.5256 8.47562L11.5256 8.47522ZM11.5265 6.32263L12.5265 6.32303L12.5269 5.32263H11.5265V6.32263ZM9.23161 3.30835L9.98053 3.97101L9.98069 3.97083L9.23161 3.30835ZM10.4622 2.88599V3.88599L10.4626 3.88599L10.4622 2.88599ZM11.6182 2.8855L11.6187 3.8855L12.6182 3.88508V2.8855H11.6182ZM11.6182 0.909668H12.6182V-0.0887012L11.6199 -0.0903306L11.6182 0.909668ZM9.8231 0.906738L9.82473 -0.0932616H9.8231V0.906738ZM4.39881 6.32263V5.32263H3.39881V6.32263H4.39881ZM4.39881 8.47522H3.39881V9.47522H4.39881V8.47522ZM9.07934 15.9688V14.9688H6.51207V15.9688V16.9688H9.07934V15.9688ZM6.51207 15.9688V14.9688C6.63369 14.9688 6.73442 15.0665 6.73442 15.1926H5.73442H4.73442C4.73442 16.1747 5.53281 16.9688 6.51207 16.9688V15.9688ZM5.73442 15.1926H6.73442V9.41333H5.73442H4.73442V15.1926H5.73442ZM5.73442 9.41333V8.41333H4.23663V9.41333V10.4133H5.73442V9.41333ZM4.23663 9.41333V8.41333C4.35835 8.41333 4.45898 8.51104 4.45898 8.63721H3.45898H2.45898C2.45898 9.61909 3.25727 10.4133 4.23663 10.4133V9.41333ZM3.45898 8.63721H4.45898V6.16077H3.45898H2.45898V8.63721H3.45898ZM3.45898 6.16077H4.45898C4.45898 6.28692 4.35825 6.38464 4.23663 6.38464V5.38464V4.38464C3.25737 4.38464 2.45898 5.17866 2.45898 6.16077H3.45898ZM4.23663 5.38464V6.38464H5.73442V5.38464V4.38464H4.23663V5.38464ZM5.73442 5.38464H6.73442V4.14453H5.73442H4.73442V5.38464H5.73442ZM5.73442 4.14453H6.73442C6.73442 3.12727 7.05061 2.34842 7.56853 1.81803L6.85306 1.11938L6.1376 0.420736C5.19197 1.38913 4.73442 2.70256 4.73442 4.14453H5.73442ZM6.85306 1.11938L7.56855 1.81802C8.08702 1.28704 8.84115 0.96875 9.82383 0.96875V-0.03125V-1.03125C8.38968 -1.03125 7.08927 -0.553886 6.13758 0.420754L6.85306 1.11938ZM9.82383 -0.03125L9.82221 0.968749L11.7801 0.971923L11.7818 -0.0280762L11.7834 -1.02807L9.82545 -1.03125L9.82383 -0.03125ZM11.7818 -0.0280762L11.78 0.971922C11.6583 0.971714 11.5581 0.874232 11.5581 0.748047H12.5581H13.5581C13.5581 -0.23263 12.7614 -1.0264 11.7835 -1.02807L11.7818 -0.0280762ZM12.5581 0.748047H11.5581V3.04736H12.5581H13.5581V0.748047H12.5581ZM12.5581 3.04736H11.5581C11.5581 2.92152 11.6586 2.82349 11.7807 2.82349V3.82349V4.82349C12.7601 4.82349 13.5581 4.02916 13.5581 3.04736H12.5581ZM11.7807 3.82349L11.7803 2.82349L10.462 2.82398L10.4624 3.82398L10.4628 4.82398L11.781 4.82349L11.7807 3.82349ZM10.4624 3.82398V2.82398C10.0016 2.82398 9.51122 2.90147 9.18833 3.26514L9.93611 3.92908L10.6839 4.59302C10.5366 4.75896 10.3842 4.81328 10.3398 4.82638C10.2972 4.83896 10.3209 4.82398 10.4624 4.82398V3.82398ZM9.93611 3.92908L9.18626 3.26747C9.00157 3.47679 8.93411 3.71306 8.90369 3.86059C8.86976 4.02511 8.8571 4.2075 8.8571 4.40479H9.8571H10.8571C10.8571 4.28286 10.8659 4.24784 10.8625 4.26454C10.8604 4.2746 10.8522 4.3117 10.83 4.36434C10.8081 4.41629 10.7652 4.50091 10.686 4.59069L9.93611 3.92908ZM9.8571 4.40479H8.8571V5.38452H9.8571H10.8571V4.40479H9.8571ZM9.8571 5.38452V6.38452H11.6816V5.38452V4.38452H9.8571V5.38452ZM11.6816 5.38452V6.38452C11.6566 6.38452 11.621 6.37864 11.5796 6.3556L12.0664 5.48206L12.5531 4.60851C12.2831 4.45803 11.9813 4.38452 11.6816 4.38452V5.38452ZM12.0664 5.48206L11.5793 6.35543C11.5115 6.31758 11.4664 6.24476 11.4664 6.16089H12.4664H13.4664C13.4664 5.51476 13.1147 4.92168 12.5534 4.60868L12.0664 5.48206ZM12.4664 6.16089L11.4664 6.16049L11.4655 8.63694L12.4655 8.63733L13.4655 8.63772L13.4664 6.16128L12.4664 6.16089ZM12.4655 8.63733H11.4655C11.4655 8.51073 11.5664 8.41321 11.6878 8.41321V9.41321V10.4132C12.6669 10.4132 13.4655 9.6194 13.4655 8.63733H12.4655ZM11.6878 9.41321V8.41321H9.8571V9.41321V10.4132H11.6878V9.41321ZM9.8571 9.41321H8.8571V15.1926H9.8571H10.8571V9.41321H9.8571ZM9.8571 15.1926H8.8571C8.8571 15.0663 8.95792 14.9688 9.07934 14.9688V15.9688V16.9688C10.0584 16.9688 10.8571 16.1749 10.8571 15.1926H9.8571ZM6.67425 15.0308V16.0308H8.91715V15.0308V14.0308H6.67425V15.0308ZM8.91715 15.0308H9.91715V8.99341H8.91715H7.91715V15.0308H8.91715ZM8.91715 8.99341H9.91715C9.91715 9.26192 9.70044 9.47522 9.43636 9.47522V8.47522V7.47522C8.59987 7.47522 7.91715 8.15336 7.91715 8.99341H8.91715ZM9.43636 8.47522V9.47522H11.5256V8.47522V7.47522H9.43636V8.47522ZM11.5256 8.47522L12.5256 8.47562L12.5265 6.32303L11.5265 6.32263L10.5265 6.32223L10.5256 8.47482L11.5256 8.47522ZM11.5265 6.32263V5.32263H9.43623V6.32263V7.32263H11.5265V6.32263ZM9.43623 6.32263V5.32263C9.70063 5.32263 9.91715 5.53624 9.91715 5.80444H8.91715H7.91715C7.91715 6.64418 8.59944 7.32263 9.43623 7.32263V6.32263ZM8.91715 5.80444H9.91715V4.40479H8.91715H7.91715V5.80444H8.91715ZM8.91715 4.40479H9.91715C9.91715 4.24813 9.92622 4.14156 9.94448 4.06304C9.96088 3.9925 9.97815 3.9737 9.98053 3.97101L9.23161 3.30835L8.48269 2.64569C7.94002 3.259 7.91715 4.01799 7.91715 4.40479H8.91715ZM9.23161 3.30835L9.98069 3.97083C9.98135 3.97009 10.0011 3.94555 10.0907 3.92179C10.1868 3.89632 10.31 3.88599 10.4622 3.88599V2.88599V1.88599C10.0905 1.88599 9.13669 1.90619 8.48253 2.64587L9.23161 3.30835ZM10.4622 2.88599L10.4626 3.88599L11.6187 3.8855L11.6182 2.8855L11.6178 1.8855L10.4617 1.88599L10.4622 2.88599ZM11.6182 2.8855H12.6182V0.909668H11.6182H10.6182V2.8855H11.6182ZM11.6182 0.909668L11.6199 -0.0903306L9.82473 -0.0932603L9.8231 0.906738L9.82147 1.90674L11.6166 1.90967L11.6182 0.909668ZM9.8231 0.906738V-0.0932616C8.63449 -0.0932616 7.56994 0.291512 6.80354 1.07953C6.04024 1.86436 5.67425 2.94449 5.67425 4.14453H6.67425H7.67425C7.67425 3.3475 7.91167 2.80873 8.23728 2.47394C8.5598 2.14233 9.06968 1.90674 9.8231 1.90674V0.906738ZM6.67425 4.14453H5.67425V5.80444H6.67425H7.67425V4.14453H6.67425ZM6.67425 5.80444H5.67425C5.67425 5.53627 5.89062 5.32263 6.15517 5.32263V6.32263V7.32263C6.99212 7.32263 7.67425 6.64391 7.67425 5.80444H6.67425ZM6.15517 6.32263V5.32263H4.39881V6.32263V7.32263H6.15517V6.32263ZM4.39881 6.32263H3.39881V8.47522H4.39881H5.39881V6.32263H4.39881ZM4.39881 8.47522V9.47522H6.15517V8.47522V7.47522H4.39881V8.47522ZM6.15517 8.47522V9.47522C5.89078 9.47522 5.67425 9.26162 5.67425 8.99341H6.67425H7.67425C7.67425 8.15367 6.99197 7.47522 6.15517 7.47522V8.47522ZM6.67425 8.99341H5.67425V15.0308H6.67425H7.67425V8.99341H6.67425Z" fill="white" mask="url(#path-1-inside-1_475_1573)"/>
</g>
<defs>
<clipPath id="clip0_475_1573">
<rect width="16" height="16" fill="white"/>
</clipPath>
</defs>
</svg>
