<svg width="16" height="16" viewBox="0 0 16 16" fill="none" xmlns="http://www.w3.org/2000/svg">
<path d="M8.00195 11.7607C10.0164 11.7606 11.659 10.1791 11.7598 8.19141L11.7646 7.99805H10.4443M8.00195 11.7607V10.4404M8.00195 11.7607V10.4404M8.00195 11.7607L7.80762 11.7559C5.82064 11.655 4.23949 10.0135 4.23828 8V7.99805C4.23828 5.92022 5.92229 4.23438 8.00195 4.23438M8.00195 10.4404C9.26753 10.4402 10.3073 9.4791 10.4316 8.24707L10.4443 7.99805M8.00195 10.4404L7.75195 10.4277C6.51987 10.3028 5.55927 9.26354 5.55859 7.99902V7.99805C5.55859 6.64868 6.65259 5.55469 8.00195 5.55469M10.4443 7.99805L11.7637 7.99707C11.7633 5.98272 10.183 4.34003 8.19531 4.23926L8.00195 4.23438M10.4443 7.99805C10.4443 6.73287 9.48314 5.69224 8.25098 5.56738L8.00195 5.55469M8.00195 4.23438V5.55469M8.00195 4.23438V5.55469" fill="white" stroke="white" stroke-width="19.556"/>
<path d="M11.0235 0.713063C9.67415 0.650117 6.3319 0.653173 4.98131 0.713063C3.79451 0.768675 2.74765 1.05529 1.90368 1.89926C0.493206 3.30974 0.673488 5.21034 0.673488 7.99768C0.673488 10.8504 0.514595 12.707 1.90368 14.0961C3.31966 15.5115 5.24776 15.3263 8.00211 15.3263C10.828 15.3263 11.8033 15.3281 12.8025 14.9413C14.161 14.4139 15.1865 13.1996 15.2867 11.0185C15.3503 9.6685 15.3466 6.32686 15.2867 4.97628C15.1657 2.4016 13.784 0.840177 11.0235 0.713063ZM13.1594 13.1629C12.2348 14.0875 10.952 14.005 7.98438 14.005C4.92876 14.005 3.70345 14.0503 2.80937 13.1537C1.77963 12.1289 1.96602 10.4831 1.96602 7.9879C1.96602 4.61143 1.61951 2.17976 5.0082 2.0062C5.78678 1.9787 6.01595 1.96954 7.97583 1.96954L8.00333 1.98787C11.26 1.98787 13.8151 1.64686 13.9685 5.03494C14.0034 5.80802 14.0113 6.04025 14.0113 7.99707C14.0107 11.0173 14.0681 12.2499 13.1594 13.1629Z" fill="white"/>
<path d="M11.9146 4.96487C12.4003 4.96487 12.794 4.57115 12.794 4.08546C12.794 3.59978 12.4003 3.20605 11.9146 3.20605C11.4289 3.20605 11.0352 3.59978 11.0352 4.08546C11.0352 4.57115 11.4289 4.96487 11.9146 4.96487Z" fill="white"/>
</svg>
