<svg width="80" height="80" viewBox="0 0 80 80" fill="none" xmlns="http://www.w3.org/2000/svg">
<circle cx="40" cy="40" r="40" fill="#FAF9FF"/>
<path d="M35.4865 25.9998H25.3806C24.4456 25.9998 23.6484 26.3295 22.989 26.9888C22.3297 27.6482 22 28.4454 22 29.3804V39.4863C22 40.4214 22.3297 41.2186 22.989 41.8779C23.6484 42.5373 24.4456 42.8669 25.3806 42.8669H29.9121L28.2218 51.6781C28.1498 52.0138 28.2278 52.3195 28.4555 52.5952C28.6833 52.8709 28.965 53.0088 29.3007 53.0088H32.969C33.4486 53.0088 33.8861 52.8649 34.2817 52.5772C34.6773 52.2895 34.9471 51.9059 35.0909 51.4264L38.4356 43.5502C38.7233 42.4474 38.8671 41.3325 38.8671 40.2056V29.3804C38.8671 28.4454 38.5375 27.6482 37.8781 26.9888C37.2188 26.3295 36.4216 25.9998 35.4865 25.9998ZM36.6374 40.2056C36.6374 41.1167 36.5175 42.0038 36.2777 42.8669L32.969 50.7431H30.6673L32.3936 41.9678C32.4655 41.6322 32.3876 41.3265 32.1598 41.0507C31.9321 40.775 31.6384 40.6372 31.2787 40.6372H25.3806C25.0689 40.6372 24.8052 40.5233 24.5894 40.2955C24.3736 40.0677 24.2657 39.81 24.2657 39.5223V29.3804C24.2657 29.0687 24.3736 28.805 24.5894 28.5892C24.8052 28.3734 25.0689 28.2655 25.3806 28.2655H35.4865C35.7982 28.2655 36.0679 28.3734 36.2957 28.5892C36.5235 28.805 36.6374 29.0687 36.6374 29.3804V40.2056ZM54.6194 25.9998H44.5135C43.5784 25.9998 42.7812 26.3295 42.1219 26.9888C41.4625 27.6482 41.1329 28.4454 41.1329 29.3804V39.4863C41.1329 40.4214 41.4625 41.2186 42.1219 41.8779C42.7812 42.5373 43.5784 42.8669 44.5135 42.8669H49.045L47.3187 51.6781C47.2707 52.0138 47.3606 52.3195 47.5884 52.5952C47.8162 52.8709 48.0979 53.0088 48.4336 53.0088H52.0659C52.5694 53.0088 53.019 52.8649 53.4146 52.5772C53.8102 52.2895 54.0799 51.9059 54.2238 51.4264L57.5325 43.5502C57.8442 42.4474 58 41.3325 58 40.2056V29.3804C58 28.4454 57.6703 27.6482 57.011 26.9888C56.3516 26.3295 55.5544 25.9998 54.6194 25.9998ZM55.7343 40.2056C55.7343 41.1167 55.6264 42.0038 55.4106 42.8669L52.0659 50.7431H49.8002L51.5265 41.9678C51.5744 41.6322 51.4845 41.3265 51.2567 41.0507C51.029 40.775 50.7473 40.6372 50.4116 40.6372H44.5135C44.2018 40.6372 43.9321 40.5233 43.7043 40.2955C43.4765 40.0677 43.3626 39.81 43.3626 39.5223V29.3804C43.3626 29.0687 43.4765 28.805 43.7043 28.5892C43.9321 28.3734 44.2018 28.2655 44.5135 28.2655H54.6194C54.9311 28.2655 55.1948 28.3734 55.4106 28.5892C55.6264 28.805 55.7343 29.0687 55.7343 29.3804V40.2056Z" fill="#007EE4"/>
</svg>
