<svg width="57" height="57" viewBox="0 0 57 57" fill="none" xmlns="http://www.w3.org/2000/svg">
<rect width="57" height="57" rx="12" fill="white"/>
<path d="M28.9993 45.5002C28.8049 45.5002 28.6243 45.4863 28.4577 45.4585C28.291 45.4307 28.1243 45.3891 27.9577 45.3335C24.2077 44.0835 21.2216 41.771 18.9993 38.396C16.7771 35.021 15.666 31.3891 15.666 27.5002V19.6252C15.666 18.9307 15.8674 18.3057 16.2702 17.7502C16.673 17.1946 17.1938 16.7918 17.8327 16.5418L27.8327 12.7918C28.2216 12.6529 28.6105 12.5835 28.9993 12.5835C29.3882 12.5835 29.7771 12.6529 30.166 12.7918L40.166 16.5418C40.8049 16.7918 41.3257 17.1946 41.7285 17.7502C42.1313 18.3057 42.3327 18.9307 42.3327 19.6252V27.5002C42.3327 31.3891 41.2216 35.021 38.9993 38.396C36.7771 41.771 33.791 44.0835 30.041 45.3335C29.8743 45.3891 29.7077 45.4307 29.541 45.4585C29.3743 45.4863 29.1938 45.5002 28.9993 45.5002ZM28.9993 42.1668C31.8882 41.2502 34.2771 39.4168 36.166 36.6668C38.0549 33.9168 38.9993 30.8613 38.9993 27.5002V19.6252L28.9993 15.8752L18.9993 19.6252V27.5002C18.9993 30.8613 19.9438 33.9168 21.8327 36.6668C23.7216 39.4168 26.1105 41.2502 28.9993 42.1668Z" fill="#007EE4"/>
</svg>
