<svg width="188" height="31" viewBox="0 0 188 31" fill="none" xmlns="http://www.w3.org/2000/svg">
<path d="M14.0582 3.10471C14.6279 1.87785 16.3721 1.87785 16.9418 3.10471L19.5188 8.65366C19.7504 9.15244 20.2234 9.49608 20.7694 9.56225L26.8431 10.2984C28.1859 10.4611 28.7249 12.1199 27.7342 13.0409L23.2531 17.2065C22.8503 17.5809 22.6697 18.1369 22.7755 18.6766L23.9522 24.6805C24.2124 26.0079 22.8014 27.0331 21.6193 26.3755L16.2729 23.401C15.7923 23.1336 15.2077 23.1336 14.7271 23.401L9.38071 26.3755C8.19864 27.0331 6.78757 26.0079 7.04775 24.6805L8.22454 18.6766C8.33032 18.1369 8.14965 17.5809 7.74686 17.2065L3.26582 13.0409C2.27508 12.1199 2.81406 10.4611 4.15693 10.2984L10.2306 9.56225C10.7766 9.49608 11.2496 9.15244 11.4812 8.65366L14.0582 3.10471Z" fill="#FFDF00"/>
<path d="M53.0582 3.10471C53.6279 1.87785 55.3721 1.87785 55.9418 3.10471L58.5188 8.65366C58.7504 9.15244 59.2234 9.49608 59.7694 9.56225L65.8431 10.2984C67.1859 10.4611 67.7249 12.1199 66.7342 13.0409L62.2531 17.2065C61.8503 17.5809 61.6697 18.1369 61.7755 18.6766L62.9522 24.6805C63.2124 26.0079 61.8014 27.0331 60.6193 26.3755L55.2729 23.401C54.7923 23.1336 54.2077 23.1336 53.7271 23.401L48.3807 26.3755C47.1986 27.0331 45.7876 26.0079 46.0478 24.6805L47.2245 18.6766C47.3303 18.1369 47.1497 17.5809 46.7469 17.2065L42.2658 13.0409C41.2751 12.1199 41.8141 10.4611 43.1569 10.2984L49.2306 9.56225C49.7766 9.49608 50.2496 9.15244 50.4812 8.65366L53.0582 3.10471Z" fill="#FFDF00"/>
<path d="M92.0582 3.10471C92.6279 1.87785 94.3721 1.87785 94.9418 3.10471L97.5188 8.65366C97.7504 9.15244 98.2234 9.49608 98.7694 9.56225L104.843 10.2984C106.186 10.4611 106.725 12.1199 105.734 13.0409L101.253 17.2065C100.85 17.5809 100.67 18.1369 100.775 18.6766L101.952 24.6805C102.212 26.0079 100.801 27.0331 99.6193 26.3755L94.2729 23.401C93.7923 23.1336 93.2077 23.1336 92.7271 23.401L87.3807 26.3755C86.1986 27.0331 84.7876 26.0079 85.0478 24.6805L86.2245 18.6766C86.3303 18.1369 86.1497 17.5809 85.7469 17.2065L81.2658 13.0409C80.2751 12.1199 80.8141 10.4611 82.1569 10.2984L88.2306 9.56225C88.7766 9.49608 89.2496 9.15244 89.4812 8.65366L92.0582 3.10471Z" fill="#FFDF00"/>
<path d="M131.058 3.10471C131.628 1.87785 133.372 1.87785 133.942 3.10471L136.519 8.65366C136.75 9.15244 137.223 9.49608 137.769 9.56225L143.843 10.2984C145.186 10.4611 145.725 12.1199 144.734 13.0409L140.253 17.2065C139.85 17.5809 139.67 18.1369 139.775 18.6766L140.952 24.6805C141.212 26.0079 139.801 27.0331 138.619 26.3755L133.273 23.401C132.792 23.1336 132.208 23.1336 131.727 23.401L126.381 26.3755C125.199 27.0331 123.788 26.0079 124.048 24.6805L125.225 18.6766C125.33 18.1369 125.15 17.5809 124.747 17.2065L120.266 13.0409C119.275 12.1199 119.814 10.4611 121.157 10.2984L127.231 9.56225C127.777 9.49608 128.25 9.15244 128.481 8.65366L131.058 3.10471Z" fill="#FFDF00"/>
<path d="M170.058 3.10471C170.628 1.87785 172.372 1.87785 172.942 3.10471L175.519 8.65366C175.75 9.15244 176.223 9.49608 176.769 9.56225L182.843 10.2984C184.186 10.4611 184.725 12.1199 183.734 13.0409L179.253 17.2065C178.85 17.5809 178.67 18.1369 178.775 18.6766L179.952 24.6805C180.212 26.0079 178.801 27.0331 177.619 26.3755L172.273 23.401C171.792 23.1336 171.208 23.1336 170.727 23.401L165.381 26.3755C164.199 27.0331 162.788 26.0079 163.048 24.6805L164.225 18.6766C164.33 18.1369 164.15 17.5809 163.747 17.2065L159.266 13.0409C158.275 12.1199 158.814 10.4611 160.157 10.2984L166.231 9.56225C166.777 9.49608 167.25 9.15244 167.481 8.65366L170.058 3.10471Z" fill="#FFDF00"/>
</svg>
