<svg width="57" height="57" viewBox="0 0 57 57" fill="none" xmlns="http://www.w3.org/2000/svg">
<path d="M0 12C0 5.37258 5.37258 0 12 0H45C51.6274 0 57 5.37258 57 12V45C57 51.6274 51.6274 57 45 57H12C5.37258 57 0 51.6274 0 45V12Z" fill="white"/>
<path d="M15.6673 44.0006C14.7507 44.0006 13.9659 43.6743 13.3132 43.0215C12.6604 42.3687 12.334 41.584 12.334 40.6673V22.334C12.334 21.4173 12.6604 20.6326 13.3132 19.9798C13.9659 19.327 14.7507 19.0007 15.6673 19.0007H22.334V15.6673C22.334 14.7507 22.6604 13.9659 23.3132 13.3132C23.9659 12.6604 24.7507 12.334 25.6673 12.334H32.334C33.2507 12.334 34.0354 12.6604 34.6882 13.3132C35.3409 13.9659 35.6673 14.7507 35.6673 15.6673V19.0007H42.334C43.2506 19.0007 44.0354 19.327 44.6881 19.9798C45.3409 20.6326 45.6673 21.4173 45.6673 22.334V40.6673C45.6673 41.584 45.3409 42.3687 44.6881 43.0215C44.0354 43.6743 43.2506 44.0006 42.334 44.0006H15.6673ZM25.6673 19.0007H32.334V15.6673H25.6673V19.0007ZM42.334 34.0007H34.0007V35.6673C34.0007 36.1395 33.8409 36.5354 33.5215 36.8548C33.202 37.1743 32.8062 37.334 32.334 37.334H25.6673C25.1951 37.334 24.7993 37.1743 24.4798 36.8548C24.1604 36.5354 24.0007 36.1395 24.0007 35.6673V34.0007H15.6673V40.6673H42.334V34.0007ZM27.334 34.0007H30.6673V30.6673H27.334V34.0007ZM15.6673 30.6673H24.0007V29.0007C24.0007 28.5284 24.1604 28.1326 24.4798 27.8132C24.7993 27.4937 25.1951 27.334 25.6673 27.334H32.334C32.8062 27.334 33.202 27.4937 33.5215 27.8132C33.8409 28.1326 34.0007 28.5284 34.0007 29.0007V30.6673H42.334V22.334H15.6673V30.6673Z" fill="#007EE4"/>
</svg>
