<svg width="57" height="57" viewBox="0 0 57 57" fill="none" xmlns="http://www.w3.org/2000/svg">
<rect width="57" height="57" rx="12" fill="white"/>
<path d="M21.657 28.8308C22.1209 27.9032 22.6154 27.0093 23.1405 26.1492C23.6656 25.2893 24.2443 24.4404 24.8766 23.6024L22.3725 23.1002C22.2849 23.0783 22.2001 23.081 22.1182 23.1083C22.036 23.1359 21.962 23.1824 21.8963 23.2478L18.0332 27.1109C18.0005 27.1439 17.9896 27.1823 18.0004 27.2261C18.0115 27.2696 18.0389 27.3023 18.0827 27.3242L21.657 28.8308ZM41.7135 16.5888C39.4052 16.7113 37.1859 17.2918 35.0557 18.33C32.9258 19.3682 30.9582 20.7899 29.1531 22.595C27.9255 23.8224 26.8423 25.1188 25.9036 26.4841C24.9649 27.8494 24.2298 29.1677 23.6981 30.4389L28.546 35.2603C29.8172 34.7287 31.1381 33.9935 32.5089 33.0548C33.8797 32.1162 35.1789 31.0331 36.4065 29.8057C38.2116 28.0006 39.6333 26.0401 40.6715 23.9241C41.7098 21.8084 42.2902 19.5962 42.4128 17.2876C42.4128 17.1958 42.3996 17.1066 42.3731 17.0201C42.3469 16.9336 42.2967 16.8533 42.2225 16.779C42.148 16.7045 42.0675 16.6542 41.981 16.628C41.8945 16.6018 41.8053 16.5888 41.7135 16.5888ZM32.4581 26.517C31.8804 25.9392 31.5916 25.2369 31.5916 24.4101C31.5916 23.5829 31.8804 22.8804 32.4581 22.3027C33.0358 21.725 33.7425 21.4362 34.5783 21.4362C35.4142 21.4362 36.121 21.725 36.6984 22.3027C37.2761 22.8804 37.5649 23.5829 37.5649 24.4101C37.5649 25.2369 37.2761 25.9392 36.6984 26.517C36.121 27.0947 35.4142 27.3835 34.5783 27.3835C33.7425 27.3835 33.0358 27.0947 32.4581 26.517ZM30.1541 37.3181L31.6607 40.9188C31.6826 40.9626 31.7153 40.9872 31.7588 40.9926C31.8026 40.998 31.841 40.9844 31.874 40.9517L35.7371 37.1048C35.8025 37.0391 35.849 36.9653 35.8766 36.8834C35.9039 36.8011 35.9066 36.7164 35.8847 36.6291L35.3825 34.1249C34.5445 34.7572 33.6956 35.3315 32.8357 35.8478C31.9756 36.3641 31.0817 36.8542 30.1541 37.3181ZM44.8512 15.7815C44.9584 18.7682 44.4328 21.6054 43.2742 24.2931C42.1157 26.9812 40.3329 29.5287 37.9259 31.9357C37.8713 31.9903 37.8194 32.0395 37.7702 32.0833C37.721 32.1271 37.6691 32.1763 37.6144 32.2309L38.4021 36.1102C38.5048 36.6245 38.479 37.1246 38.3249 37.6104C38.1707 38.0959 37.9108 38.5215 37.5453 38.887L32.4812 43.9512C32.0983 44.334 31.6355 44.4785 31.0928 44.3847C30.5501 44.2905 30.1759 43.9863 29.9702 43.472L27.6466 38.0106L20.9743 31.3217L15.5129 28.998C14.9986 28.7924 14.6928 28.4183 14.5956 27.8759C14.4983 27.3332 14.6411 26.8704 15.0239 26.4875L20.0881 21.4234C20.4536 21.0578 20.8835 20.8007 21.3779 20.6519C21.8723 20.5032 22.3766 20.4801 22.8909 20.5828L26.7702 21.3709C26.8251 21.316 26.8716 21.2666 26.9097 21.2228C26.9481 21.1793 26.9946 21.1301 27.0492 21.0752C29.4562 18.6685 32.0037 16.883 34.6918 15.7188C37.3798 14.5548 40.2171 14.0265 43.2038 14.1337C43.4095 14.1513 43.6123 14.2017 43.8123 14.2847C44.0125 14.3678 44.1926 14.4892 44.3524 14.6491C44.512 14.8087 44.6306 14.9859 44.7083 15.1807C44.7859 15.3753 44.8336 15.5755 44.8512 15.7815ZM16.9111 36.0351C17.7425 35.2037 18.7562 34.7863 19.952 34.7829C21.1475 34.7797 22.161 35.1939 22.9924 36.0253C23.8239 36.8568 24.2353 37.8702 24.2268 39.0658C24.218 40.2616 23.7978 41.2752 22.9664 42.1067C21.809 43.2641 20.4436 43.9681 18.8704 44.2187C17.2971 44.4693 15.714 44.6897 14.1211 44.88C14.3117 43.2763 14.535 41.6905 14.791 40.1226C15.047 38.555 15.7537 37.1925 16.9111 36.0351ZM18.736 37.8498C18.2413 38.3444 17.8988 38.9331 17.7085 39.6158C17.5182 40.2984 17.3716 41.0007 17.2686 41.7227C17.9909 41.62 18.6933 41.475 19.376 41.2879C20.0586 41.1007 20.6472 40.7599 21.1415 40.2656C21.4829 39.9242 21.6624 39.5145 21.68 39.0363C21.6973 38.5582 21.5354 38.1484 21.194 37.8071C20.8527 37.4658 20.4429 37.3022 19.9648 37.3164C19.4869 37.3306 19.0773 37.5084 18.736 37.8498Z" fill="#007EE4"/>
</svg>
