<svg width="57" height="57" viewBox="0 0 57 57" fill="none" xmlns="http://www.w3.org/2000/svg">
<rect width="57" height="57" rx="12" fill="white"/>
<path d="M28.9993 41.2502C32.3882 38.1391 34.9021 35.3127 36.541 32.771C38.1799 30.2293 38.9993 27.9724 38.9993 26.0002C38.9993 22.9724 38.0341 20.4932 36.1035 18.5627C34.173 16.6321 31.8049 15.6668 28.9993 15.6668C26.1938 15.6668 23.8257 16.6321 21.8952 18.5627C19.9646 20.4932 18.9993 22.9724 18.9993 26.0002C18.9993 27.9724 19.8188 30.2293 21.4577 32.771C23.0966 35.3127 25.6105 38.1391 28.9993 41.2502ZM28.9993 44.5418C28.6105 44.5418 28.2216 44.4724 27.8327 44.3335C27.4438 44.1946 27.0966 43.9863 26.791 43.7085C24.9855 42.0418 23.3882 40.4168 21.9993 38.8335C20.6105 37.2502 19.4507 35.7154 18.5202 34.2293C17.5896 32.7432 16.8813 31.3127 16.3952 29.9377C15.9091 28.5627 15.666 27.2502 15.666 26.0002C15.666 21.8335 17.0063 18.5141 19.6868 16.0418C22.3674 13.5696 25.4716 12.3335 28.9993 12.3335C32.5271 12.3335 35.6313 13.5696 38.3118 16.0418C40.9924 18.5141 42.3327 21.8335 42.3327 26.0002C42.3327 27.2502 42.0896 28.5627 41.6035 29.9377C41.1174 31.3127 40.4091 32.7432 39.4785 34.2293C38.548 35.7154 37.3882 37.2502 35.9993 38.8335C34.6105 40.4168 33.0132 42.0418 31.2077 43.7085C30.9021 43.9863 30.5549 44.1946 30.166 44.3335C29.7771 44.4724 29.3882 44.5418 28.9993 44.5418ZM28.9993 29.0002C29.916 29.0002 30.7007 28.6738 31.3535 28.021C32.0063 27.3682 32.3327 26.5835 32.3327 25.6668C32.3327 24.7502 32.0063 23.9654 31.3535 23.3127C30.7007 22.6599 29.916 22.3335 28.9993 22.3335C28.0827 22.3335 27.298 22.6599 26.6452 23.3127C25.9924 23.9654 25.666 24.7502 25.666 25.6668C25.666 26.5835 25.9924 27.3682 26.6452 28.021C27.298 28.6738 28.0827 29.0002 28.9993 29.0002Z" fill="#007EE4"/>
</svg>
