<svg width="57" height="57" viewBox="0 0 57 57" fill="none" xmlns="http://www.w3.org/2000/svg">
<rect width="57" height="57" rx="12" fill="white"/>
<path d="M29 43.1344L21.8013 45.4132C21.3099 45.5862 20.859 45.5194 20.4487 45.2128C20.0385 44.9061 19.8333 44.5018 19.8333 43.9998V34.1215C18.7778 33.019 17.9583 31.7444 17.375 30.2978C16.7917 28.8514 16.5 27.3076 16.5 25.6665C16.5 22.1793 17.7115 19.2241 20.1346 16.8011C22.5576 14.378 25.5128 13.1665 29 13.1665C32.4872 13.1665 35.4424 14.378 37.8654 16.8011C40.2885 19.2241 41.5 22.1793 41.5 25.6665C41.5 27.3076 41.2083 28.8514 40.625 30.2978C40.0417 31.7444 39.2222 33.019 38.1667 34.1215V43.9998C38.1667 44.5018 37.9615 44.9061 37.5513 45.2128C37.141 45.5194 36.6901 45.5862 36.1988 45.4132L29 43.1344ZM29 35.6665C31.7778 35.6665 34.1389 34.6943 36.0833 32.7498C38.0278 30.8054 39 28.4443 39 25.6665C39 22.8887 38.0278 20.5276 36.0833 18.5832C34.1389 16.6387 31.7778 15.6665 29 15.6665C26.2222 15.6665 23.8611 16.6387 21.9167 18.5832C19.9722 20.5276 19 22.8887 19 25.6665C19 28.4443 19.9722 30.8054 21.9167 32.7498C23.8611 34.6943 26.2222 35.6665 29 35.6665ZM22.3333 42.3907L29 40.6023L35.6667 42.3907V36.1986C34.7158 36.8183 33.6753 37.3012 32.545 37.6473C31.4144 37.9935 30.2328 38.1665 29 38.1665C27.7672 38.1665 26.5856 37.9935 25.455 37.6473C24.3247 37.3012 23.2842 36.8183 22.3333 36.1986V42.3907Z" fill="#007EE4"/>
</svg>
