<svg width="20" height="20" viewBox="0 0 20 20" fill="none" xmlns="http://www.w3.org/2000/svg">
<g clip-path="url(#clip0_255_3386)">
<mask id="mask0_255_3386" style="mask-type:luminance" maskUnits="userSpaceOnUse" x="0" y="0" width="20" height="20">
<path d="M20 0H0V20H20V0Z" fill="white"/>
</mask>
<g mask="url(#mask0_255_3386)">
<path d="M19.5125 8.81994L18.1484 7.45584C17.8249 7.13235 17.5603 6.49215 17.5603 6.03292V4.10328C17.5603 3.18483 16.8115 2.43605 15.893 2.43605H13.9634C13.5042 2.43605 12.864 2.17137 12.5405 1.84788L11.1764 0.483774C10.5294 -0.163211 9.46843 -0.163211 8.81919 0.483774L7.45509 1.84788C7.13159 2.17137 6.48913 2.43605 6.03217 2.43605H4.10253C3.18634 2.43605 2.43529 3.18483 2.43529 4.10328V6.03292C2.43529 6.48988 2.17062 7.13235 1.84712 7.45584L0.48303 8.81994C-0.166218 9.46692 -0.166218 10.5279 0.48303 11.1772L1.84712 12.5413C2.17062 12.8648 2.43529 13.5072 2.43529 13.9642V15.8938C2.43529 16.81 3.18634 17.5611 4.10253 17.5611H6.03217C6.49139 17.5611 7.13159 17.8257 7.45509 18.1492L8.81919 19.5133C9.46617 20.1603 10.5271 20.1603 11.1764 19.5133L12.5405 18.1492C12.864 17.8257 13.5042 17.5611 13.9634 17.5611H15.893C16.8092 17.5611 17.5603 16.81 17.5603 15.8938V13.9642C17.5603 13.505 17.8249 12.8648 18.1484 12.5413L19.5125 11.1772C20.1595 10.5302 20.1595 9.46919 19.5125 8.81994Z" fill="#004883"/>
<path d="M8.888 13.7176L5.26172 10.0913L6.84977 8.50321L8.888 10.5415L13.1477 6.28174L14.7358 7.8698L8.888 13.7176Z" fill="white"/>
</g>
</g>
<defs>
<clipPath id="clip0_255_3386">
<rect width="20" height="20" fill="white"/>
</clipPath>
</defs>
</svg>
