<svg width="57" height="57" viewBox="0 0 57 57" fill="none" xmlns="http://www.w3.org/2000/svg">
<rect width="57" height="57" rx="12" fill="white"/>
<path d="M19.0007 42.334C18.5284 42.334 18.1326 42.1743 17.8132 41.8548C17.4937 41.5354 17.334 41.1395 17.334 40.6673C17.334 40.1951 17.4937 39.7993 17.8132 39.4798C18.1326 39.1604 18.5284 39.0007 19.0007 39.0007H39.0006C39.4729 39.0007 39.8687 39.1604 40.1881 39.4798C40.5076 39.7993 40.6673 40.1951 40.6673 40.6673C40.6673 41.1395 40.5076 41.5354 40.1881 41.8548C39.8687 42.1743 39.4729 42.334 39.0006 42.334H19.0007ZM20.1673 36.5007C19.3618 36.5007 18.6465 36.2368 18.0215 35.709C17.3965 35.1812 17.0145 34.5145 16.8757 33.709L15.209 23.1257C15.1534 23.1257 15.0909 23.1326 15.0215 23.1465C14.952 23.1604 14.8895 23.1673 14.834 23.1673C14.1395 23.1673 13.5493 22.9243 13.0632 22.4382C12.577 21.952 12.334 21.3618 12.334 20.6673C12.334 19.9729 12.577 19.3826 13.0632 18.8965C13.5493 18.4104 14.1395 18.1673 14.834 18.1673C15.5284 18.1673 16.1187 18.4104 16.6048 18.8965C17.0909 19.3826 17.334 19.9729 17.334 20.6673C17.334 20.8618 17.3132 21.0423 17.2715 21.209C17.2298 21.3757 17.1812 21.5284 17.1257 21.6673L22.334 24.0007L27.5423 16.8757C27.2368 16.6534 26.9868 16.3618 26.7923 16.0007C26.5979 15.6395 26.5007 15.2507 26.5007 14.834C26.5007 14.1395 26.7437 13.5493 27.2298 13.0632C27.7159 12.577 28.3062 12.334 29.0007 12.334C29.6951 12.334 30.2854 12.577 30.7715 13.0632C31.2576 13.5493 31.5007 14.1395 31.5007 14.834C31.5007 15.2507 31.4034 15.6395 31.209 16.0007C31.0145 16.3618 30.7645 16.6534 30.459 16.8757L35.6673 24.0007L40.8756 21.6673C40.8201 21.5284 40.7715 21.3757 40.7298 21.209C40.6881 21.0423 40.6673 20.8618 40.6673 20.6673C40.6673 19.9729 40.9104 19.3826 41.3965 18.8965C41.8826 18.4104 42.4729 18.1673 43.1673 18.1673C43.8618 18.1673 44.452 18.4104 44.9381 18.8965C45.4243 19.3826 45.6673 19.9729 45.6673 20.6673C45.6673 21.3618 45.4243 21.952 44.9381 22.4382C44.452 22.9243 43.8618 23.1673 43.1673 23.1673C43.1118 23.1673 43.0493 23.1604 42.9798 23.1465C42.9104 23.1326 42.8479 23.1257 42.7923 23.1257L41.1256 33.709C40.9868 34.5145 40.6048 35.1812 39.9798 35.709C39.3548 36.2368 38.6395 36.5007 37.834 36.5007H20.1673ZM20.1673 33.1673H37.834L38.9173 26.209L37.0007 27.0423C36.2784 27.3479 35.5423 27.4034 34.7923 27.209C34.0423 27.0145 33.4312 26.5979 32.959 25.959L29.0007 20.5007L25.0423 25.959C24.5701 26.5979 23.959 27.0145 23.209 27.209C22.459 27.4034 21.7229 27.3479 21.0007 27.0423L19.084 26.209L20.1673 33.1673Z" fill="#007EE4"/>
</svg>
