<svg width="57" height="57" viewBox="0 0 57 57" fill="none" xmlns="http://www.w3.org/2000/svg">
<rect width="57" height="57" rx="12" fill="white"/>
<path d="M29.0007 45.6668C26.6951 45.6668 24.5284 45.2293 22.5007 44.3543C20.4729 43.4793 18.709 42.2918 17.209 40.7918C15.709 39.2918 14.5215 37.5279 13.6465 35.5002C12.7715 33.4724 12.334 31.3057 12.334 29.0002C12.334 26.6946 12.7715 24.5279 13.6465 22.5002C14.5215 20.4724 15.709 18.7085 17.209 17.2085C18.709 15.7085 20.4729 14.521 22.5007 13.646C24.5284 12.771 26.6951 12.3335 29.0007 12.3335C31.3062 12.3335 33.4729 12.771 35.5007 13.646C37.5284 14.521 39.2923 15.7085 40.7923 17.2085C42.2923 18.7085 43.4798 20.4724 44.3548 22.5002C45.2298 24.5279 45.6673 26.6946 45.6673 29.0002C45.6673 31.3057 45.2298 33.4724 44.3548 35.5002C43.4798 37.5279 42.2923 39.2918 40.7923 40.7918C39.2923 42.2918 37.5284 43.4793 35.5007 44.3543C33.4729 45.2293 31.3062 45.6668 29.0007 45.6668ZM29.0007 42.3335C32.7229 42.3335 35.8757 41.0418 38.459 38.4585C41.0423 35.8752 42.334 32.7224 42.334 29.0002C42.334 25.2779 41.0423 22.1252 38.459 19.5418C35.8757 16.9585 32.7229 15.6668 29.0007 15.6668C25.2784 15.6668 22.1257 16.9585 19.5423 19.5418C16.959 22.1252 15.6673 25.2779 15.6673 29.0002C15.6673 32.7224 16.959 35.8752 19.5423 38.4585C22.1257 41.0418 25.2784 42.3335 29.0007 42.3335ZM29.0007 39.0002C26.2229 39.0002 23.8618 38.0279 21.9173 36.0835C19.9729 34.139 19.0007 31.7779 19.0007 29.0002C19.0007 26.2224 19.9729 23.8613 21.9173 21.9168C23.8618 19.9724 26.2229 19.0002 29.0007 19.0002C31.7784 19.0002 34.1395 19.9724 36.084 21.9168C38.0284 23.8613 39.0006 26.2224 39.0006 29.0002C39.0006 31.7779 38.0284 34.139 36.084 36.0835C34.1395 38.0279 31.7784 39.0002 29.0007 39.0002ZM29.0007 35.6668C30.834 35.6668 32.4034 35.014 33.709 33.7085C35.0145 32.4029 35.6673 30.8335 35.6673 29.0002C35.6673 27.1668 35.0145 25.5974 33.709 24.2918C32.4034 22.9863 30.834 22.3335 29.0007 22.3335C27.1673 22.3335 25.5979 22.9863 24.2923 24.2918C22.9868 25.5974 22.334 27.1668 22.334 29.0002C22.334 30.8335 22.9868 32.4029 24.2923 33.7085C25.5979 35.014 27.1673 35.6668 29.0007 35.6668ZM29.0007 32.3335C28.084 32.3335 27.2993 32.0071 26.6465 31.3543C25.9937 30.7016 25.6673 29.9168 25.6673 29.0002C25.6673 28.0835 25.9937 27.2988 26.6465 26.646C27.2993 25.9932 28.084 25.6668 29.0007 25.6668C29.9173 25.6668 30.702 25.9932 31.3548 26.646C32.0076 27.2988 32.334 28.0835 32.334 29.0002C32.334 29.9168 32.0076 30.7016 31.3548 31.3543C30.702 32.0071 29.9173 32.3335 29.0007 32.3335Z" fill="#007EE4"/>
</svg>
