<svg width="57" height="57" viewBox="0 0 57 57" fill="none" xmlns="http://www.w3.org/2000/svg">
<rect width="57" height="57" rx="12" fill="white"/>
<path d="M22.959 36.0835L31.3757 33.6668C31.9312 33.5002 32.4104 33.2154 32.8132 32.8127C33.2159 32.4099 33.5007 31.9307 33.6673 31.3752L36.084 22.9585C36.1673 22.6529 36.0909 22.3821 35.8548 22.146C35.6187 21.9099 35.3479 21.8335 35.0423 21.9168L26.6257 24.3335C26.0701 24.5002 25.5909 24.7849 25.1882 25.1877C24.7854 25.5904 24.5007 26.0696 24.334 26.6252L21.9173 35.0418C21.834 35.3474 21.9104 35.6182 22.1465 35.8543C22.3826 36.0904 22.6534 36.1668 22.959 36.0835ZM29.0007 31.5002C28.3062 31.5002 27.7159 31.2571 27.2298 30.771C26.7437 30.2849 26.5007 29.6946 26.5007 29.0002C26.5007 28.3057 26.7437 27.7154 27.2298 27.2293C27.7159 26.7432 28.3062 26.5002 29.0007 26.5002C29.6951 26.5002 30.2854 26.7432 30.7715 27.2293C31.2576 27.7154 31.5007 28.3057 31.5007 29.0002C31.5007 29.6946 31.2576 30.2849 30.7715 30.771C30.2854 31.2571 29.6951 31.5002 29.0007 31.5002ZM29.0007 45.6668C26.6951 45.6668 24.5284 45.2293 22.5007 44.3543C20.4729 43.4793 18.709 42.2918 17.209 40.7918C15.709 39.2918 14.5215 37.5279 13.6465 35.5002C12.7715 33.4724 12.334 31.3057 12.334 29.0002C12.334 26.6946 12.7715 24.5279 13.6465 22.5002C14.5215 20.4724 15.709 18.7085 17.209 17.2085C18.709 15.7085 20.4729 14.521 22.5007 13.646C24.5284 12.771 26.6951 12.3335 29.0007 12.3335C31.3062 12.3335 33.4729 12.771 35.5007 13.646C37.5284 14.521 39.2923 15.7085 40.7923 17.2085C42.2923 18.7085 43.4798 20.4724 44.3548 22.5002C45.2298 24.5279 45.6673 26.6946 45.6673 29.0002C45.6673 31.3057 45.2298 33.4724 44.3548 35.5002C43.4798 37.5279 42.2923 39.2918 40.7923 40.7918C39.2923 42.2918 37.5284 43.4793 35.5007 44.3543C33.4729 45.2293 31.3062 45.6668 29.0007 45.6668ZM29.0007 42.3335C32.6951 42.3335 35.8409 41.0349 38.4382 38.4377C41.0354 35.8404 42.334 32.6946 42.334 29.0002C42.334 25.3057 41.0354 22.1599 38.4382 19.5627C35.8409 16.9654 32.6951 15.6668 29.0007 15.6668C25.3062 15.6668 22.1604 16.9654 19.5632 19.5627C16.9659 22.1599 15.6673 25.3057 15.6673 29.0002C15.6673 32.6946 16.9659 35.8404 19.5632 38.4377C22.1604 41.0349 25.3062 42.3335 29.0007 42.3335Z" fill="#007EE4"/>
</svg>
