<svg width="529" height="537" viewBox="0 0 529 537" fill="none" xmlns="http://www.w3.org/2000/svg">
<path opacity="0.3" d="M467.641 462.249C456.779 473.684 446.502 481.058 438.382 486.884C342.935 555.368 229.997 535.405 205.994 530.53C170.549 523.331 102.036 509.416 52.5022 451.165C-22.4385 363.036 -10.7691 224.192 47.36 132.539C57.9928 115.774 114.158 22.7246 228.313 7.80251C297.399 -1.2281 377.93 16.9858 436.249 65.8451C558.665 168.406 549.95 375.596 467.641 462.249Z" fill="#D7D7D7"/>
<path d="M182.968 48.9103C171.017 49.9495 161.854 59.9588 161.82 71.9554C161.612 145.319 161.268 398.371 166.05 487.937C166.557 497.426 174.336 504.88 183.838 504.982C230.833 505.488 366.015 506.418 442.758 501.509C458.742 500.486 471.181 487.247 471.161 471.23C471.068 394.233 469.838 177.688 459.29 78.7076C458.027 66.8484 448.493 57.5914 436.603 56.6649C385.347 52.6714 249.236 43.1471 182.968 48.9103Z" fill="url(#paint0_linear_255_3276)"/>
<path d="M180.684 91.1819C179.761 153.938 177.133 362.702 181.72 439.753C182.391 451.015 191.139 459.907 201.941 460.283C246.416 461.833 360.464 464.833 425.451 457.682C437.153 456.394 446.096 446.251 446.408 433.97C448.033 369.927 452.424 175.487 447.966 99.2979C447.255 87.1435 437.969 77.4453 426.329 76.6609C378.173 73.416 254.515 65.933 199.253 70.535C188.879 71.3987 180.844 80.3173 180.684 91.1819Z" fill="url(#paint1_linear_255_3276)"/>
<path d="M288.14 59.8215C288.178 61.5552 289.561 62.9554 291.294 63.0082C299.852 63.2682 323.959 64.0062 334.735 64.3944C336.859 64.4709 338.483 62.527 338.034 60.449C337.997 60.3836 337.721 57.7191 335 57.5298C327.711 57.0229 305.721 55.6566 291.19 56.4949C288.206 56.6672 288.043 60.0608 288.14 59.8215Z" fill="#1F5AA9"/>
<g opacity="0.3">
<path d="M85.288 144.736C84.0207 145.1 82.6567 144.455 82.1521 143.206C81.0476 140.474 80.0459 137.652 79.1739 134.822C78.7496 133.444 79.522 131.984 80.899 131.56C80.9157 131.555 80.9318 131.55 80.9479 131.546C82.3103 131.154 83.7414 131.924 84.1605 133.285C84.9886 135.975 85.9406 138.655 86.9895 141.25C87.5296 142.586 86.8846 144.107 85.5481 144.647C85.4623 144.682 85.3753 144.711 85.288 144.736ZM79.1752 122.845C79.0772 122.873 78.9761 122.896 78.873 122.913C77.4511 123.145 76.1095 122.181 75.8771 120.759C75.4001 117.838 75.0434 114.868 74.8169 111.931C74.7058 110.494 75.7756 109.244 77.2173 109.128C78.6539 109.018 79.9082 110.093 80.0189 111.529C80.2344 114.32 80.5735 117.142 81.0273 119.918C81.2425 121.236 80.4283 122.485 79.1752 122.845ZM78.0345 100.152C77.7554 100.232 77.4578 100.267 77.1513 100.248C75.7135 100.157 74.6203 98.9187 74.7103 97.4807C74.8944 94.5332 75.2093 91.5565 75.6466 88.6339C75.8606 87.2087 77.1891 86.2281 78.6129 86.4394C80.0377 86.6527 81.0204 87.981 80.8073 89.4058C80.3921 92.1811 80.0931 95.0069 79.918 97.8066C79.847 98.9381 79.0649 99.8562 78.0345 100.152ZM81.9975 77.7696C81.5361 77.9021 81.0329 77.9088 80.5386 77.7623C79.1572 77.3532 78.3691 75.9012 78.778 74.5198C79.6182 71.6859 80.5904 68.8546 81.6682 66.104C82.1947 64.7642 83.7075 64.1027 85.0494 64.6271C86.3906 65.1528 87.0519 66.6667 86.5264 68.0083C85.5026 70.6202 84.5786 73.3094 83.7813 76.0026C83.5182 76.8895 82.8257 77.5316 81.9975 77.7696ZM90.8523 56.8329C90.2052 57.0187 89.4873 56.9556 88.8545 56.5999C87.5979 55.8941 87.1516 54.3036 87.8575 53.0478C89.3015 50.4775 90.8761 47.9323 92.5375 45.4849C93.3457 44.292 94.9684 43.981 96.1611 44.7909C97.3531 45.6 97.6637 47.2221 96.8548 48.415C95.2751 50.7412 93.7787 53.1602 92.4065 55.603C92.0563 56.2261 91.4888 56.6501 90.8523 56.8329ZM104.117 38.3779C103.279 38.6186 102.339 38.4345 101.645 37.807C100.576 36.8406 100.492 35.1914 101.458 34.122C103.438 31.9313 105.537 29.7972 107.696 27.7816C108.75 26.7981 110.4 26.8553 111.384 27.9089C112.367 28.9614 112.31 30.6127 111.257 31.596C109.205 33.5118 107.211 35.5382 105.33 37.6202C104.991 37.9951 104.569 38.2481 104.117 38.3779ZM194.288 6.01524C193.941 6.11497 193.568 6.14374 193.188 6.08755C190.415 5.67732 187.587 5.38274 184.782 5.21281C183.344 5.12536 182.249 3.88873 182.336 2.45129C182.423 1.0129 183.66 -0.0823901 185.098 0.00487244C188.052 0.184 191.031 0.493736 193.951 0.925254C195.376 1.13603 196.361 2.4628 196.15 3.88796C195.996 4.933 195.241 5.74137 194.288 6.01524ZM121.131 23.331C120.09 23.6298 118.931 23.2566 118.275 22.3213C117.447 21.1414 117.732 19.5145 118.912 18.6869C121.329 16.9906 123.85 15.379 126.404 13.8967C127.654 13.1794 129.247 13.5965 129.971 14.8433C130.694 16.0894 130.27 17.686 129.023 18.4098C126.597 19.8169 124.204 21.3475 121.908 22.958C121.664 23.129 121.401 23.2533 121.131 23.331ZM171.574 5.24657C171.408 5.29413 171.236 5.32673 171.057 5.34073C168.261 5.56186 165.438 5.90727 162.665 6.36545C161.243 6.6 159.901 5.638 159.666 4.21687C159.431 2.79555 160.39 1.44595 161.814 1.21715C164.732 0.735381 167.703 0.371949 170.645 0.138545C172.081 0.0250082 173.338 1.09747 173.452 2.53337C173.552 3.7911 172.741 4.91113 171.574 5.24657ZM141.079 12.4619C139.813 12.8254 138.451 12.1827 137.945 10.9361C137.402 9.60106 138.045 8.07944 139.379 7.53611C142.112 6.42567 144.93 5.41802 147.755 4.5429C147.772 4.53696 147.79 4.53159 147.808 4.5266C149.169 4.13574 150.598 4.90327 151.019 6.2615C151.446 7.63833 150.677 9.09973 149.3 9.52607C146.617 10.358 143.941 11.3156 141.344 12.371C141.256 12.4057 141.167 12.4364 141.079 12.4619Z" fill="url(#paint2_linear_255_3276)"/>
<path d="M212.094 10.3239C211.601 10.4656 211.06 10.4641 210.536 10.2859C209.263 9.85226 207.959 9.43878 206.661 9.05463C205.28 8.6467 204.49 7.19507 204.899 5.81383C205.306 4.43183 206.758 3.64052 208.14 4.05152C209.506 4.45446 210.876 4.89 212.217 5.34588C213.58 5.80981 214.311 7.29231 213.846 8.65571C213.561 9.49669 212.888 10.096 212.094 10.3239Z" fill="url(#paint3_linear_255_3276)"/>
</g>
<g opacity="0.3">
<path d="M271.413 63.3152C270.203 63.6629 268.885 63.0912 268.333 61.9148C267.762 60.6971 267.156 59.4707 266.531 58.2707C265.866 56.9922 266.363 55.4169 267.641 54.7518C268.925 54.084 270.495 54.5842 271.16 55.8618C271.817 57.1255 272.456 58.417 273.058 59.6991C273.669 61.0036 273.108 62.5571 271.803 63.1693C271.675 63.2293 271.545 63.2774 271.413 63.3152Z" fill="url(#paint4_linear_255_3276)"/>
<path d="M207.6 204.168C206.446 204.5 205.282 204.813 204.109 205.107C202.711 205.458 201.294 204.61 200.943 203.212C200.592 201.815 201.445 200.39 202.837 200.046C205.546 199.365 208.22 198.577 210.816 197.691C212.182 197.228 213.663 197.954 214.128 199.318C214.593 200.682 213.865 202.165 212.501 202.63C210.895 203.178 209.246 203.695 207.6 204.168ZM190.551 207.541C190.411 207.582 190.265 207.611 190.115 207.627C187.222 207.948 184.283 208.15 181.38 208.227C179.94 208.265 178.742 207.128 178.703 205.688C178.665 204.248 179.804 203.045 181.243 203.011C184 202.938 186.791 202.746 189.541 202.442C190.973 202.283 192.262 203.315 192.421 204.747C192.563 206.029 191.751 207.197 190.551 207.541ZM225.156 197.307C223.974 197.647 222.68 197.109 222.108 195.971C221.461 194.683 221.98 193.115 223.267 192.467C225.73 191.23 228.173 189.87 230.529 188.423C231.758 187.672 233.364 188.055 234.117 189.282C234.871 190.511 234.486 192.117 233.258 192.871C230.777 194.394 228.204 195.826 225.61 197.13C225.462 197.204 225.31 197.263 225.156 197.307ZM168.18 207.543C167.861 207.634 167.52 207.665 167.171 207.627C164.281 207.304 161.369 206.855 158.518 206.29C157.105 206.01 156.186 204.637 156.466 203.224C156.746 201.81 158.118 200.891 159.532 201.172C162.239 201.708 165.004 202.136 167.749 202.441C169.181 202.6 170.212 203.892 170.053 205.323C169.932 206.405 169.166 207.26 168.18 207.543ZM243.893 185.118C242.923 185.396 241.837 185.096 241.156 184.266C240.241 183.152 240.402 181.508 241.516 180.593C243.645 178.845 245.729 176.981 247.711 175.052C248.743 174.047 250.395 174.069 251.4 175.103C252.404 176.135 252.382 177.786 251.349 178.791C249.263 180.822 247.069 182.785 244.828 184.626C244.544 184.859 244.225 185.022 243.893 185.118ZM259.502 169.112C258.727 169.335 257.86 169.196 257.175 168.662C256.039 167.775 255.837 166.136 256.724 165C258.424 162.821 260.052 160.546 261.563 158.237C262.35 157.03 263.967 156.692 265.174 157.482C266.38 158.271 266.718 159.888 265.929 161.094C264.339 163.524 262.626 165.918 260.836 168.21C260.484 168.661 260.013 168.965 259.502 169.112ZM271.25 150.084C270.661 150.254 270.01 150.217 269.412 149.933C268.11 149.315 267.556 147.759 268.174 146.457C269.361 143.959 270.455 141.384 271.426 138.802C271.933 137.454 273.436 136.771 274.787 137.279C276.135 137.786 276.817 139.29 276.31 140.64C275.287 143.356 274.136 146.067 272.888 148.696C272.553 149.399 271.945 149.885 271.25 150.084ZM278.569 128.948C278.16 129.066 277.718 129.085 277.274 128.984C275.869 128.666 274.988 127.269 275.307 125.864C275.918 123.168 276.421 120.416 276.801 117.684C277 116.256 278.32 115.26 279.744 115.459C281.172 115.657 282.168 116.975 281.969 118.402C281.568 121.28 281.039 124.179 280.396 127.017C280.177 127.979 279.454 128.694 278.569 128.948ZM281.069 106.713C280.84 106.779 280.597 106.814 280.346 106.814C278.906 106.813 277.738 105.644 277.739 104.204C277.741 101.446 277.625 98.6528 277.394 95.899C277.273 94.4629 278.344 93.2021 279.776 93.0814C281.212 92.9606 282.473 94.0275 282.594 95.4636C282.837 98.3626 282.959 101.304 282.957 104.207C282.956 105.396 282.159 106.4 281.069 106.713ZM278.626 84.4869C278.575 84.5017 278.522 84.5146 278.469 84.5267C277.063 84.8393 275.669 83.9526 275.357 82.5463C274.916 80.5609 274.408 78.5659 273.847 76.6147C273.644 75.9086 273.434 75.2057 273.217 74.5078C272.789 73.1313 273.558 71.6689 274.933 71.2418C276.318 70.7816 277.771 71.5825 278.199 72.9577C278.428 73.6927 278.649 74.4307 278.862 75.1742C279.452 77.2263 279.986 79.326 280.45 81.4142C280.751 82.7674 279.941 84.1091 278.626 84.4869Z" fill="url(#paint5_linear_255_3276)"/>
<path d="M146.299 202.596C145.801 202.739 145.255 202.736 144.729 202.554C143.394 202.092 142.043 201.594 140.715 201.072C139.373 200.545 138.713 199.031 139.24 197.69C139.767 196.349 141.28 195.688 142.622 196.215C143.884 196.711 145.166 197.184 146.434 197.623C147.795 198.093 148.518 199.578 148.047 200.94C147.758 201.775 147.088 202.369 146.299 202.596Z" fill="url(#paint6_linear_255_3276)"/>
</g>
<path d="M141.329 172.539C141.757 172.836 142.325 172.829 142.745 172.521L154.719 163.753C161.164 166.301 168.061 167.841 175.185 168.207L182.435 181.145C182.69 181.599 183.204 181.841 183.716 181.749L201.234 178.584C201.746 178.492 202.143 178.084 202.222 177.571L204.487 162.913C211.032 160.077 216.955 156.222 222.1 151.579L236.385 155.603C236.886 155.744 237.421 155.552 237.718 155.125L247.867 140.5C248.163 140.072 248.156 139.503 247.849 139.084L239.08 127.111C241.629 120.666 243.168 113.768 243.534 106.645L256.472 99.3936C256.926 99.1393 257.169 98.6253 257.076 98.1132L253.911 80.5951C253.819 80.0832 253.411 79.6863 252.897 79.6071L238.24 77.3421C235.404 70.7974 231.549 64.8743 226.906 59.7287L230.93 45.4435C231.071 44.9431 230.879 44.4078 230.451 44.1113L215.826 33.9624C215.399 33.6656 214.831 33.673 214.411 33.9803L202.438 42.7489C195.993 40.1999 189.094 38.6606 181.971 38.2947L174.721 25.3562C174.466 24.9027 173.952 24.6601 173.44 24.7523L155.922 27.9175C155.41 28.01 155.014 28.4169 154.934 28.9311L152.669 43.5885C146.125 46.4239 140.202 50.2797 135.056 54.9229L120.771 50.8986C120.27 50.7573 119.735 50.9497 119.439 51.377L109.29 66.002C108.993 66.4293 109 66.9977 109.308 67.4175L118.076 79.3909C115.527 85.8359 113.988 92.734 113.622 99.8571L100.684 107.108C100.23 107.362 99.9873 107.876 100.08 108.389L103.245 125.906C103.338 126.418 103.745 126.815 104.259 126.895L118.916 129.16C121.752 135.704 125.607 141.627 130.25 146.773L126.226 161.058C126.085 161.559 126.277 162.094 126.705 162.39L141.329 172.539Z" fill="url(#paint7_linear_255_3276)"/>
<path opacity="0.56" d="M183.505 120.453C175.122 122.861 165.992 118.819 162.282 110.646C158.205 101.66 162.197 91.0341 171.182 86.9564C175.534 84.9798 180.396 84.8187 184.869 86.4996C189.343 88.18 192.895 91.5029 194.87 95.8554C198.948 104.841 194.955 115.467 185.971 119.545C185.161 119.912 184.337 120.215 183.505 120.453ZM174.816 90.0539C174.169 90.24 173.531 90.4739 172.907 90.7572C166.018 93.8831 162.957 102.032 166.083 108.92C169.209 115.809 177.357 118.873 184.246 115.744C191.135 112.618 194.195 104.469 191.07 97.5813C189.555 94.2437 186.832 91.6966 183.401 90.4076C180.613 89.3602 177.628 89.2463 174.816 90.0539Z" fill="white"/>
<path opacity="0.56" d="M190.992 145.193C189.552 145.606 188.083 145.95 186.588 146.22C186.118 146.305 185.646 146.382 185.173 146.452C182.842 146.797 180.486 146.955 178.143 146.925C178.111 146.924 178.079 146.924 178.047 146.924C177.957 146.922 177.866 146.921 177.775 146.918C177.599 146.915 177.422 146.909 177.246 146.903C176.783 146.888 176.4 146.573 176.278 146.15C176.249 146.047 176.235 145.938 176.239 145.825C176.258 145.249 176.741 144.8 177.317 144.818C180.281 144.918 183.275 144.698 186.217 144.166C200.832 141.528 212.313 131.563 217.564 118.743C220.485 111.613 221.478 103.599 220.009 95.471C219.752 94.0456 219.424 92.6435 219.029 91.2703C216.373 82.0281 210.667 74.0468 202.66 68.4907C193.463 62.1081 182.331 59.6893 171.315 61.6797C148.564 65.7927 133.414 87.634 137.523 110.374C137.776 111.776 138.1 113.161 138.491 114.521C140.186 120.416 143.151 125.875 147.194 130.496C147.298 130.616 147.371 130.752 147.412 130.895C147.52 131.271 147.41 131.693 147.096 131.968C146.661 132.347 146.003 132.305 145.623 131.87C141.378 127.019 138.264 121.287 136.485 115.098C136.075 113.67 135.735 112.217 135.469 110.746C131.155 86.8703 147.077 63.9377 170.943 59.6251C182.509 57.5354 194.195 60.075 203.85 66.7756C212.256 72.6082 218.246 80.9871 221.035 90.6898C221.449 92.1316 221.793 93.6032 222.063 95.0989C224.153 106.665 221.614 118.351 214.914 128.007C209.079 136.415 200.697 142.405 190.992 145.193Z" fill="white"/>
<g opacity="0.3">
<path d="M18.6978 235.396C18.0279 235.588 17.2851 235.329 16.8929 234.71C16.1601 233.554 15.4522 232.361 14.7896 231.163C14.3588 230.385 14.6407 229.405 15.4196 228.973C16.1977 228.539 17.1786 228.825 17.6096 229.603C18.2411 230.745 18.9156 231.882 19.6147 232.985C20.0913 233.735 19.868 234.731 19.1172 235.208C18.9833 235.293 18.8422 235.355 18.6978 235.396Z" fill="url(#paint8_linear_255_3276)"/>
<path d="M13.0478 224.363C12.2628 224.589 11.4192 224.188 11.1094 223.414C10.2326 221.228 9.45835 218.971 8.80858 216.709C8.67165 216.232 8.53989 215.753 8.41197 215.271C8.1849 214.409 8.75259 213.547 9.55751 213.299C10.4179 213.072 11.2997 213.585 11.5277 214.444C11.6495 214.905 11.7755 215.364 11.9061 215.819C12.526 217.977 13.2645 220.129 14.1 222.214C14.4316 223.041 14.0303 223.978 13.2047 224.31C13.152 224.33 13.1 224.348 13.0478 224.363ZM8.77004 208.188C8.69677 208.209 8.62045 208.226 8.54354 208.237C7.66133 208.358 6.84815 207.741 6.72675 206.859C6.33685 204.031 6.11918 201.153 6.08024 198.307C6.06759 197.417 6.78391 196.687 7.66919 196.674C8.55965 196.662 9.28996 197.372 9.30262 198.262C9.34002 200.978 9.54792 203.722 9.91941 206.42C10.0297 207.224 9.52797 207.97 8.77004 208.188ZM8.54277 191.459C8.34619 191.515 8.13581 191.535 7.92024 191.511C7.03592 191.413 6.39899 190.616 6.49699 189.731C6.81287 186.898 7.30863 184.053 7.97336 181.277C8.18049 180.41 9.04756 179.878 9.91596 180.085C10.7809 180.292 11.3148 181.162 11.1081 182.026C10.4746 184.674 10.0009 187.385 9.70058 190.088C9.6254 190.756 9.1515 191.284 8.54277 191.459ZM12.4351 175.185C12.1144 175.277 11.7629 175.27 11.4267 175.145C10.5935 174.833 10.1701 173.903 10.4827 173.07C11.4851 170.395 12.6618 167.76 13.9816 165.236C14.3947 164.448 15.3694 164.145 16.1561 164.556C16.9449 164.968 17.2497 165.941 16.8373 166.731C15.579 169.136 14.4561 171.651 13.5006 174.201C13.3146 174.698 12.9092 175.049 12.4351 175.185ZM20.184 160.356C19.7361 160.484 19.236 160.418 18.8223 160.133C18.0904 159.628 17.9069 158.624 18.4119 157.891C20.0332 155.545 21.8142 153.275 23.7061 151.146C24.297 150.479 25.3158 150.42 25.9809 151.012C26.646 151.603 26.7062 152.622 26.1151 153.287C24.3099 155.318 22.6108 157.483 21.0647 159.723C20.8443 160.042 20.5296 160.256 20.184 160.356ZM31.2958 147.858C30.7159 148.025 30.065 147.856 29.6396 147.373C29.0523 146.705 29.1187 145.687 29.7865 145.099C31.9291 143.216 34.2098 141.45 36.5648 139.85C37.3047 139.351 38.3035 139.542 38.8037 140.277C39.3039 141.013 39.1123 142.016 38.3766 142.515C36.1306 144.041 33.9571 145.725 31.9144 147.52C31.7293 147.683 31.5174 147.794 31.2958 147.858ZM45.1223 138.459C44.3964 138.668 43.601 138.341 43.2447 137.644C42.8394 136.852 43.1532 135.881 43.9453 135.475C46.4763 134.18 49.1216 133.028 51.8085 132.048C52.6514 131.756 53.5708 132.175 53.8746 133.011C54.1793 133.847 53.7484 134.772 52.9126 135.077C50.349 136.01 47.8259 137.11 45.4128 138.344C45.3179 138.393 45.2206 138.431 45.1223 138.459ZM69.1116 131.356C69.0224 131.382 68.9286 131.4 68.8323 131.41C66.4958 131.654 64.1315 132.03 61.8047 132.528C61.4519 132.602 61.1063 132.678 60.7626 132.758C59.8949 132.959 59.0296 132.42 58.8288 131.552C58.6261 130.684 59.1656 129.792 60.034 129.618C60.4011 129.534 60.7679 129.452 61.1379 129.374C63.569 128.855 66.0474 128.46 68.4979 128.205C69.3833 128.113 70.1752 128.755 70.2675 129.64C70.3499 130.429 69.8488 131.144 69.1116 131.356Z" fill="url(#paint9_linear_255_3276)"/>
</g>
<g opacity="0.3">
<path d="M95.807 264.057C94.9616 264.299 94.0748 263.817 93.8199 262.972C93.5631 262.121 94.0454 261.221 94.8977 260.965C97.463 260.192 100.003 259.256 102.447 258.183C103.26 257.834 104.213 258.194 104.571 259.01C104.929 259.826 104.557 260.776 103.743 261.134C101.18 262.258 98.5175 263.24 95.8285 264.05C95.8214 264.053 95.8139 264.055 95.807 264.057ZM87.7852 265.956C87.7292 265.973 87.6732 265.985 87.6147 265.996C84.8512 266.478 82.0302 266.797 79.2306 266.945C78.3416 266.991 77.5837 266.31 77.5371 265.421C77.4893 264.531 78.1775 263.775 79.0606 263.726C81.7324 263.586 84.4239 263.281 87.0614 262.821C87.9374 262.668 88.7725 263.255 88.9251 264.131C89.0682 264.951 88.5655 265.732 87.7852 265.956ZM110.87 257.438C110.183 257.635 109.424 257.356 109.041 256.712C108.587 255.949 108.837 254.96 109.602 254.505C111.905 253.133 114.144 251.61 116.257 249.977C116.965 249.435 117.973 249.563 118.517 250.268C119.061 250.971 118.931 251.984 118.227 252.528C116.013 254.24 113.665 255.836 111.25 257.273C111.128 257.346 111 257.4 110.87 257.438ZM71.3449 266.811C71.1688 266.862 70.9809 266.883 70.7872 266.87C67.9869 266.674 65.1704 266.303 62.4171 265.766C61.5433 265.596 60.9733 264.749 61.1432 263.875C61.3139 263.004 62.1601 262.434 63.0329 262.602C65.6585 263.114 68.3429 263.467 71.0131 263.655C71.9005 263.718 72.5702 264.488 72.5077 265.376C72.4586 266.069 71.977 266.63 71.3449 266.811ZM123.885 247.375C123.337 247.532 122.722 247.393 122.293 246.959C121.667 246.326 121.673 245.306 122.306 244.68C124.208 242.801 126.015 240.786 127.675 238.688C128.229 237.989 129.242 237.873 129.94 238.425C130.637 238.978 130.755 239.992 130.202 240.69C128.459 242.888 126.566 245.002 124.572 246.973C124.373 247.169 124.136 247.303 123.885 247.375ZM134.107 234.483C133.688 234.603 133.221 234.554 132.82 234.309C132.061 233.844 131.822 232.852 132.287 232.093C133.686 229.807 134.959 227.416 136.07 224.988C136.441 224.177 137.398 223.822 138.206 224.193C139.016 224.563 139.371 225.518 139.001 226.327C137.836 228.873 136.502 231.38 135.036 233.776C134.817 234.133 134.481 234.376 134.107 234.483ZM140.947 219.512C140.652 219.597 140.33 219.599 140.015 219.498C139.167 219.229 138.698 218.323 138.967 217.474C139.78 214.921 140.442 212.294 140.935 209.669C141.1 208.797 141.942 208.219 142.816 208.384C143.691 208.549 144.266 209.39 144.102 210.266C143.584 213.018 142.891 215.773 142.039 218.452C141.869 218.985 141.447 219.368 140.947 219.512Z" fill="url(#paint10_linear_255_3276)"/>
<path d="M55.1137 263.646C54.8149 263.732 54.4885 263.732 54.1705 263.629C52.8591 263.201 51.5549 262.733 50.2926 262.237C49.4649 261.912 49.0562 260.977 49.3812 260.148C49.7082 259.322 50.6418 258.913 51.4707 259.237C52.674 259.71 53.9189 260.156 55.1699 260.565C56.0161 260.841 56.4781 261.751 56.2021 262.596C56.0297 263.124 55.6106 263.503 55.1137 263.646Z" fill="url(#paint11_linear_255_3276)"/>
</g>
<path d="M50.6526 243.268C50.9384 243.466 51.3191 243.462 51.5998 243.256L59.6121 237.389C63.9248 239.094 68.5405 240.124 73.3069 240.369L78.1589 249.027C78.329 249.33 78.6731 249.492 79.0156 249.431L90.7377 247.313C91.0805 247.251 91.3459 246.978 91.3992 246.634L92.9147 236.826C97.2941 234.929 101.258 232.349 104.701 229.242L114.26 231.935C114.595 232.029 114.953 231.9 115.151 231.614L121.942 221.828C122.141 221.542 122.136 221.162 121.93 220.881L116.063 212.869C117.768 208.556 118.798 203.94 119.043 199.174L127.701 194.322C128.005 194.152 128.167 193.808 128.105 193.465L125.987 181.743C125.925 181.4 125.653 181.135 125.309 181.082L115.501 179.566C113.603 175.187 111.023 171.223 107.916 167.78L110.609 158.221C110.703 157.886 110.575 157.528 110.289 157.329L100.502 150.538C100.216 150.34 99.8361 150.345 99.5553 150.55L91.543 156.418C87.2304 154.712 82.6147 153.682 77.8482 153.437L72.9962 144.779C72.8261 144.476 72.4822 144.313 72.1395 144.375L60.4172 146.493C60.0747 146.555 59.8092 146.828 59.7559 147.172L58.2404 156.98C53.861 158.877 49.8973 161.457 46.454 164.564L36.8954 161.871C36.5604 161.777 36.2021 161.906 36.0038 162.191L29.2127 171.978C29.0144 172.264 29.019 172.644 29.2248 172.925L35.0921 180.937C33.3865 185.25 32.3566 189.866 32.1117 194.632L23.4539 199.484C23.1505 199.654 22.9881 199.998 23.0502 200.341L25.1679 212.063C25.2301 212.405 25.5022 212.671 25.8463 212.724L35.6544 214.24C37.5519 218.619 40.1318 222.583 43.2386 226.026L40.5459 235.585C40.4515 235.92 40.5802 236.278 40.866 236.476L50.6526 243.268Z" fill="url(#paint12_linear_255_3276)"/>
<path opacity="0.56" d="M78.9177 208.627C76.4193 209.345 73.7672 209.244 71.2898 208.313C68.2423 207.168 65.8229 204.905 64.4777 201.939C61.7005 195.822 64.4192 188.583 70.5389 185.804C76.672 183.034 83.8989 185.747 86.6758 191.867C88.0217 194.832 88.1322 198.143 86.9868 201.19C85.8423 204.238 83.5786 206.658 80.6128 208.003C80.059 208.254 79.4919 208.462 78.9177 208.627ZM73.1063 188.284C72.6896 188.403 72.2773 188.555 71.8707 188.739C67.3695 190.783 65.3695 196.107 67.4126 200.609C68.4022 202.789 70.1816 204.455 72.423 205.296C74.6658 206.139 77.1001 206.055 79.2822 205.068C81.4628 204.078 83.1283 202.299 83.9702 200.058C84.8126 197.815 84.7312 195.379 83.7411 193.198C81.883 189.103 77.3072 187.077 73.1063 188.284Z" fill="white"/>
<path opacity="0.56" d="M84.1081 225.853C83.1281 226.135 82.126 226.369 81.1023 226.555C79.069 226.923 76.9959 227.084 74.936 227.034C74.8435 227.031 74.7509 227.028 74.6583 227.025C73.9425 227.002 73.3516 226.515 73.1633 225.862C73.1177 225.703 73.0962 225.534 73.1019 225.361C73.1315 224.471 73.8787 223.779 74.7664 223.805C76.6893 223.87 78.6277 223.728 80.5279 223.383L80.5286 223.383C80.633 223.364 80.7377 223.344 80.8409 223.324C85.3308 222.469 89.4373 220.526 92.8808 217.703C94.7499 216.171 96.4236 214.377 97.8553 212.353C97.867 212.337 97.8785 212.32 97.8902 212.304C97.9255 212.253 97.9612 212.203 97.9957 212.152C102.127 206.198 103.693 198.992 102.404 191.86C102.238 190.937 102.026 190.03 101.771 189.141C100.051 183.158 96.3571 177.991 91.1733 174.393C85.219 170.262 78.0126 168.697 70.8818 169.986C63.7556 171.276 57.5471 175.263 53.4145 181.216C49.2833 187.17 47.717 194.377 49.0056 201.509C49.1688 202.416 49.3788 203.312 49.6316 204.192C50.7288 208.01 52.6484 211.543 55.2657 214.534C55.4268 214.718 55.5388 214.929 55.6015 215.15C55.7683 215.73 55.5998 216.383 55.1142 216.807C54.4429 217.391 53.427 217.326 52.8396 216.655C49.9112 213.308 47.7628 209.354 46.5348 205.085C46.2515 204.099 46.017 203.097 45.8336 202.082C44.392 194.102 46.1441 186.04 50.7671 179.378C55.3899 172.718 62.3239 168.25 70.3078 166.814C78.2867 165.371 86.3489 167.123 93.0104 171.747C98.81 175.77 102.943 181.551 104.866 188.245C105.152 189.239 105.389 190.255 105.576 191.286C108.367 206.734 98.8831 221.61 84.1081 225.853Z" fill="white"/>
<path d="M304.863 455.469C304.693 453.357 302.536 451.529 298.883 450.064C302.852 447.875 305.048 445.529 304.863 443.228C304.302 436.266 282.253 432.363 255.617 434.511C228.98 436.658 207.842 444.043 208.404 451.005C208.573 453.117 210.731 454.945 214.383 456.41C210.414 458.599 208.218 460.945 208.404 463.246C208.573 465.357 210.731 467.185 214.383 468.651C210.414 470.84 208.218 473.186 208.404 475.487C208.573 477.598 210.731 479.426 214.383 480.891C210.414 483.08 208.218 485.426 208.404 487.727C208.652 490.806 213.108 493.285 220.3 494.909C220.207 497.185 220.259 499.679 220.483 502.432C221.525 515.261 235.955 525.32 255.041 525.32C274.128 525.32 290.646 511.605 290.834 498.735C290.88 495.581 290.746 492.805 290.46 490.337C299.592 487.288 305.154 483.563 304.863 479.95C304.693 477.838 302.536 476.01 298.883 474.545C302.853 472.356 305.048 470.01 304.863 467.709C304.693 465.598 302.536 463.77 298.883 462.305C302.853 460.115 305.048 457.769 304.863 455.469Z" fill="#07BAEE"/>
<path d="M243.292 497.68C235.381 497.68 228.143 497.098 222.162 495.952C221.815 495.886 221.588 495.551 221.654 495.204C221.72 494.857 222.054 494.629 222.403 494.696C231.761 496.488 244.26 496.883 257.599 495.807C268.513 494.927 278.72 493.167 287.115 490.716C287.456 490.617 287.81 490.812 287.909 491.151C288.008 491.49 287.813 491.845 287.474 491.944C278.996 494.419 268.7 496.195 257.701 497.082C252.747 497.482 247.905 497.68 243.292 497.68Z" fill="url(#paint13_linear_255_3276)"/>
<path d="M243.424 485.428C233.146 485.428 223.961 484.461 217.482 482.616C217.143 482.519 216.946 482.166 217.042 481.826C217.139 481.486 217.492 481.289 217.833 481.386C227.065 484.014 241.93 484.829 257.598 483.566C273.097 482.317 287.551 479.172 296.263 475.153C296.584 475.006 296.964 475.146 297.112 475.466C297.26 475.787 297.12 476.168 296.799 476.315C287.957 480.393 273.341 483.581 257.701 484.842C252.82 485.235 248.013 485.428 243.424 485.428Z" fill="url(#paint14_linear_255_3276)"/>
<path d="M243.293 473.196C232.196 473.196 222.484 472.061 215.948 469.906C215.612 469.795 215.43 469.433 215.54 469.098C215.651 468.762 216.011 468.58 216.348 468.69C225.444 471.69 240.865 472.675 257.598 471.326C273.095 470.076 287.55 466.931 296.263 462.912C296.584 462.765 296.964 462.905 297.112 463.226C297.26 463.546 297.12 463.927 296.799 464.075C287.956 468.152 273.34 471.34 257.701 472.601C252.745 473.001 247.899 473.196 243.293 473.196Z" fill="url(#paint15_linear_255_3276)"/>
<path d="M243.379 460.95C234.576 460.95 226.57 460.238 220.345 458.855C220 458.779 219.782 458.437 219.859 458.092C219.936 457.747 220.279 457.529 220.622 457.606C229.982 459.686 243.46 460.225 257.599 459.085C272.958 457.847 287.339 454.736 296.067 450.763C296.388 450.615 296.767 450.758 296.914 451.08C297.06 451.401 296.918 451.781 296.596 451.927C287.741 455.958 273.201 459.111 257.702 460.36C252.804 460.756 247.983 460.95 243.379 460.95Z" fill="url(#paint16_linear_255_3276)"/>
<path d="M190.526 393.681C187.291 382.222 181.796 371.514 174.395 362.187C158.538 342.202 132.669 301.559 129.485 246.087C124.854 165.402 196.412 125.007 261.71 130.491C327.008 135.975 391.441 184.594 384.387 259.656C380.047 305.842 354.197 340.874 334.949 360.993C322.727 373.768 314.009 389.416 309.29 406.455C303.513 427.31 289.767 453.299 257.095 454.883C214.817 456.933 197.258 417.526 190.526 393.681Z" fill="url(#paint17_linear_255_3276)"/>
<path d="M267.895 438.793L290.743 290.189C291.214 287.119 292.725 285.057 294.117 285.584C295.509 286.111 296.254 289.027 295.782 292.097C295.77 292.179 295.753 292.28 295.739 292.36L269.713 439.583C269.518 440.69 268.955 441.389 268.458 441.145C267.975 440.908 267.731 439.865 267.895 438.793Z" fill="url(#paint18_linear_255_3276)"/>
<path d="M244.178 439.973L221.33 291.369C220.858 288.299 219.347 286.238 217.956 286.764C216.564 287.291 215.818 290.207 216.29 293.277C216.303 293.359 216.32 293.46 216.334 293.54L242.359 440.763C242.555 441.871 243.117 442.57 243.615 442.325C244.098 442.088 244.342 441.045 244.178 439.973Z" fill="url(#paint19_linear_255_3276)"/>
<path d="M290.578 277.43C289.998 276.497 288.655 276.149 287.579 276.652L274.857 282.596L270.441 270.013C270.207 269.357 269.666 268.775 268.894 268.457C267.43 267.854 265.68 268.393 264.984 269.662L264.962 269.703L254.499 288.779L244.791 261.623L244.775 261.578C244.537 260.915 244.036 260.319 243.305 259.921C241.677 259.032 239.526 259.455 238.501 260.867L223.874 281.002C223.279 281.828 223.484 282.933 224.39 283.543C225.356 284.195 226.749 284.043 227.5 283.205L240.379 268.839L251.974 294.673L251.983 294.693C252.169 295.106 252.519 295.467 253.005 295.694C254.093 296.203 255.451 295.852 256.039 294.909L267.228 276.953L271.44 286.034L271.477 286.115C271.508 286.18 271.542 286.245 271.582 286.308C272.161 287.24 273.503 287.589 274.578 287.086L289.68 280.03C290.756 279.527 291.158 278.363 290.578 277.43Z" fill="white"/>
<path d="M335.447 343.029C334.598 343.029 333.742 342.767 333.009 342.223C331.194 340.876 330.815 338.312 332.162 336.496C336.026 331.289 339.567 325.911 342.686 320.511C343.816 318.553 346.319 317.883 348.277 319.013C350.236 320.143 350.906 322.647 349.775 324.604C346.5 330.277 342.786 335.919 338.737 341.375C337.933 342.458 336.698 343.029 335.447 343.029Z" fill="white"/>
<path d="M354.243 310.773C353.699 310.773 353.146 310.664 352.614 310.433C350.541 309.532 349.589 307.122 350.49 305.047C374.422 249.93 353.819 203.746 353.607 203.285C352.665 201.23 353.567 198.801 355.623 197.857C357.683 196.918 360.11 197.819 361.05 199.873C361.973 201.887 383.373 249.872 358 308.308C357.33 309.851 355.824 310.773 354.243 310.773Z" fill="white"/>
<g opacity="0.3">
<path d="M350.202 144.598C351.03 144.08 352.132 144.26 352.747 145.046C354.092 146.764 355.382 148.566 356.581 150.402C357.165 151.295 356.914 152.492 356.021 153.075C356.01 153.082 355.999 153.089 355.989 153.095C355.1 153.653 353.924 153.397 353.347 152.515C352.208 150.771 350.982 149.059 349.705 147.427C349.048 146.587 349.195 145.372 350.036 144.715C350.09 144.673 350.146 144.634 350.202 144.598ZM359.03 158.924C359.094 158.884 359.161 158.847 359.231 158.814C360.196 158.357 361.347 158.769 361.804 159.733C362.741 161.714 363.602 163.754 364.364 165.797C364.737 166.797 364.232 167.905 363.229 168.283C362.23 168.655 361.117 168.146 360.745 167.148C360.021 165.206 359.202 163.268 358.311 161.385C357.888 160.491 358.212 159.436 359.03 158.924ZM364.484 174.836C364.666 174.722 364.871 174.637 365.093 174.588C366.135 174.358 367.166 175.016 367.396 176.057C367.868 178.192 368.253 180.374 368.54 182.543C368.679 183.601 367.934 184.571 366.878 184.712C365.821 184.851 364.85 184.107 364.71 183.05C364.438 180.99 364.072 178.918 363.624 176.891C363.443 176.071 363.812 175.258 364.484 174.836ZM366.243 191.573C366.544 191.384 366.901 191.277 367.283 191.28C368.349 191.288 369.207 192.16 369.199 193.226C369.181 195.414 369.068 197.628 368.864 199.805C368.763 200.866 367.822 201.647 366.76 201.548C365.698 201.448 364.918 200.506 365.018 199.444C365.212 197.376 365.319 195.274 365.335 193.195C365.341 192.51 365.703 191.912 366.243 191.573ZM364.226 208.281C364.648 208.016 365.172 207.914 365.695 208.038C366.734 208.283 367.376 209.324 367.131 210.361C366.629 212.486 366.03 214.619 365.348 216.7C365.017 217.714 363.926 218.267 362.912 217.935C361.899 217.603 361.346 216.512 361.677 215.498C362.325 213.52 362.895 211.492 363.372 209.474C363.493 208.959 363.81 208.541 364.226 208.281ZM358.563 224.125C359.11 223.783 359.816 223.721 360.439 224.026C361.397 224.495 361.794 225.651 361.326 226.61C360.365 228.573 359.308 230.521 358.184 232.397C357.636 233.312 356.45 233.609 355.534 233.061C354.62 232.513 354.322 231.326 354.871 230.411C355.938 228.629 356.943 226.779 357.855 224.913C358.019 224.576 358.268 224.31 358.563 224.125ZM301.026 265.598C301.253 265.456 301.512 265.36 301.794 265.322C303.851 265.046 305.924 264.677 307.954 264.225C308.995 263.992 310.027 264.648 310.259 265.689C310.491 266.73 309.836 267.762 308.794 267.995C306.656 268.471 304.473 268.86 302.307 269.151C301.25 269.292 300.278 268.55 300.137 267.493C300.032 266.717 300.404 265.988 301.026 265.598ZM349.536 238.312C350.215 237.886 351.116 237.915 351.775 238.446C352.605 239.116 352.735 240.332 352.065 241.162C350.692 242.864 349.228 244.526 347.714 246.103C346.971 246.869 345.752 246.898 344.982 246.159C344.213 245.421 344.188 244.198 344.927 243.428C346.365 241.93 347.755 240.352 349.059 238.736C349.198 238.565 349.359 238.423 349.536 238.312ZM317.345 261.498C317.453 261.431 317.569 261.372 317.693 261.326C319.637 260.597 321.575 259.773 323.454 258.88C324.418 258.422 325.57 258.832 326.028 259.795C326.486 260.759 326.079 261.915 325.113 262.369C323.136 263.309 321.096 264.175 319.051 264.943C318.052 265.318 316.938 264.812 316.564 263.813C316.235 262.939 316.582 261.976 317.345 261.498ZM337.566 250.126C338.392 249.609 339.493 249.787 340.108 250.571C340.767 251.41 340.621 252.624 339.783 253.283C338.066 254.633 336.267 255.926 334.436 257.126C334.425 257.134 334.413 257.141 334.402 257.149C333.514 257.705 332.34 257.451 331.762 256.571C331.177 255.679 331.425 254.482 332.318 253.897C334.056 252.756 335.765 251.527 337.396 250.245C337.451 250.202 337.508 250.162 337.566 250.126Z" fill="url(#paint20_linear_255_3276)"/>
<path d="M287.476 266.175C287.798 265.973 288.183 265.864 288.592 265.884C289.587 265.932 290.599 265.959 291.601 265.967C292.668 265.975 293.527 266.846 293.518 267.912C293.511 268.979 292.64 269.839 291.573 269.829C290.519 269.822 289.454 269.793 288.407 269.743C287.342 269.691 286.519 268.786 286.571 267.721C286.602 267.064 286.958 266.5 287.476 266.175Z" fill="url(#paint21_linear_255_3276)"/>
</g>
<g opacity="0.3">
<path d="M234.429 240.606C235.219 240.111 236.274 240.248 236.907 240.972C237.562 241.722 238.245 242.471 238.935 243.197C239.669 243.97 239.638 245.193 238.865 245.928C238.088 246.665 236.868 246.631 236.134 245.858C235.408 245.093 234.689 244.305 233.999 243.515C233.297 242.712 233.379 241.492 234.181 240.79C234.26 240.721 234.344 240.66 234.429 240.606Z" fill="url(#paint22_linear_255_3276)"/>
<path d="M251.019 127.333C251.772 126.861 252.536 126.4 253.311 125.951C254.234 125.415 255.416 125.729 255.951 126.651C256.487 127.574 256.171 128.762 255.251 129.292C253.463 130.33 251.722 131.438 250.056 132.599C249.179 133.208 247.977 132.994 247.367 132.119C246.756 131.244 246.972 130.04 247.847 129.43C248.877 128.711 249.945 128.006 251.019 127.333ZM262.459 121.445C262.551 121.388 262.649 121.338 262.752 121.295C264.745 120.475 266.795 119.73 268.844 119.082C269.861 118.76 270.947 119.323 271.268 120.34C271.59 121.357 271.026 122.446 270.009 122.764C268.062 123.38 266.115 124.088 264.221 124.867C263.235 125.273 262.106 124.802 261.701 123.816C261.337 122.933 261.676 121.936 262.459 121.445ZM239.931 135.806C240.703 135.323 241.733 135.441 242.373 136.134C243.097 136.918 243.049 138.14 242.265 138.864C240.766 140.248 239.306 141.715 237.925 143.227C237.205 144.013 235.984 144.069 235.197 143.35C234.409 142.63 234.354 141.408 235.074 140.62C236.528 139.029 238.065 137.484 239.644 136.025C239.734 135.942 239.831 135.869 239.931 135.806ZM278.377 116.868C278.584 116.738 278.821 116.646 279.077 116.602C281.2 116.24 283.363 115.964 285.507 115.783C286.57 115.693 287.504 116.482 287.594 117.544C287.684 118.608 286.896 119.542 285.833 119.632C283.797 119.804 281.742 120.066 279.726 120.409C278.675 120.589 277.677 119.882 277.498 118.83C277.362 118.036 277.733 117.271 278.377 116.868ZM229.093 148.312C229.726 147.916 230.56 147.908 231.215 148.358C232.094 148.964 232.316 150.166 231.71 151.045C230.553 152.724 229.452 154.478 228.436 156.255C227.907 157.181 226.727 157.504 225.801 156.974C224.875 156.445 224.553 155.265 225.082 154.339C226.151 152.468 227.311 150.622 228.529 148.854C228.683 148.63 228.876 148.448 229.093 148.312ZM221.261 162.894C221.767 162.577 222.413 162.498 223.009 162.738C223.999 163.136 224.478 164.261 224.079 165.251C223.316 167.149 222.622 169.101 222.02 171.053C221.706 172.073 220.625 172.644 219.605 172.329C218.585 172.014 218.014 170.933 218.329 169.913C218.963 167.859 219.692 165.805 220.497 163.808C220.655 163.415 220.928 163.103 221.261 162.894ZM216.795 178.835C217.18 178.594 217.65 178.487 218.134 178.567C219.186 178.74 219.899 179.734 219.726 180.787C219.392 182.807 219.141 184.863 218.978 186.899C218.893 187.962 217.963 188.755 216.898 188.67C215.835 188.585 215.042 187.654 215.127 186.591C215.299 184.449 215.563 182.284 215.914 180.158C216.008 179.589 216.342 179.12 216.795 178.835ZM215.911 195.371C216.178 195.204 216.489 195.1 216.826 195.08C217.891 195.02 218.803 195.833 218.864 196.898C218.98 198.942 219.185 201.002 219.474 203.024C219.624 204.08 218.889 205.059 217.835 205.209C216.778 205.36 215.8 204.626 215.65 203.57C215.346 201.44 215.13 199.27 215.007 197.119C214.966 196.39 215.334 195.733 215.911 195.371ZM218.681 211.703C218.831 211.609 218.997 211.535 219.175 211.484C220.2 211.189 221.27 211.782 221.564 212.807C222.127 214.77 222.781 216.734 223.509 218.646C223.888 219.643 223.384 220.759 222.39 221.138C221.393 221.517 220.277 221.016 219.898 220.019C219.132 218.006 218.443 215.939 217.851 213.873C217.608 213.026 217.97 212.149 218.681 211.703ZM224.966 227.018C225 226.997 225.035 226.977 225.07 226.957C226.006 226.447 227.179 226.793 227.689 227.73C228.41 229.052 229.179 230.368 229.977 231.641C230.266 232.102 230.56 232.559 230.857 233.011C231.443 233.903 231.195 235.101 230.303 235.686C229.412 236.297 228.215 236.024 227.629 235.133C227.316 234.657 227.008 234.177 226.704 233.692C225.865 232.353 225.055 230.968 224.298 229.577C223.806 228.676 224.108 227.555 224.966 227.018Z" fill="url(#paint23_linear_255_3276)"/>
<path d="M294.956 115.911C295.282 115.708 295.67 115.598 296.082 115.62C297.127 115.675 298.19 115.754 299.241 115.853C300.304 115.954 301.083 116.896 300.983 117.958C300.882 119.02 299.941 119.8 298.878 119.699C297.879 119.605 296.869 119.53 295.878 119.477C294.813 119.421 293.995 118.512 294.052 117.447C294.086 116.794 294.441 116.234 294.956 115.911Z" fill="url(#paint24_linear_255_3276)"/>
</g>
<path d="M304.643 136.28C304.279 136.157 303.875 136.278 303.64 136.583L296.914 145.271C291.807 144.776 286.584 145.092 281.441 146.289L273.636 138.566C273.362 138.295 272.946 138.228 272.601 138.399L260.784 144.234C260.439 144.405 260.24 144.776 260.289 145.158L261.676 156.05C257.599 159.406 254.173 163.361 251.462 167.717L240.475 167.777C240.09 167.779 239.748 168.025 239.625 168.39L235.395 180.872C235.272 181.236 235.393 181.639 235.698 181.875L244.386 188.601C243.891 193.708 244.207 198.931 245.404 204.074L237.681 211.88C237.411 212.153 237.343 212.569 237.514 212.914L243.349 224.731C243.52 225.076 243.891 225.275 244.273 225.227L255.165 223.84C258.522 227.916 262.476 231.342 266.833 234.053L266.892 245.041C266.894 245.425 267.14 245.767 267.505 245.891L279.987 250.12C280.352 250.243 280.755 250.122 280.99 249.818L287.716 241.129C292.823 241.624 298.046 241.308 303.189 240.111L310.995 247.834C311.269 248.105 311.684 248.172 312.029 248.002L323.846 242.166C324.192 241.995 324.391 241.625 324.342 241.242L322.955 230.35C327.032 226.994 330.457 223.039 333.169 218.682L344.156 218.624C344.541 218.622 344.882 218.375 345.006 218.011L349.235 205.528C349.359 205.164 349.237 204.761 348.933 204.525L340.245 197.799C340.74 192.692 340.423 187.469 339.227 182.326L346.949 174.52C347.22 174.247 347.288 173.831 347.117 173.486L341.281 161.669C341.111 161.324 340.74 161.125 340.358 161.173L329.466 162.56C326.109 158.484 322.154 155.058 317.798 152.347L317.739 141.359C317.737 140.974 317.491 140.633 317.126 140.509L304.643 136.28Z" fill="url(#paint25_linear_255_3276)"/>
<path opacity="0.56" d="M285.287 181.968C290.76 178.54 298.082 179.548 302.394 184.605C307.134 190.164 306.467 198.541 300.908 203.28C298.216 205.577 294.79 206.686 291.263 206.405C287.736 206.125 284.529 204.487 282.233 201.794C277.494 196.235 278.161 187.858 283.719 183.119C284.22 182.692 284.745 182.308 285.287 181.968ZM297.689 201.82C298.111 201.555 298.517 201.258 298.903 200.929C303.165 197.295 303.676 190.872 300.043 186.61C296.409 182.348 289.985 181.834 285.724 185.47C281.462 189.104 280.951 195.528 284.584 199.789C286.345 201.854 288.803 203.109 291.508 203.325C293.706 203.499 295.853 202.97 297.689 201.82Z" fill="white"/>
<path opacity="0.56" d="M274.9 165.898C275.84 165.309 276.815 164.764 277.823 164.266C278.14 164.109 278.46 163.957 278.782 163.811C280.371 163.089 282.015 162.495 283.688 162.037C283.711 162.03 283.734 162.024 283.756 162.018C283.821 162 283.886 161.983 283.951 161.966C284.077 161.932 284.204 161.9 284.33 161.868C284.663 161.784 285 161.931 285.173 162.207C285.215 162.274 285.248 162.349 285.268 162.429C285.372 162.843 285.12 163.262 284.707 163.367C282.578 163.902 280.492 164.671 278.508 165.652C268.648 170.518 262.518 179.957 261.405 190.153C260.785 195.823 261.718 201.728 264.426 207.211C264.901 208.173 265.42 209.103 265.982 210C269.763 216.032 275.455 220.544 282.289 222.859C290.139 225.519 298.554 224.962 305.985 221.293C321.331 213.712 327.642 195.072 320.067 179.733C319.6 178.787 319.087 177.868 318.53 176.981C316.118 173.133 312.891 169.855 309.069 167.394C308.971 167.331 308.891 167.249 308.833 167.155C308.679 166.91 308.671 166.587 308.838 166.327C309.07 165.969 309.547 165.863 309.906 166.096C313.919 168.679 317.307 172.12 319.839 176.16C320.423 177.092 320.962 178.056 321.452 179.048C329.406 195.154 322.769 214.727 306.67 222.678C298.869 226.531 290.034 227.115 281.793 224.322C274.619 221.892 268.643 217.156 264.674 210.823C264.085 209.882 263.539 208.905 263.04 207.896C259.188 200.094 258.604 191.26 261.396 183.019C263.827 175.843 268.565 169.866 274.9 165.898Z" fill="white"/>
<path d="M144.7 530.938C145.741 530.938 146.584 530.095 146.584 529.054V299.313C146.584 298.272 145.741 297.429 144.7 297.429C143.66 297.429 142.816 298.272 142.816 299.313V529.054C142.816 530.095 143.66 530.938 144.7 530.938Z" fill="url(#paint26_linear_255_3276)"/>
<path d="M183.069 530.938C184.11 530.938 184.953 530.095 184.953 529.054V299.313C184.953 298.272 184.11 297.429 183.069 297.429C182.029 297.429 181.186 298.272 181.186 299.313V529.054C181.186 530.095 182.029 530.938 183.069 530.938Z" fill="url(#paint27_linear_255_3276)"/>
<path d="M26.1061 530.362C25.6944 530.362 25.2819 530.261 24.913 530.07C23.6417 529.41 23.1438 527.84 23.8028 526.569L141.181 300.181C141.839 298.91 143.41 298.411 144.681 299.07C145.952 299.729 146.45 301.3 145.791 302.571L28.4133 528.959C27.9649 529.824 27.0808 530.362 26.1061 530.362Z" fill="url(#paint28_linear_255_3276)"/>
<path d="M81.7924 532.25C81.4351 532.25 81.0868 532.177 80.7571 532.034C80.1213 531.757 79.631 531.249 79.3772 530.604C79.1231 529.958 79.1356 529.252 79.4125 528.616L179.74 298.097C180.311 296.785 181.844 296.181 183.157 296.752C184.47 297.323 185.073 298.857 184.502 300.17L84.1745 530.689C83.7618 531.637 82.8267 532.25 81.7924 532.25Z" fill="url(#paint29_linear_255_3276)"/>
<path d="M163.163 344.051H122.469C121.573 344.051 120.846 343.324 120.846 342.428C120.846 341.531 121.572 340.805 122.469 340.805H163.163C164.059 340.805 164.786 341.531 164.786 342.428C164.786 343.324 164.059 344.051 163.163 344.051Z" fill="url(#paint30_linear_255_3276)"/>
<path d="M152.288 369.261H111.594C110.697 369.261 109.971 368.534 109.971 367.638C109.971 366.742 110.697 366.015 111.594 366.015H152.288C153.185 366.015 153.911 366.742 153.911 367.638C153.911 368.534 153.185 369.261 152.288 369.261Z" fill="url(#paint31_linear_255_3276)"/>
<path d="M137.947 399.447H94.6621C93.7657 399.447 93.0391 398.721 93.0391 397.825C93.0391 396.928 93.7657 396.202 94.6621 396.202H137.947C138.843 396.202 139.57 396.928 139.57 397.825C139.57 398.721 138.844 399.447 137.947 399.447Z" fill="url(#paint32_linear_255_3276)"/>
<path d="M173.977 319.598H135.152C134.256 319.598 133.529 318.872 133.529 317.975C133.529 317.079 134.256 316.352 135.152 316.352H173.977C174.874 316.352 175.6 317.079 175.6 317.975C175.6 318.871 174.874 319.598 173.977 319.598Z" fill="url(#paint33_linear_255_3276)"/>
<path d="M123.665 434.179H76.6329C75.7364 434.179 75.0098 433.453 75.0098 432.556C75.0098 431.66 75.7364 430.933 76.6329 430.933H123.665C124.561 430.933 125.288 431.66 125.288 432.556C125.288 433.453 124.561 434.179 123.665 434.179Z" fill="url(#paint34_linear_255_3276)"/>
<path d="M112.615 461.12H62.1678C61.2716 461.12 60.5449 460.393 60.5449 459.497C60.5449 458.601 61.2716 457.874 62.1678 457.874H112.615C113.511 457.874 114.238 458.6 114.238 459.497C114.237 460.393 113.511 461.12 112.615 461.12Z" fill="url(#paint35_linear_255_3276)"/>
<path d="M198.791 225.687C198.791 225.687 200.55 223.798 203.805 224.391C207.06 224.985 209.958 226.116 211.986 224.391C214.014 222.667 214.727 224.981 214.727 224.981L208.654 229.598L198.791 225.687Z" fill="url(#paint36_linear_255_3276)"/>
<path d="M102.695 428.366C97.5001 423.843 86.338 420.221 86.338 420.221L79.6223 420.368C77.9179 422.285 77.1473 426.001 76.8184 428.33C78.0828 429.088 80.4525 429.752 84.7976 429.959C92.843 430.342 99.3359 429.166 102.695 428.366Z" fill="url(#paint37_linear_255_3276)"/>
<path d="M102.694 428.366C99.3351 429.166 92.8422 430.342 84.797 429.959C80.4519 429.752 78.0822 429.089 76.8177 428.331C76.7913 428.518 76.7667 428.699 76.7458 428.866C76.6261 429.822 77.2172 430.719 78.1378 431.002C84.2724 432.882 97.7651 432.277 103.026 431.951C104.151 431.881 104.738 430.562 104.017 429.695C103.643 429.245 103.195 428.802 102.694 428.366Z" fill="url(#paint38_linear_255_3276)"/>
<path d="M80.1699 414.57V419.911C80.1699 420.939 80.8864 421.825 81.8918 422.042C82.9324 422.267 84.3131 422.411 85.6531 422.079C86.491 421.872 87.1047 421.151 87.2056 420.294L87.8803 414.57L80.1699 414.57Z" fill="url(#paint39_linear_255_3276)"/>
<path d="M114.131 387.208C112.047 382.57 112.643 380.485 108.519 380.946C108.023 381.002 107.611 381.098 107.264 381.221C107.003 381.987 106.987 382.834 107.266 383.637C108.309 386.638 110.488 391.764 114.487 396.811C115.327 397.871 116.612 398.486 117.965 398.509L122.513 398.585C118.2 395.138 115.859 391.056 114.131 387.208Z" fill="url(#paint40_linear_255_3276)"/>
<path d="M122.801 391.708C119.311 389.251 118.008 379.215 118.008 379.215L112.629 376.477L108.573 379.416C107.945 379.882 107.502 380.518 107.264 381.221C107.611 381.097 108.023 381.001 108.519 380.946C112.643 380.484 112.047 382.57 114.131 387.208C115.859 391.056 118.2 395.137 122.513 398.584L125.638 398.637C127.043 398.66 127.854 397.056 127.002 395.939C125.934 394.538 124.474 392.886 122.801 391.708Z" fill="url(#paint41_linear_255_3276)"/>
<path d="M115.875 371.424L112.627 376.476C112.217 377.115 112.356 377.96 112.953 378.429C113.994 379.247 115.797 380.163 118.007 379.215L123.224 375.639L115.875 371.424Z" fill="url(#paint42_linear_255_3276)"/>
<path d="M91.4966 318.103C91.4966 318.103 89.7886 322.917 87.3103 339.831C84.8321 356.745 83.2023 369.045 81.8511 375.752C80.6156 381.886 78.6677 403.977 78.7822 413.639C78.7975 414.937 79.8696 415.97 81.1672 415.93L87.5587 415.73C88.5456 415.699 89.3735 414.981 89.5391 414.008C91.2302 404.061 102.922 352.737 109.971 337.973C109.971 337.973 128.726 343.274 133.402 345.407C133.402 345.407 127.357 347.827 114.968 371.053C114.968 371.053 120.318 375.304 124.108 376.19C124.108 376.19 151.219 353.704 154.083 351.351C156.948 348.999 159.556 344.944 152.247 337.559C144.938 330.173 122.507 318.525 122.507 318.525L91.4966 318.103Z" fill="url(#paint43_linear_255_3276)"/>
<path d="M108.935 338.498C108.888 338.498 108.841 338.488 108.796 338.466L102.107 335.888C99.232 334.518 97.3638 331.574 97.3477 328.389C97.3467 328.21 97.4913 328.064 97.6706 328.063C97.8799 328.065 97.9959 328.207 97.9968 328.386C98.0118 331.324 99.7346 334.038 102.386 335.303L109.075 337.88C109.237 337.958 109.305 338.151 109.228 338.313C109.172 338.43 109.056 338.498 108.935 338.498Z" fill="url(#paint44_linear_255_3276)"/>
<path d="M152.148 316.677C152.148 316.677 159.193 311.344 162.399 312.346C165.605 313.348 167.97 316.352 167.97 316.352H160.886C160.886 316.352 159.197 319.597 160.886 319.597H163.387C163.387 319.597 156.774 326.527 152.148 316.677Z" fill="url(#paint45_linear_255_3276)"/>
<path d="M140.22 266.391C140.22 266.391 148.487 299.078 159.684 312.221C159.684 312.221 156.652 315.678 152.149 316.677C152.149 316.677 134.96 301.612 129.725 291.142C124.49 280.673 140.22 266.391 140.22 266.391Z" fill="url(#paint46_linear_255_3276)"/>
<path d="M129.171 235.275L120.959 250.298H133.919C133.919 250.298 134.96 243.43 138.369 239.297L129.171 235.275Z" fill="url(#paint47_linear_255_3276)"/>
<path d="M141.616 217.386C141.616 217.386 145.731 226.838 146.007 231.799C146.283 236.76 147.352 239.98 141.616 240.979C135.88 241.978 131.047 239.12 128.43 234.178C128.43 234.178 124.328 226.563 125.248 223.445C126.168 220.327 141.616 217.386 141.616 217.386Z" fill="url(#paint48_linear_255_3276)"/>
<path d="M130.389 230.625H131.115C131.115 230.625 128.127 224.496 130.752 223.42C133.377 222.343 143.777 220.222 146.02 216.532C148.184 212.975 146.254 208.38 143.368 207.094C143.186 207.013 142.97 207.098 142.877 207.275L142.638 207.728C142.474 208.037 142.017 207.99 141.919 207.654C141.827 207.335 141.396 207.265 141.221 207.547C140.534 208.651 138.674 210.445 133.686 211.366C126.608 212.672 121.929 215.536 121.814 220.428C121.807 220.738 121.475 220.908 121.211 220.747C120.688 220.429 119.852 220.279 118.734 221.219C116.791 222.853 117.586 227.092 121.847 230.579C122.049 230.745 122.047 231.061 121.828 231.204C121.056 231.707 119.905 232.903 122.888 234.498C125.94 236.129 127.746 235.951 128.427 235.777C128.611 235.73 128.734 235.563 128.722 235.374L128.455 231.039C128.441 230.815 128.619 230.625 128.843 230.625L130.389 230.625Z" fill="url(#paint49_linear_255_3276)"/>
<path d="M130.568 231.532C130.568 231.532 128.998 225.494 126.291 227.187C123.584 228.88 127.695 233.952 129.872 234.178L130.568 231.532Z" fill="url(#paint50_linear_255_3276)"/>
<path d="M194.596 228.805C194.596 228.805 195.801 223.766 199.433 224.457C203.064 225.147 211.309 229.631 213.434 228.805C215.559 227.979 218.276 226.002 219.67 226.701L217.215 229.753C217.215 229.753 223.527 226.112 224.613 228.349L214.11 234.26C214.11 234.26 198.744 232.721 194.596 228.805Z" fill="url(#paint51_linear_255_3276)"/>
<path d="M119.137 249.122C119.137 249.122 122.8 243.103 146.748 244.578C159.197 245.345 187.198 234.496 193.432 229.038C193.432 229.038 197.497 229.012 201.242 232.933C201.242 232.933 175.38 260.225 145.229 263.714C145.229 263.714 122.346 310.872 122.507 318.525C122.507 318.525 108.925 327.64 90.4967 321.116C90.4967 321.116 89.9325 308.008 97.1242 289.901C106.462 266.391 119.137 249.122 119.137 249.122Z" fill="url(#paint52_linear_255_3276)"/>
<path d="M129.994 265.391C129.827 265.391 129.685 265.262 129.671 265.093C129.656 264.914 129.79 264.757 129.968 264.742C130.084 264.733 141.58 263.798 143.373 263.596C143.55 263.578 143.712 263.704 143.732 263.882C143.752 264.06 143.624 264.221 143.446 264.241C141.643 264.444 130.137 265.38 130.021 265.39C130.012 265.391 130.003 265.391 129.994 265.391Z" fill="url(#paint53_linear_255_3276)"/>
<defs>
<linearGradient id="paint0_linear_255_3276" x1="160.715" y1="278.72" x2="468.9" y2="271.97" gradientUnits="userSpaceOnUse">
<stop stop-color="#2B3582"/>
<stop offset="1" stop-color="#150E42"/>
</linearGradient>
<linearGradient id="paint1_linear_255_3276" x1="374.354" y1="138.366" x2="14.455" y2="268.331" gradientUnits="userSpaceOnUse">
<stop stop-color="#53D8FF"/>
<stop offset="1" stop-color="#3840F7"/>
</linearGradient>
<linearGradient id="paint2_linear_255_3276" x1="66.0497" y1="89.1383" x2="209.08" y2="48.0492" gradientUnits="userSpaceOnUse">
<stop stop-color="#B37CFF"/>
<stop offset="1" stop-color="#F895E7"/>
</linearGradient>
<linearGradient id="paint3_linear_255_3276" x1="205.212" y1="8.38346" x2="213.565" y2="5.9838" gradientUnits="userSpaceOnUse">
<stop stop-color="#B37CFF"/>
<stop offset="1" stop-color="#F895E7"/>
</linearGradient>
<linearGradient id="paint4_linear_255_3276" x1="266.905" y1="59.7594" x2="272.637" y2="58.1128" gradientUnits="userSpaceOnUse">
<stop stop-color="#B37CFF"/>
<stop offset="1" stop-color="#F895E7"/>
</linearGradient>
<linearGradient id="paint5_linear_255_3276" x1="145.265" y1="165.283" x2="292.59" y2="122.96" gradientUnits="userSpaceOnUse">
<stop stop-color="#B37CFF"/>
<stop offset="1" stop-color="#F895E7"/>
</linearGradient>
<linearGradient id="paint6_linear_255_3276" x1="139.501" y1="200.55" x2="147.748" y2="198.181" gradientUnits="userSpaceOnUse">
<stop stop-color="#B37CFF"/>
<stop offset="1" stop-color="#F895E7"/>
</linearGradient>
<linearGradient id="paint7_linear_255_3276" x1="263.94" y1="78.792" x2="-203.326" y2="212.678" gradientUnits="userSpaceOnUse">
<stop stop-color="#CB236D"/>
<stop offset="1" stop-color="#4C246D"/>
</linearGradient>
<linearGradient id="paint8_linear_255_3276" x1="15.1881" y1="232.7" x2="19.2648" y2="231.529" gradientUnits="userSpaceOnUse">
<stop stop-color="#B37CFF"/>
<stop offset="1" stop-color="#F895E7"/>
</linearGradient>
<linearGradient id="paint9_linear_255_3276" x1="0.381666" y1="187.376" x2="80.2853" y2="164.421" gradientUnits="userSpaceOnUse">
<stop stop-color="#B37CFF"/>
<stop offset="1" stop-color="#F895E7"/>
</linearGradient>
<linearGradient id="paint10_linear_255_3276" x1="58.0453" y1="253.731" x2="149.242" y2="227.533" gradientUnits="userSpaceOnUse">
<stop stop-color="#B37CFF"/>
<stop offset="1" stop-color="#F895E7"/>
</linearGradient>
<linearGradient id="paint11_linear_255_3276" x1="49.6578" y1="262.313" x2="55.8946" y2="260.522" gradientUnits="userSpaceOnUse">
<stop stop-color="#B37CFF"/>
<stop offset="1" stop-color="#F895E7"/>
</linearGradient>
<linearGradient id="paint12_linear_255_3276" x1="105.216" y1="85.4601" x2="60.8695" y2="252.208" gradientUnits="userSpaceOnUse">
<stop stop-color="#CB236D"/>
<stop offset="0.0721" stop-color="#C2236D"/>
<stop offset="1" stop-color="#4C246D"/>
</linearGradient>
<linearGradient id="paint13_linear_255_3276" x1="230.214" y1="180.562" x2="244.601" y2="363.671" gradientUnits="userSpaceOnUse">
<stop stop-color="#2B3582"/>
<stop offset="1" stop-color="#150E42"/>
</linearGradient>
<linearGradient id="paint14_linear_255_3276" x1="233.635" y1="180.296" x2="248.022" y2="363.404" gradientUnits="userSpaceOnUse">
<stop stop-color="#2B3582"/>
<stop offset="1" stop-color="#150E42"/>
</linearGradient>
<linearGradient id="paint15_linear_255_3276" x1="233.859" y1="180.276" x2="248.246" y2="363.385" gradientUnits="userSpaceOnUse">
<stop stop-color="#2B3582"/>
<stop offset="1" stop-color="#150E42"/>
</linearGradient>
<linearGradient id="paint16_linear_255_3276" x1="236.82" y1="180.044" x2="251.208" y2="363.153" gradientUnits="userSpaceOnUse">
<stop stop-color="#2B3582"/>
<stop offset="1" stop-color="#150E42"/>
</linearGradient>
<linearGradient id="paint17_linear_255_3276" x1="273" y1="342" x2="281.5" y2="518" gradientUnits="userSpaceOnUse">
<stop stop-color="#FFB54C"/>
<stop offset="1" stop-color="#D93C65"/>
</linearGradient>
<linearGradient id="paint18_linear_255_3276" x1="280.877" y1="332.794" x2="290.259" y2="630.909" gradientUnits="userSpaceOnUse">
<stop stop-color="#FDF53F"/>
<stop offset="1" stop-color="#D93C65"/>
</linearGradient>
<linearGradient id="paint19_linear_255_3276" x1="229.192" y1="334.421" x2="238.574" y2="632.536" gradientUnits="userSpaceOnUse">
<stop stop-color="#FDF53F"/>
<stop offset="1" stop-color="#D93C65"/>
</linearGradient>
<linearGradient id="paint20_linear_255_3276" x1="375.264" y1="180.223" x2="281.902" y2="238.714" gradientUnits="userSpaceOnUse">
<stop stop-color="#B37CFF"/>
<stop offset="1" stop-color="#F895E7"/>
</linearGradient>
<linearGradient id="paint21_linear_255_3276" x1="292.77" y1="266.148" x2="287.317" y2="269.564" gradientUnits="userSpaceOnUse">
<stop stop-color="#B37CFF"/>
<stop offset="1" stop-color="#F895E7"/>
</linearGradient>
<linearGradient id="paint22_linear_255_3276" x1="238.365" y1="242.214" x2="234.623" y2="244.558" gradientUnits="userSpaceOnUse">
<stop stop-color="#B37CFF"/>
<stop offset="1" stop-color="#F895E7"/>
</linearGradient>
<linearGradient id="paint23_linear_255_3276" x1="303.326" y1="142.251" x2="207.161" y2="202.499" gradientUnits="userSpaceOnUse">
<stop stop-color="#B37CFF"/>
<stop offset="1" stop-color="#F895E7"/>
</linearGradient>
<linearGradient id="paint24_linear_255_3276" x1="300.212" y1="115.976" x2="294.829" y2="119.349" gradientUnits="userSpaceOnUse">
<stop stop-color="#B37CFF"/>
<stop offset="1" stop-color="#F895E7"/>
</linearGradient>
<linearGradient id="paint25_linear_255_3276" x1="9.70301" y1="234.755" x2="447.071" y2="170.445" gradientUnits="userSpaceOnUse">
<stop stop-color="#A737D5"/>
<stop offset="1" stop-color="#EF497A"/>
</linearGradient>
<linearGradient id="paint26_linear_255_3276" x1="89.238" y1="351.034" x2="399.704" y2="704.535" gradientUnits="userSpaceOnUse">
<stop stop-color="#53D8FF"/>
<stop offset="1" stop-color="#3840F7"/>
</linearGradient>
<linearGradient id="paint27_linear_255_3276" x1="104.936" y1="325.22" x2="415.402" y2="678.719" gradientUnits="userSpaceOnUse">
<stop stop-color="#53D8FF"/>
<stop offset="1" stop-color="#3840F7"/>
</linearGradient>
<linearGradient id="paint28_linear_255_3276" x1="62.7266" y1="292.674" x2="112.09" y2="565.31" gradientUnits="userSpaceOnUse">
<stop stop-color="#53D8FF"/>
<stop offset="1" stop-color="#3840F7"/>
</linearGradient>
<linearGradient id="paint29_linear_255_3276" x1="108.42" y1="284.4" x2="157.783" y2="557.037" gradientUnits="userSpaceOnUse">
<stop stop-color="#53D8FF"/>
<stop offset="1" stop-color="#3840F7"/>
</linearGradient>
<linearGradient id="paint30_linear_255_3276" x1="131.551" y1="280.212" x2="180.915" y2="552.849" gradientUnits="userSpaceOnUse">
<stop stop-color="#53D8FF"/>
<stop offset="1" stop-color="#3840F7"/>
</linearGradient>
<linearGradient id="paint31_linear_255_3276" x1="116.602" y1="282.918" x2="165.966" y2="555.557" gradientUnits="userSpaceOnUse">
<stop stop-color="#53D8FF"/>
<stop offset="1" stop-color="#3840F7"/>
</linearGradient>
<linearGradient id="paint32_linear_255_3276" x1="96.1698" y1="286.617" x2="145.533" y2="559.255" gradientUnits="userSpaceOnUse">
<stop stop-color="#53D8FF"/>
<stop offset="1" stop-color="#3840F7"/>
</linearGradient>
<linearGradient id="paint33_linear_255_3276" x1="147.214" y1="277.377" x2="196.576" y2="550.01" gradientUnits="userSpaceOnUse">
<stop stop-color="#53D8FF"/>
<stop offset="1" stop-color="#3840F7"/>
</linearGradient>
<linearGradient id="paint34_linear_255_3276" x1="74.438" y1="290.552" x2="123.802" y2="563.19" gradientUnits="userSpaceOnUse">
<stop stop-color="#53D8FF"/>
<stop offset="1" stop-color="#3840F7"/>
</linearGradient>
<linearGradient id="paint35_linear_255_3276" x1="57.3623" y1="293.644" x2="106.726" y2="566.282" gradientUnits="userSpaceOnUse">
<stop stop-color="#53D8FF"/>
<stop offset="1" stop-color="#3840F7"/>
</linearGradient>
<linearGradient id="paint36_linear_255_3276" x1="214.885" y1="216.846" x2="205.148" y2="227.017" gradientUnits="userSpaceOnUse">
<stop stop-color="#F9B776"/>
<stop offset="1" stop-color="#F47960"/>
</linearGradient>
<linearGradient id="paint37_linear_255_3276" x1="91.5912" y1="414.818" x2="88.9945" y2="433.968" gradientUnits="userSpaceOnUse">
<stop stop-color="#2B3582"/>
<stop offset="1" stop-color="#150E42"/>
</linearGradient>
<linearGradient id="paint38_linear_255_3276" x1="90.6114" y1="429.271" x2="84.6064" y2="467.411" gradientUnits="userSpaceOnUse">
<stop stop-color="#2B3582"/>
<stop offset="1" stop-color="#150E42"/>
</linearGradient>
<linearGradient id="paint39_linear_255_3276" x1="80.17" y1="418.423" x2="87.8805" y2="418.423" gradientUnits="userSpaceOnUse">
<stop stop-color="#F9B776"/>
<stop offset="1" stop-color="#F47960"/>
</linearGradient>
<linearGradient id="paint40_linear_255_3276" x1="113.203" y1="391.312" x2="95.3815" y2="406.218" gradientUnits="userSpaceOnUse">
<stop stop-color="#2B3582"/>
<stop offset="1" stop-color="#150E42"/>
</linearGradient>
<linearGradient id="paint41_linear_255_3276" x1="107.264" y1="387.557" x2="127.35" y2="387.557" gradientUnits="userSpaceOnUse">
<stop stop-color="#2B3582"/>
<stop offset="1" stop-color="#150E42"/>
</linearGradient>
<linearGradient id="paint42_linear_255_3276" x1="112.392" y1="375.521" x2="123.224" y2="375.521" gradientUnits="userSpaceOnUse">
<stop stop-color="#F9B776"/>
<stop offset="1" stop-color="#F47960"/>
</linearGradient>
<linearGradient id="paint43_linear_255_3276" x1="135.754" y1="326.233" x2="56.7161" y2="396.345" gradientUnits="userSpaceOnUse">
<stop stop-color="#2B3582"/>
<stop offset="1" stop-color="#150E42"/>
</linearGradient>
<linearGradient id="paint44_linear_255_3276" x1="88.964" y1="363.886" x2="103.462" y2="332.942" gradientUnits="userSpaceOnUse">
<stop stop-color="#53D8FF"/>
<stop offset="1" stop-color="#3840F7"/>
</linearGradient>
<linearGradient id="paint45_linear_255_3276" x1="152.148" y1="317.093" x2="167.97" y2="317.093" gradientUnits="userSpaceOnUse">
<stop stop-color="#F9B776"/>
<stop offset="1" stop-color="#F47960"/>
</linearGradient>
<linearGradient id="paint46_linear_255_3276" x1="187.029" y1="353.424" x2="114.321" y2="249.555" gradientUnits="userSpaceOnUse">
<stop stop-color="#53D8FF"/>
<stop offset="1" stop-color="#3840F7"/>
</linearGradient>
<linearGradient id="paint47_linear_255_3276" x1="126.588" y1="254.793" x2="129.833" y2="244.248" gradientUnits="userSpaceOnUse">
<stop stop-color="#F9B776"/>
<stop offset="1" stop-color="#F47960"/>
</linearGradient>
<linearGradient id="paint48_linear_255_3276" x1="142.479" y1="225.706" x2="118.957" y2="243.704" gradientUnits="userSpaceOnUse">
<stop stop-color="#F9B776"/>
<stop offset="1" stop-color="#F47960"/>
</linearGradient>
<linearGradient id="paint49_linear_255_3276" x1="125.953" y1="211.499" x2="147.253" y2="238.922" gradientUnits="userSpaceOnUse">
<stop stop-color="#2B3582"/>
<stop offset="1" stop-color="#150E42"/>
</linearGradient>
<linearGradient id="paint50_linear_255_3276" x1="139.561" y1="221.893" x2="116.039" y2="239.891" gradientUnits="userSpaceOnUse">
<stop stop-color="#F9B776"/>
<stop offset="1" stop-color="#F47960"/>
</linearGradient>
<linearGradient id="paint51_linear_255_3276" x1="194.596" y1="229.326" x2="224.613" y2="229.326" gradientUnits="userSpaceOnUse">
<stop stop-color="#F9B776"/>
<stop offset="1" stop-color="#F47960"/>
</linearGradient>
<linearGradient id="paint52_linear_255_3276" x1="121.115" y1="236.232" x2="237.807" y2="428.527" gradientUnits="userSpaceOnUse">
<stop stop-color="#53D8FF"/>
<stop offset="1" stop-color="#3840F7"/>
</linearGradient>
<linearGradient id="paint53_linear_255_3276" x1="136.661" y1="265.155" x2="135.038" y2="291.69" gradientUnits="userSpaceOnUse">
<stop stop-color="#53D8FF"/>
<stop offset="1" stop-color="#3840F7"/>
</linearGradient>
</defs>
</svg>
