<svg width="562" height="547" viewBox="0 0 562 547" fill="none" xmlns="http://www.w3.org/2000/svg">
<path opacity="0.3" d="M531.844 370.873C476.611 499.973 330.814 555.425 216.58 545.97C185.39 543.389 122.634 538.195 73.633 491.857C-20.469 402.867 -5.97651 216.855 84.1063 107.341C95.7071 93.2375 176.006 -1.25222 301.137 0.012581C392.751 0.938548 457.054 52.6901 464.873 59.1374C474.751 67.2821 496.536 86.6363 516.171 117.34C562.304 189.485 566.359 290.198 531.844 370.873Z" fill="#D7D7D7"/>
<path d="M532.796 205.387C532.961 205.658 532.967 206.009 532.782 206.285C532.175 207.194 531.538 208.105 530.89 208.993C530.623 209.358 530.111 209.43 529.744 209.153C528.852 208.487 529.773 207.798 531.417 205.338C531.668 204.962 532.177 204.869 532.554 205.131C532.655 205.2 532.736 205.288 532.796 205.387Z" fill="#EAC4F9"/>
<path d="M524.298 216.888C522.85 218.41 521.322 219.891 519.758 221.291C519.422 221.591 518.903 221.555 518.599 221.209C517.775 220.262 518.836 220.21 523.105 215.726C523.416 215.399 523.935 215.394 524.264 215.715C524.598 216.041 524.605 216.566 524.298 216.888ZM511.688 227.631C509.95 228.825 508.131 229.973 506.345 231C505.386 231.554 504.591 230.085 505.511 229.556C507.29 228.53 509.045 227.423 510.747 226.254C511.118 225.999 511.629 226.101 511.889 226.481C512.152 226.865 512.055 227.379 511.688 227.631ZM497.144 235.538C495.206 236.341 493.211 237.076 491.213 237.723C490.182 238.055 489.659 236.474 490.684 236.142C492.642 235.509 494.597 234.789 496.494 234.002C497.493 233.588 498.139 235.126 497.144 235.538ZM481.882 239.278C481.972 239.728 481.685 240.16 481.241 240.242C479.173 240.623 477.061 240.926 474.964 241.143C473.886 241.254 473.687 239.604 474.765 239.493C476.819 239.281 478.889 238.984 480.915 238.611C481.359 238.528 481.793 238.828 481.882 239.278ZM465.48 240.731C465.478 241.189 465.109 241.551 464.656 241.539C462.544 241.485 460.408 241.347 458.305 241.128C457.225 241.012 457.359 239.366 458.441 239.478C460.501 239.693 462.595 239.829 464.664 239.882C465.117 239.893 465.482 240.274 465.48 240.731ZM448.959 238.172C449.067 238.35 449.11 238.567 449.064 238.784C448.971 239.23 448.535 239.507 448.092 239.403C446.025 238.918 443.952 238.346 441.931 237.703C441.496 237.565 441.248 237.099 441.376 236.662C441.504 236.226 441.96 235.984 442.394 236.122C444.375 236.753 446.407 237.313 448.432 237.788C448.66 237.842 448.845 237.985 448.959 238.172ZM433.262 232.755C433.4 232.983 433.43 233.27 433.317 233.528C433.135 233.943 432.651 234.124 432.236 233.932C430.304 233.037 428.382 232.054 426.522 231.01C426.122 230.787 425.971 230.281 426.186 229.881C426.399 229.482 426.897 229.34 427.296 229.564C429.118 230.587 431.002 231.55 432.895 232.427C433.052 232.5 433.177 232.616 433.262 232.755ZM418.892 225.162C418.629 225.53 418.117 225.606 417.748 225.333C416.031 224.062 414.34 222.705 412.721 221.301C411.889 220.575 412.945 219.333 413.775 220.052C415.361 221.428 417.018 222.757 418.7 224.002C419.068 224.274 419.155 224.794 418.892 225.162ZM387.851 178.346C389.432 184.412 390.353 185.054 389.179 185.446C388.751 185.589 388.285 185.351 388.133 184.917C387.434 182.891 386.806 180.812 386.265 178.738C385.987 177.674 387.572 177.279 387.851 178.346ZM406.407 214.021C406.075 214.325 405.556 214.294 405.248 213.951C403.818 212.358 402.429 210.687 401.121 208.986C400.448 208.111 401.737 207.111 402.408 207.985C403.691 209.652 405.052 211.29 406.453 212.851C406.764 213.198 406.737 213.721 406.407 214.021ZM393.635 193.89C396.398 199.51 397.436 199.965 396.367 200.595C395.689 200.994 395.159 200.232 395.24 200.29C394.147 198.437 393.113 196.524 392.168 194.604C391.965 194.19 392.129 193.695 392.534 193.499C392.92 193.31 393.414 193.455 393.635 193.89Z" fill="#EAC4F9"/>
<path d="M385.526 164.962C385.774 167.746 386.283 169.021 385.177 169.144C384.729 169.195 384.315 168.869 384.257 168.411C383.884 165.543 383.569 164.268 384.635 164.192C384.955 164.17 385.485 164.506 385.526 164.962Z" fill="#EAC4F9"/>
<path d="M404.704 104.311C404.888 104.614 404.868 105.013 404.626 105.289C403.919 106.1 403.221 106.934 402.551 107.77C402.269 108.122 401.753 108.17 401.398 107.878C401.046 107.585 400.986 107.063 401.268 106.71C401.952 105.857 402.664 105.006 403.386 104.179C403.683 103.839 404.201 103.812 404.543 104.118C404.607 104.175 404.661 104.241 404.704 104.311Z" fill="#EAC4F9"/>
<path d="M535.371 119.311C536.517 121.319 537.594 123.398 538.57 125.49C538.765 125.907 538.591 126.398 538.182 126.587C537.029 127.117 537.309 125.993 533.954 120.118C533.725 119.718 533.857 119.213 534.249 118.991C534.932 118.601 535.451 119.37 535.371 119.311ZM528.991 111.05C527.987 111.822 527.991 110.636 523.497 105.636C523.187 105.294 523.209 104.769 523.541 104.465C523.874 104.161 524.393 104.192 524.701 104.534C526.239 106.245 527.73 108.047 529.132 109.889C529.413 110.259 529.346 110.777 528.991 111.05ZM542.648 136.023C543.333 138.224 543.935 140.482 544.436 142.734C544.536 143.183 544.259 143.621 543.817 143.713C542.571 143.972 543.093 142.944 541.084 136.491C540.947 136.052 541.186 135.591 541.618 135.461C542.05 135.332 542.51 135.584 542.648 136.023ZM516.791 96.8749C516.971 97.1717 516.957 97.5598 516.728 97.837C516.441 98.1852 515.924 98.2261 515.574 97.9285C513.849 96.4647 512.047 95.0583 510.216 93.749C509.842 93.4811 509.748 92.9639 510.005 92.5921C510.261 92.2196 510.772 92.1348 511.145 92.4016C513.015 93.7382 514.854 95.1737 516.614 96.668C516.685 96.7288 516.745 96.799 516.791 96.8749ZM501.914 86.8081C502.059 87.0478 502.083 87.354 501.95 87.6193C501.747 88.024 501.254 88.1791 500.849 87.9654C498.862 86.9164 496.805 85.939 494.737 85.0598C494.317 84.8809 494.112 84.3943 494.281 83.9727C494.449 83.5514 494.927 83.3545 495.347 83.5332C497.458 84.4304 499.557 85.4283 501.586 86.4988C501.725 86.5727 501.836 86.681 501.914 86.8081ZM485.275 80.2383C485.388 80.4245 485.43 80.6534 485.374 80.8791C485.265 81.3209 484.819 81.5817 484.379 81.4619C482.22 80.8724 480.011 80.3674 477.813 79.9609C477.365 79.8774 477.062 79.4461 477.135 78.9956C477.207 78.5454 477.629 78.2472 478.076 78.3299C480.319 78.7448 482.574 79.2602 484.777 79.8618C484.993 79.9204 485.167 80.0598 485.275 80.2383ZM467.688 77.4612C467.77 77.5955 467.815 77.7541 467.811 77.9221C467.8 78.3796 467.423 78.7333 466.97 78.7121C464.745 78.6085 462.489 78.5997 460.266 78.685C459.813 78.7024 459.425 78.3465 459.399 77.888C459.372 77.4305 459.717 77.0454 460.17 77.0282C462.439 76.9408 464.741 76.9498 467.012 77.0553C467.299 77.0692 467.547 77.2295 467.688 77.4612ZM450.106 78.8934C450.353 80.1617 449.344 79.5877 442.943 81.3151C441.9 81.5968 441.446 79.994 442.49 79.7126C444.673 79.1233 446.912 78.6212 449.142 78.2216C449.584 78.1424 450.018 78.4402 450.106 78.8934ZM433.12 83.7815C433.638 84.9693 432.541 84.6289 426.697 87.7487C425.749 88.2543 424.954 86.7876 425.907 86.2794C427.902 85.2146 429.964 84.2251 432.038 83.3379C432.458 83.1582 432.944 83.3678 433.12 83.7815ZM417.735 92.3975C417.958 92.7651 417.872 93.2451 417.526 93.4965C415.728 94.8042 413.971 96.1988 412.305 97.6417C411.964 97.9363 411.446 97.8916 411.147 97.5414C410.849 97.1883 410.882 96.6682 411.222 96.373C412.923 94.9005 414.715 93.4778 416.55 92.1439C416.914 91.879 417.427 91.967 417.697 92.3408C417.711 92.3594 417.723 92.3784 417.735 92.3975Z" fill="#EAC4F9"/>
<path d="M546.14 153.923C546.381 156.808 546.637 158.091 545.568 158.116C544.456 158.142 544.751 156.983 544.505 154.029C544.467 153.572 544.802 153.178 545.253 153.149C545.705 153.119 546.101 153.466 546.14 153.923Z" fill="#EAC4F9"/>
<path d="M526.247 164.604L516.032 158.476C515.804 152.92 514.699 147.342 512.669 141.963C519.327 132.698 520.451 132.521 519.741 131.45L511.804 119.483C511.571 119.134 511.148 118.967 510.75 119.067L499.393 121.945C495.228 117.988 490.525 114.806 485.5 112.444L483.817 100.634C483.758 100.221 483.446 99.8847 483.041 99.7983L469.167 96.8378C468.762 96.7511 468.352 96.9332 468.147 97.2908L462.289 107.491C456.795 107.609 451.297 108.613 446.014 110.555L436.589 103.242C436.259 102.985 435.808 102.966 435.467 103.193L423.783 110.974C423.442 111.201 423.285 111.625 423.393 112.03L426.472 123.569C422.64 127.698 419.587 132.387 417.352 137.418C406.001 139.086 405.12 138.406 404.885 139.647C402.527 153.388 401.587 153.979 402.706 154.651L412.921 160.779C413.148 166.335 414.254 171.913 416.283 177.292C409.629 186.551 408.501 186.733 409.211 187.804C417.302 199.559 416.981 200.497 418.202 200.187L429.56 197.31C433.724 201.267 438.428 204.448 443.452 206.81C445.311 218.177 444.66 219.19 445.911 219.457C459.692 222.144 460.173 223.066 460.806 221.964L466.664 211.764C472.158 211.647 477.656 210.642 482.938 208.7C492.079 215.496 492.42 216.773 493.487 216.062C504.906 208.157 505.892 208.474 505.56 207.225L502.481 195.687C506.313 191.558 509.366 186.868 511.601 181.838C522.913 180.175 523.831 180.855 524.068 179.609C526.425 165.867 527.365 165.275 526.247 164.604Z" fill="url(#paint0_linear_255_3784)"/>
<path d="M474.768 169.085C469.723 174.715 461.001 175.054 455.325 169.839C449.652 164.623 449.138 155.801 454.183 150.17C459.229 144.54 467.951 144.201 473.627 149.416C479.304 154.631 479.813 163.455 474.768 169.085ZM456.961 168.014C461.567 172.247 468.723 172.089 472.929 167.395C477.073 162.77 476.654 155.522 471.992 151.241C467.33 146.958 460.167 147.236 456.023 151.861C451.873 156.492 452.307 163.74 456.961 168.014Z" fill="white"/>
<path d="M494.172 141.378C495.247 143.146 496.173 145.001 496.93 146.908C497.158 147.482 496.94 148.117 496.441 148.42C496.382 148.456 496.318 148.488 496.251 148.514C495.621 148.758 494.903 148.434 494.649 147.795C493.777 145.601 492.666 143.481 491.35 141.493C481.423 126.528 461.711 122.002 446.844 131.037C446.465 131.267 446.088 131.507 445.715 131.755C430.641 141.795 426.845 162.359 437.004 177.685C447.153 192.986 467.599 197.429 482.638 187.423C491.587 181.463 493.48 174.248 494.44 173.664C495.477 173.034 496.719 174.173 496.207 175.279C493.412 181.317 488.842 186.614 482.808 190.281C456.768 206.105 423.744 182.488 429.491 152.188C431.259 142.863 436.53 134.866 444.332 129.671C444.736 129.402 445.144 129.142 445.556 128.891C453.106 124.302 462.012 122.805 470.798 124.679C480.063 126.657 488.084 132.147 493.385 140.138C493.656 140.546 493.918 140.96 494.172 141.378Z" fill="white"/>
<path d="M379.21 126.628C378.867 123.539 378.029 120.483 376.679 117.583L380.283 111.994C380.684 111.374 380.001 111.258 375.322 105.083C374.882 104.522 374.59 105.09 368.43 107.083C365.932 105.085 363.161 103.548 360.241 102.483L358.837 95.9776C358.68 95.2552 358.117 95.6572 350.442 94.5986C350.21 94.5709 349.986 94.6931 349.885 94.9029L346.981 100.891C343.892 101.234 340.835 102.072 337.936 103.422C332.522 100.089 332.283 99.3986 331.712 99.8469C325.582 104.839 325.02 104.709 325.256 105.388L327.435 111.671C325.437 114.169 323.899 116.94 322.835 119.86L316.33 121.264C315.608 121.42 316.009 121.984 314.951 129.659C314.865 130.364 315.448 130.159 321.243 133.12C321.586 136.209 322.424 139.266 323.774 142.165L320.169 147.755C319.769 148.376 320.452 148.49 325.131 154.666C325.568 155.224 325.832 154.669 332.023 152.665C334.52 154.664 337.292 156.201 340.212 157.266L341.616 163.771C341.665 163.999 341.854 164.171 342.085 164.199L350.011 165.15C350.243 165.178 350.467 165.056 350.568 164.846L353.472 158.858C356.561 158.515 359.618 157.677 362.517 156.327C367.931 159.66 368.17 160.351 368.741 159.902C374.868 154.911 375.432 155.041 375.197 154.361L373.018 148.078C375.016 145.58 376.554 142.809 377.618 139.889C383.803 138.419 384.464 138.739 384.551 138.016L385.503 130.09C385.587 129.381 384.975 129.574 379.21 126.628Z" fill="url(#paint1_linear_255_3784)"/>
<path d="M356.819 134.966C354.005 138.609 348.779 139.281 345.135 136.466C341.492 133.654 340.819 128.427 343.634 124.783C346.441 121.149 351.682 120.475 355.318 123.282C358.952 126.09 359.626 131.329 356.819 134.966ZM354.854 133.448C356.824 130.896 356.35 127.217 353.8 125.247C349.703 122.083 343.765 125.466 344.427 130.619C345.086 135.749 351.669 137.572 354.854 133.448Z" fill="white"/>
<path d="M391.861 142.901C391.527 143.969 391.147 145.038 390.729 146.079C390.559 146.503 390.078 146.71 389.654 146.54C388.586 146.112 389.42 145.16 390.281 142.408C390.417 141.971 390.881 141.728 391.318 141.865C391.752 142 391.998 142.463 391.861 142.901Z" fill="#EAC4F9"/>
<path d="M385.343 155.742C384.04 157.511 382.545 159.26 380.888 160.902C380.109 161.674 378.948 160.494 379.723 159.726C384.017 155.473 384.054 153.763 385.169 154.585C385.539 154.859 385.613 155.376 385.343 155.742ZM372.403 166.494C372.632 166.889 372.497 167.395 372.102 167.625C370.14 168.761 368.071 169.751 365.951 170.569C364.93 170.961 364.334 169.418 365.356 169.024C367.394 168.238 369.385 167.286 371.272 166.192C371.966 165.79 372.484 166.552 372.403 166.494ZM355.826 171.959C355.886 172.058 355.926 172.171 355.941 172.294C355.993 172.748 355.668 173.158 355.214 173.211C352.959 173.471 350.667 173.556 348.402 173.463C347.946 173.444 347.59 173.058 347.609 172.603C347.627 172.146 348.013 171.791 348.469 171.81C350.649 171.899 352.854 171.817 355.024 171.566C355.355 171.528 355.663 171.692 355.826 171.959ZM338.448 170.393C338.566 170.587 338.604 170.829 338.533 171.064C338.4 171.501 337.937 171.748 337.5 171.614C335.33 170.953 333.195 170.115 331.155 169.121C330.744 168.92 330.573 168.425 330.773 168.014C330.973 167.603 331.469 167.432 331.88 167.633C333.842 168.589 335.895 169.396 337.982 170.031C338.185 170.093 338.346 170.225 338.448 170.393ZM323.071 162.968C322.775 163.315 322.252 163.358 321.904 163.061C320.172 161.585 318.547 159.967 317.074 158.249C316.36 157.425 317.615 156.339 318.33 157.172C319.747 158.824 321.311 160.381 322.978 161.801C323.333 162.106 323.361 162.627 323.071 162.968Z" fill="#EAC4F9"/>
<path d="M311.17 145.27C312.281 148.095 313.095 148.858 312.09 149.346C311.679 149.546 311.188 149.385 310.984 148.964C310.497 147.961 310.041 146.922 309.63 145.875C309.463 145.45 309.672 144.969 310.098 144.802C310.516 144.638 310.998 144.837 311.17 145.27Z" fill="#EAC4F9"/>
<path d="M312.702 111.052C311.333 113.775 311.312 114.882 310.278 114.459C309.854 114.285 309.653 113.802 309.825 113.38C310.248 112.347 310.718 111.314 311.223 110.309C311.428 109.901 311.926 109.736 312.334 109.941C312.741 110.146 312.908 110.643 312.702 111.052Z" fill="#EAC4F9"/>
<path d="M384.61 104.376C383.522 105.217 383.461 103.556 379.121 99.444C378.327 98.6948 379.463 97.4877 380.26 98.2424C381.883 99.7801 383.396 101.453 384.758 103.215C385.034 103.57 384.976 104.093 384.61 104.376ZM371.819 92.9196C371.595 93.3179 371.091 93.4602 370.692 93.2364C365.433 90.2882 363.873 90.757 364.353 89.4633C364.513 89.0349 364.989 88.8167 365.418 88.9759C367.507 89.753 369.554 90.7003 371.502 91.7927C371.901 92.0169 372.042 92.5208 371.819 92.9196ZM355.566 87.4033C355.421 88.7739 354.196 87.6677 348.208 87.9578C347.115 88.0096 347.034 86.3573 348.128 86.3043C350.359 86.1966 352.614 86.2599 354.829 86.4938C355.283 86.5415 355.614 86.9484 355.566 87.4033ZM338.447 88.7223C338.852 90.0432 337.287 89.5006 331.894 92.1121C330.91 92.589 330.186 91.1003 331.172 90.6225C333.178 89.6508 335.278 88.8267 337.414 88.1729C337.852 88.0393 338.313 88.2865 338.447 88.7223ZM323.122 97.8197C318.524 101.713 318.412 103.345 317.368 102.439C317.022 102.139 316.985 101.617 317.284 101.271C318.751 99.5801 320.355 97.9939 322.052 96.5564C322.401 96.2612 322.923 96.3042 323.219 96.6534C323.514 97.0016 323.471 97.5239 323.122 97.8197Z" fill="#EAC4F9"/>
<path d="M390.293 112.628C390.735 113.658 391.142 114.717 391.503 115.776C391.65 116.209 391.419 116.679 390.986 116.826C389.897 117.197 389.912 115.936 388.772 113.281C388.592 112.861 388.786 112.375 389.206 112.194C389.632 112.011 390.117 112.216 390.293 112.628Z" fill="#EAC4F9"/>
<path d="M368.477 120.855C368.825 121.559 368.508 122.275 367.927 122.558C367.31 122.859 366.563 122.598 366.267 121.986C365.709 120.842 365.024 119.748 364.228 118.735C364.023 118.558 360.198 112.946 352.205 111.975C336.338 110.071 326.001 128.422 335.886 141.001C341.572 148.238 351.73 149.941 359.407 145.274C367.14 140.575 365.979 134.637 368.49 135.598C369.131 135.842 369.452 136.56 369.207 137.201C367.888 140.655 365.646 143.695 362.723 145.991C353.85 152.964 340.929 151.438 333.933 142.534C326.406 132.955 328.824 118.776 339.442 112.323C348.006 107.117 359.586 108.808 366.18 117.201C366.18 117.201 366.18 117.201 366.18 117.202C367.072 118.338 367.846 119.567 368.477 120.855Z" fill="white"/>
<path d="M6.94517 71.7313C6.34532 69.178 9.93697 67.4809 12.1363 69.2644C34.4692 87.3742 88.1288 141.605 74.7559 236.377C57.9776 355.282 86.6622 398.67 122.368 425.136C122.368 425.136 73.3323 412.69 42.4815 368.664C-33.2642 260.57 17.6094 117.128 6.94517 71.7313Z" fill="url(#paint2_linear_255_3784)"/>
<path d="M23.9407 108.87C26.7346 122.108 29.2247 135.385 31.149 148.723C33.154 162.049 34.6904 175.422 35.7419 188.816C36.7337 202.213 37.4342 215.625 37.4741 229.042C37.5838 242.458 37.026 255.863 36.4115 269.32C35.8844 282.772 35.2646 296.322 36.2496 309.967C37.218 323.585 40.0845 337.321 45.7726 350.199C47.1946 353.408 48.6898 356.607 50.3884 359.699C52.0214 362.819 53.8148 365.877 55.6709 368.906C59.4187 374.951 63.6378 380.79 68.3392 386.333C77.7762 397.4 89.1578 407.217 101.696 415.525C103.016 416.399 104.906 416.184 105.919 415.045C106.914 413.926 106.692 412.332 105.434 411.446L105.425 411.44C102.442 409.345 99.4897 407.223 96.6574 404.994C95.2204 403.899 93.8426 402.751 92.4405 401.627C91.0895 400.457 89.6853 399.333 88.3775 398.129C83.0534 393.39 78.1211 388.334 73.6463 382.989C64.6455 372.347 57.4397 360.489 51.9807 348.195C49.3308 342.02 47.2122 335.687 45.6657 329.235C44.1246 322.781 43.1553 316.216 42.6193 309.597C41.5458 296.353 42.0306 282.937 42.4459 269.482C42.8411 256.024 43.1308 242.497 42.7758 228.981C42.6193 222.224 42.3222 215.47 41.8854 208.723C41.6895 205.349 41.4177 201.979 41.1532 198.609C40.8511 195.241 40.5277 191.875 40.1724 188.512C38.7227 175.062 36.7984 161.656 34.3863 148.321C31.9003 134.997 29.0055 121.734 25.5239 108.59C25.4242 108.214 24.9912 107.979 24.5561 108.065C24.1328 108.149 23.8644 108.506 23.9407 108.87Z" fill="white"/>
<path d="M60.7468 362.638C58.0086 365.544 53.1931 364.708 51.5458 361.071C42.4564 341.005 21.8883 281.946 55.8576 213.907C84.543 156.452 94.6375 122.571 98.1543 106.873C98.898 103.553 103.447 103.113 104.82 106.225C119.97 140.563 159.971 257.362 60.7468 362.638Z" fill="url(#paint3_linear_255_3784)"/>
<path d="M55.7726 360.521C55.6752 360.538 55.5749 360.547 55.4723 360.545C54.6116 360.532 53.9244 359.823 53.9377 358.962C53.9527 357.987 55.8518 260.451 92.1282 178.761C92.4776 177.975 93.3983 177.62 94.1856 177.969C94.9724 178.319 95.3268 179.24 94.9776 180.027C58.965 261.122 57.0697 358.041 57.0546 359.01C57.0431 359.768 56.4921 360.392 55.7726 360.521Z" fill="white"/>
<path d="M47.2396 467.091C47.2396 471.852 51.1388 475.747 55.9043 475.747H524.459C529.225 475.747 533.124 471.852 533.124 467.091L537.023 197.825C537.023 193.064 531.414 183.769 521.134 184.468L63.21 172.619C57.2305 172.464 51.4491 174.766 47.2148 178.986C42.9805 183.207 40.6636 188.977 40.8049 194.951L47.2396 467.091Z" fill="url(#paint4_linear_255_3784)"/>
<path d="M55.7934 458.786C55.7934 463.294 59.4823 466.983 63.9909 466.983H513.16C517.668 466.983 521.357 463.294 521.357 458.786L525.036 214.344C524.603 199.634 511.706 194.347 503.889 194.659L65.0105 182.885C60.8096 182.772 56.7482 184.391 53.7728 187.358C50.7974 190.326 49.1611 194.388 49.2665 198.588L55.7934 458.786Z" fill="url(#paint5_linear_255_3784)"/>
<path d="M516.504 342.659C516.498 342.659 516.492 342.659 516.486 342.659C515.823 342.649 515.293 342.104 515.303 341.439L515.594 321.616C515.603 320.958 516.139 320.432 516.794 320.432C516.8 320.432 516.806 320.432 516.812 320.432C517.476 320.442 518.006 320.987 517.995 321.652L517.705 341.475C517.695 342.133 517.159 342.659 516.504 342.659Z" fill="white"/>
<path d="M517.217 294.08C517.211 294.08 517.205 294.08 517.199 294.08C516.535 294.071 516.005 293.524 516.015 292.861L517.13 216.935C517.109 212.426 515.74 208.825 513.061 206.257C508.059 201.465 500.119 201.71 499.784 201.726L359.509 197.964C358.846 197.947 358.322 197.395 358.34 196.731C358.358 196.068 358.867 195.504 359.574 195.563L499.765 199.325C500.638 199.274 509.092 199.127 514.723 204.522C517.89 207.557 519.508 211.739 519.532 216.947L518.417 292.897C518.408 293.554 517.871 294.08 517.217 294.08Z" fill="white"/>
<path d="M10.334 498.1H560.531C561.139 498.1 561.636 497.602 561.636 496.994V475.546C561.636 474.939 561.139 474.441 560.531 474.441H10.334C9.7261 474.441 9.22852 474.938 9.22852 475.546V496.994C9.22852 497.602 9.72591 498.1 10.334 498.1Z" fill="url(#paint6_linear_255_3784)"/>
<path d="M359.797 440.378L462.941 242.776H441.809C437.912 242.776 435.769 238.245 438.241 235.233L548.172 101.249C552.936 95.4416 562.348 99.1247 561.906 106.623L554.178 237.643C553.736 245.143 547.085 250.733 539.62 249.879L524.887 248.193L422.547 469.824C419.883 475.594 414.108 479.288 407.753 479.288H372.283L359.797 440.378Z" fill="url(#paint7_linear_255_3784)"/>
<path d="M457.734 228.801C457.518 228.801 457.3 228.732 457.115 228.59C456.671 228.248 456.587 227.61 456.93 227.165L547.706 109.214C548.776 107.823 550.518 107.35 552.145 108.008C553.771 108.666 554.694 110.218 554.497 111.961L552.895 126.1C552.832 126.657 552.33 127.054 551.771 126.995C551.213 126.932 550.813 126.428 550.876 125.871L552.478 111.732C552.589 110.747 551.985 110.136 551.383 109.893C550.78 109.649 549.921 109.669 549.316 110.454L458.541 228.405C458.34 228.665 458.039 228.801 457.734 228.801Z" fill="white"/>
<path d="M536.306 307.323C509.295 319.299 437.545 360.739 406.568 472.441C406.568 472.441 448.357 473.142 479.708 406.126C506.52 348.815 521.94 325.661 538.359 310.417C539.915 308.972 538.247 306.462 536.306 307.323Z" fill="url(#paint8_linear_255_3784)"/>
<path opacity="0.51" d="M411.534 466.101C411.534 466.101 411.583 465.941 411.677 465.631C411.771 465.32 411.915 464.86 412.112 464.266C412.495 463.073 413.084 461.333 413.885 459.138C414.665 456.935 415.703 454.296 416.904 451.271C418.125 448.256 419.571 444.881 421.198 441.221C422.858 437.577 424.707 433.65 426.755 429.542C428.853 425.459 431.052 421.143 433.514 416.779C434.128 415.687 434.746 414.585 435.369 413.476C436.012 412.378 436.66 411.272 437.312 410.159C438.602 407.926 439.982 405.709 441.363 403.469C442.758 401.237 444.199 399.009 445.638 396.768C447.121 394.555 448.567 392.306 450.092 390.107C451.618 387.91 453.105 385.686 454.704 383.552C455.49 382.476 456.274 381.402 457.057 380.332C457.844 379.265 458.659 378.222 459.454 377.172C460.254 376.126 461.05 375.084 461.843 374.047C462.658 373.027 463.468 372.011 464.274 371.002C465.859 368.964 467.529 367.033 469.155 365.121C470.76 363.194 472.421 361.366 474.031 359.566C475.625 357.752 477.25 356.033 478.848 354.379C479.648 353.552 480.421 352.723 481.21 351.932C482.007 351.148 482.791 350.375 483.563 349.616C484.334 348.857 485.092 348.111 485.836 347.379C486.581 346.649 487.349 345.968 488.081 345.282C489.575 343.94 490.963 342.611 492.359 341.428C493.75 340.242 495.07 339.118 496.311 338.061C496.923 337.524 497.541 337.034 498.146 336.57C498.746 336.102 499.325 335.651 499.881 335.217C500.991 334.351 502.011 333.556 502.932 332.837C506.745 330.137 508.924 328.595 508.924 328.595C509.139 328.442 509.438 328.493 509.591 328.709C509.734 328.911 509.698 329.186 509.515 329.345L509.498 329.359C509.498 329.359 507.495 331.095 503.989 334.131C503.137 334.916 502.193 335.785 501.167 336.73C500.654 337.203 500.12 337.695 499.567 338.204C499.29 338.459 499.008 338.718 498.722 338.982C498.444 339.256 498.16 339.533 497.873 339.815C496.72 340.94 495.494 342.137 494.202 343.399C492.907 344.656 491.625 346.062 490.246 347.481C489.561 348.196 488.842 348.905 488.146 349.664C487.451 350.424 486.743 351.199 486.024 351.987C485.304 352.775 484.573 353.576 483.83 354.389C483.095 355.209 482.376 356.068 481.632 356.923C480.158 358.647 478.601 360.376 477.106 362.231C475.588 364.065 474.023 365.924 472.514 367.886C471.75 368.857 470.979 369.837 470.203 370.824C469.428 371.811 468.68 372.833 467.902 373.84C467.132 374.853 466.357 375.871 465.578 376.895C464.82 377.935 464.058 378.98 463.294 380.03C462.534 381.083 461.756 382.128 461.004 383.198C460.257 384.272 459.508 385.348 458.758 386.427C457.245 388.575 455.784 390.773 454.296 392.952C452.809 395.132 451.398 397.364 449.951 399.559C448.547 401.782 447.142 403.993 445.782 406.207C443.075 410.644 440.417 415.016 437.934 419.301C435.431 423.575 433.039 427.727 430.836 431.701C428.64 435.679 426.525 439.424 424.682 442.94C422.769 446.421 421.092 449.653 419.585 452.51C418.072 455.365 416.802 457.88 415.728 459.94C413.626 464.083 412.425 466.451 412.425 466.451L412.422 466.457C412.302 466.693 412.013 466.787 411.777 466.667C411.565 466.561 411.468 466.319 411.534 466.101Z" fill="white"/>
<path d="M407.379 474.857C407.379 474.857 419.307 428.09 484.549 421.801C528.086 417.604 541.924 406.957 545.99 402.272C546.464 401.726 547.355 402.133 547.246 402.847C545.891 411.675 538.547 438.958 499.011 454.894C451.362 474.1 427.491 458.998 407.379 474.857Z" fill="url(#paint9_linear_255_3784)"/>
<path opacity="0.51" d="M410.743 465.741C410.743 465.741 411.1 465.342 411.805 464.644C412.509 463.944 413.553 462.925 414.945 461.701C416.324 460.461 418.056 459.022 420.098 457.435C422.128 455.831 424.516 454.151 427.171 452.381C429.832 450.62 432.807 448.844 436.043 447.117C439.281 445.393 442.79 443.734 446.522 442.238C450.252 440.741 454.218 439.438 458.331 438.402C462.443 437.364 466.708 436.61 471.014 436.187C472.094 436.108 473.168 435.981 474.25 435.943C475.332 435.905 476.412 435.865 477.49 435.827C478.57 435.842 479.648 435.857 480.722 435.872C481.796 435.9 482.866 436.001 483.931 436.063C485.975 436.194 488.002 436.324 490.006 436.452C492.06 436.654 493.926 436.529 495.833 436.571C496.307 436.573 496.779 436.576 497.249 436.578L497.953 436.582L498.655 436.535C499.591 436.47 500.519 436.404 501.436 436.34C501.895 436.308 502.352 436.276 502.807 436.245L503.487 436.198C503.711 436.172 503.932 436.133 504.153 436.101C505.04 435.968 505.915 435.836 506.779 435.706C510.247 435.225 513.436 434.353 516.322 433.384C516.692 433.283 517.032 433.125 517.376 432.984C517.721 432.845 518.061 432.706 518.398 432.57C519.066 432.285 519.749 432.055 520.366 431.742C520.983 431.426 521.584 431.117 522.168 430.818C522.46 430.665 522.755 430.526 523.032 430.368C523.302 430.198 523.567 430.031 523.828 429.866C524.355 429.539 524.865 429.221 525.356 428.915C525.828 428.581 526.271 428.242 526.705 427.924C527.597 427.314 528.292 426.614 528.98 426.037C529.614 425.413 530.194 424.855 530.654 424.335C531.106 423.809 531.502 423.362 531.774 422.97C532.071 422.589 532.271 422.286 532.406 422.08C532.545 421.874 532.598 421.773 532.598 421.773C532.689 421.601 532.902 421.534 533.074 421.625C533.231 421.708 533.3 421.892 533.243 422.054L533.241 422.06C533.241 422.06 533.192 422.201 533.081 422.438C532.97 422.676 532.812 423.036 532.559 423.472C532.08 424.365 531.266 425.603 530.065 427.065C529.423 427.75 528.764 428.579 527.908 429.329C527.49 429.716 527.062 430.131 526.602 430.542C526.116 430.921 525.613 431.313 525.093 431.718C524.831 431.92 524.564 432.125 524.294 432.334C524.016 432.53 523.72 432.707 523.427 432.899C522.835 433.278 522.227 433.667 521.602 434.067C520.974 434.465 520.284 434.777 519.599 435.149C518.904 435.496 518.212 435.913 517.458 436.209C514.469 437.473 511.132 438.664 507.501 439.442C506.591 439.63 505.668 439.82 504.735 440.012C504.501 440.058 504.267 440.113 504.031 440.152L503.318 440.242C502.841 440.302 502.362 440.362 501.88 440.422C500.914 440.543 499.938 440.664 498.952 440.787L498.21 440.876L497.456 440.914C496.951 440.94 496.445 440.965 495.936 440.99C493.913 441.076 491.782 441.24 489.795 441.126C488.783 441.099 487.766 441.072 486.743 441.044C485.705 441.008 484.661 440.972 483.614 440.936C479.634 440.719 475.57 440.855 471.536 441.309C467.499 441.744 463.492 442.492 459.595 443.452C455.699 444.419 451.905 445.577 448.293 446.896C441.061 449.514 434.522 452.614 429.022 455.504C426.26 456.934 423.805 458.389 421.606 459.654C419.421 460.94 417.546 462.12 415.997 463.091C414.461 464.078 413.26 464.872 412.447 465.421C411.639 465.974 411.208 466.27 411.208 466.27C411.047 466.381 410.826 466.34 410.715 466.178C410.62 466.041 410.636 465.86 410.743 465.741Z" fill="white"/>
<path d="M274.52 301.79L347.337 463.546C351.65 473.127 361.181 479.288 371.688 479.288H409.227C414.208 479.288 418.796 476.586 421.212 472.231L422.547 469.824C418.514 469.824 414.821 467.563 412.988 463.971L315.967 273.872L274.52 301.79Z" fill="url(#paint10_linear_255_3784)"/>
<path d="M325.767 293.073C318.465 287.307 307.796 289.002 302.641 296.747L195.578 457.601C187.003 470.484 172.553 478.225 157.077 478.225H142.012L129.752 442.906C129.752 442.906 229.283 290.293 254.937 267.207C254.937 267.207 280.484 244.182 305.673 261.591C312.328 266.19 317.381 272.754 320.467 280.232L325.767 293.073Z" fill="url(#paint11_linear_255_3784)"/>
<path d="M19.8464 341.457C27.9125 334.554 43.3843 324.298 65.9559 322.033C65.9559 322.033 82.4501 327.653 115.31 386.534C148.171 445.416 169.982 472.267 195.577 457.601L193.458 461.119C186.475 472.714 173.929 479.804 160.393 479.804H146.237C130.652 479.804 116.021 472.311 106.919 459.659C84.2545 428.152 40.5806 369.068 19.9993 352.187C16.6263 349.42 16.5316 344.293 19.8464 341.457Z" fill="url(#paint12_linear_255_3784)"/>
<path d="M549.502 148.046C549.463 148.046 549.425 148.044 549.386 148.039C548.828 147.976 548.428 147.473 548.491 146.915L549.216 140.518C549.279 139.96 549.78 139.556 550.34 139.622C550.898 139.686 551.298 140.189 551.235 140.747L550.51 147.144C550.452 147.663 550.012 148.046 549.502 148.046Z" fill="white"/>
<path d="M251.799 352.454C251.603 352.454 251.406 352.397 251.231 352.28C250.766 351.966 250.643 351.334 250.957 350.869L297.904 281.28C299.588 278.784 302.386 277.434 305.386 277.659C308.387 277.887 310.947 279.647 312.235 282.367C312.475 282.875 312.258 283.481 311.751 283.721C311.243 283.961 310.638 283.744 310.398 283.237C309.427 281.185 307.495 279.858 305.232 279.686C302.966 279.515 300.858 280.535 299.59 282.417L252.642 352.006C252.446 352.297 252.125 352.454 251.799 352.454Z" fill="white"/>
<path d="M239.6 370.537C239.404 370.537 239.207 370.48 239.032 370.363C238.567 370.049 238.444 369.417 238.758 368.952L241.768 364.49C242.082 364.025 242.714 363.903 243.179 364.216C243.645 364.53 243.767 365.162 243.453 365.627L240.443 370.089C240.247 370.38 239.926 370.537 239.6 370.537Z" fill="white"/>
<path d="M334.695 242.79C334.695 242.79 328.555 245.776 327.426 249.207C326.52 251.96 319.73 252.315 319.06 257.729C318.713 260.524 316.645 262.763 313.861 263.19C306.926 264.253 296.24 267.854 294.53 279.893C293.225 289.083 297.91 292.568 302.826 293.774C306.437 294.66 308.837 298.172 308.106 301.818C307.406 305.315 308.451 309.357 314.509 312.553C328.084 319.717 341.641 295.583 341.641 295.583L344.419 253.445L334.695 242.79Z" fill="url(#paint13_linear_255_3784)"/>
<path d="M408.563 232.8C408.563 232.8 381.458 275.672 349.227 283.953C349.227 283.953 355.507 301.841 360.354 303.888C360.354 303.888 400.008 270.802 410.198 238.892L408.563 232.8Z" fill="url(#paint14_linear_255_3784)"/>
<path d="M278.895 507.013L278.016 514.235C277.85 515.605 276.771 516.688 275.4 516.845C273.085 517.109 269.369 517.38 265.735 516.996C264.139 516.827 263.103 515.212 263.589 513.683C264.476 510.895 266.097 506.71 268.434 504.247H276.445C277.926 504.247 279.074 505.542 278.895 507.013Z" fill="url(#paint15_linear_255_3784)"/>
<path d="M341.64 422.415L342.993 430.369C342.993 430.369 338.464 476.235 337.659 494.581C337.533 497.457 338.277 500.3 339.787 502.751L347.66 515.537L327.65 503.729L327.251 501.287L330.527 496.783L326.236 445.402C325.984 442.384 326.607 439.356 328.03 436.683L332.169 428.907L341.64 422.415Z" fill="url(#paint16_linear_255_3784)"/>
<path d="M348.98 517.39H342.594C341.399 517.39 340.271 516.841 339.542 515.894C337.552 513.307 333.427 508.26 331.455 508.129C328.8 507.951 329.139 517.39 329.139 517.39H327.651L325.766 505.661C325.292 502.71 326.759 499.787 329.409 498.404C329.409 498.404 330.016 502.893 333.307 504.878C336.598 506.863 346.698 513.973 346.698 513.973C346.698 513.973 347.935 513.797 349.294 514.042C351.309 514.406 351.027 517.39 348.98 517.39Z" fill="url(#paint17_linear_255_3784)"/>
<path d="M314.232 426.192C314.232 426.192 287.705 476.511 283.488 488C279.272 499.489 277.794 509.073 277.738 509.981C277.65 511.399 275.886 512.759 271.023 512.759C268.514 512.759 267.285 511.753 266.684 510.779C266.17 509.949 266.144 508.91 266.576 508.034C268.111 504.929 272.98 495.004 274.784 490.503C276.937 485.129 281.569 460.774 284.109 452.306C286.649 443.838 289.521 434.653 300.582 426.192C300.582 426.192 308.176 418.755 314.232 426.192Z" fill="url(#paint18_linear_255_3784)"/>
<path d="M330.99 343.742C337.833 314.746 320.498 298.347 320.498 298.347C331.436 287.847 351.365 283.07 351.365 283.07C351.365 283.07 370.381 296.973 368.125 307.855C366.803 314.232 354.759 346.057 354.759 346.057C354.759 346.057 343.621 351.328 330.99 343.742Z" fill="url(#paint19_linear_255_3784)"/>
<path d="M315.818 358.097C318.603 349.707 330.99 343.742 330.99 343.742C343.621 351.328 354.758 346.057 354.758 346.057C354.758 346.057 357.256 355.604 355.532 364.476C353.808 373.349 342.992 430.369 342.992 430.369C325.95 433.822 299.74 426.894 299.74 426.894C310.595 407.622 313.034 366.486 315.818 358.097Z" fill="url(#paint20_linear_255_3784)"/>
<path d="M338.933 263.909L333.37 288.898C332.837 291.099 334.844 290.739 337.069 290.319C340.714 289.632 345.411 288.217 346.981 285.381C347.141 285.093 347.221 284.766 347.266 284.44L349.656 267.112C349.845 265.737 349.102 264.402 347.834 263.84L343.221 261.795C341.445 261.007 339.39 262.02 338.933 263.909Z" fill="url(#paint21_linear_255_3784)"/>
<path d="M320.499 298.347C320.499 298.347 281.669 326.127 315.533 355.318C315.533 355.318 316.824 356.779 319.364 357.538C320.646 357.922 324.44 360.792 326.363 362.288C326.982 362.769 327.875 362.606 328.291 361.942C328.616 361.421 328.655 360.771 328.392 360.216L323.585 350.051C322.25 348.805 320.207 348.717 318.769 349.843C317.852 350.561 316.509 350.26 315.995 349.214C313.378 343.883 308.435 328.202 328.666 310.484C329.427 309.817 329.619 308.716 329.152 307.819C327.731 305.088 324.48 299.666 320.499 298.347Z" fill="url(#paint22_linear_255_3784)"/>
<path d="M349.587 241.129C349.587 241.129 355.51 245.138 358.055 255.348C360.6 265.558 356.464 269.22 352.225 268.996C347.985 268.771 341.838 267.46 336.512 260.136C331.186 252.811 341.826 236.229 349.587 241.129Z" fill="url(#paint23_linear_255_3784)"/>
<path d="M341.884 256.017C341.884 256.017 339.714 241.387 351.861 243.625L354.317 246.182C354.317 246.182 360.262 239.486 353.683 234.425C347.103 229.364 337.973 230.66 332.922 239.874C327.87 249.088 326.037 255.563 330.271 261.288C334.505 267.014 337.69 262.104 337.69 262.104C337.69 262.104 335.748 257.148 337.359 255.022C338.97 252.895 341.049 256.258 341.049 256.258L341.884 256.017Z" fill="url(#paint24_linear_255_3784)"/>
<path d="M340.224 257.27C340.224 257.27 339.153 249.743 335.309 251.895C331.464 254.046 336.694 258.926 338.791 260.586L340.224 257.27Z" fill="url(#paint25_linear_255_3784)"/>
<path d="M408.376 241.626C408.458 242.51 405.17 243.121 404.123 239.351C404.411 237.714 404.922 230.547 406.177 229.433C412.861 223.502 424.781 216.83 424.781 216.83C426.114 218.865 424.365 220.206 424.365 220.206L418.415 224.221C419.036 226.277 419.942 228.094 420.044 230.441C420.122 232.219 419.465 233.959 418.286 235.307C417.101 236.66 415.507 238.407 414.07 239.733C411.351 242.243 408.376 241.626 408.376 241.626Z" fill="url(#paint26_linear_255_3784)"/>
<path d="M411.609 238.704L410.7 238.329C410.82 238.035 413.676 231.097 415.057 229.654C415.581 229.106 415.835 228.637 415.811 228.259C415.8 228.054 415.698 227.852 415.506 227.646L410.692 230.221L408.565 233.551L407.736 233.021L410.001 229.474L415.64 226.459L415.894 226.666C416.465 227.133 416.76 227.633 416.793 228.198C416.835 228.871 416.5 229.57 415.769 230.334C414.728 231.421 412.413 236.744 411.609 238.704Z" fill="url(#paint27_linear_255_3784)"/>
<defs>
<linearGradient id="paint0_linear_255_3784" x1="372.777" y1="55.0752" x2="527.764" y2="231.761" gradientUnits="userSpaceOnUse">
<stop stop-color="#A737D5"/>
<stop offset="1" stop-color="#EF497A"/>
</linearGradient>
<linearGradient id="paint1_linear_255_3784" x1="322.951" y1="98.7805" x2="477.939" y2="275.466" gradientUnits="userSpaceOnUse">
<stop stop-color="#A737D5"/>
<stop offset="1" stop-color="#EF497A"/>
</linearGradient>
<linearGradient id="paint2_linear_255_3784" x1="-46.7669" y1="200.394" x2="177.039" y2="292.982" gradientUnits="userSpaceOnUse">
<stop stop-color="#A737D5"/>
<stop offset="1" stop-color="#EF497A"/>
</linearGradient>
<linearGradient id="paint3_linear_255_3784" x1="6.25807" y1="324.996" x2="152.868" y2="144.799" gradientUnits="userSpaceOnUse">
<stop stop-color="#CE1567"/>
<stop offset="1" stop-color="#7A1DBC"/>
</linearGradient>
<linearGradient id="paint4_linear_255_3784" x1="332.979" y1="455.047" x2="222.317" y2="123.059" gradientUnits="userSpaceOnUse">
<stop stop-color="#2B3582"/>
<stop offset="1" stop-color="#150E42"/>
</linearGradient>
<linearGradient id="paint5_linear_255_3784" x1="392.299" y1="232.947" x2="-11.3156" y2="587.311" gradientUnits="userSpaceOnUse">
<stop stop-color="#53D8FF"/>
<stop offset="1" stop-color="#3840F7"/>
</linearGradient>
<linearGradient id="paint6_linear_255_3784" x1="75.3985" y1="435.181" x2="568.38" y2="555.095" gradientUnits="userSpaceOnUse">
<stop stop-color="#2B3582"/>
<stop offset="1" stop-color="#150E42"/>
</linearGradient>
<linearGradient id="paint7_linear_255_3784" x1="585.96" y1="100.666" x2="345.692" y2="489.771" gradientUnits="userSpaceOnUse">
<stop stop-color="#FDF53F"/>
<stop offset="1" stop-color="#D93C65"/>
</linearGradient>
<linearGradient id="paint8_linear_255_3784" x1="435.53" y1="433.246" x2="568.499" y2="268.021" gradientUnits="userSpaceOnUse">
<stop stop-color="#A737D5"/>
<stop offset="1" stop-color="#EF497A"/>
</linearGradient>
<linearGradient id="paint9_linear_255_3784" x1="406.337" y1="472.476" x2="550.284" y2="409.505" gradientUnits="userSpaceOnUse">
<stop stop-color="#A737D5"/>
<stop offset="1" stop-color="#EF497A"/>
</linearGradient>
<linearGradient id="paint10_linear_255_3784" x1="381.487" y1="459.848" x2="281.955" y2="262.101" gradientUnits="userSpaceOnUse">
<stop stop-color="#FDF53F"/>
<stop offset="1" stop-color="#D93C65"/>
</linearGradient>
<linearGradient id="paint11_linear_255_3784" x1="330.016" y1="364.569" x2="108.176" y2="368.822" gradientUnits="userSpaceOnUse">
<stop stop-color="#FDF53F"/>
<stop offset="1" stop-color="#D93C65"/>
</linearGradient>
<linearGradient id="paint12_linear_255_3784" x1="180.136" y1="490.752" x2="-40.6719" y2="246.963" gradientUnits="userSpaceOnUse">
<stop stop-color="#FDF53F"/>
<stop offset="0.2814" stop-color="#F3C14A"/>
<stop offset="1" stop-color="#D93C65"/>
</linearGradient>
<linearGradient id="paint13_linear_255_3784" x1="345.495" y1="218.213" x2="327.281" y2="263.901" gradientUnits="userSpaceOnUse">
<stop stop-color="#2B3582"/>
<stop offset="1" stop-color="#150E42"/>
</linearGradient>
<linearGradient id="paint14_linear_255_3784" x1="354.188" y1="297.812" x2="420.808" y2="215.203" gradientUnits="userSpaceOnUse">
<stop stop-color="#F9B776"/>
<stop offset="1" stop-color="#F47960"/>
</linearGradient>
<linearGradient id="paint15_linear_255_3784" x1="280.482" y1="643.763" x2="273.82" y2="548.273" gradientUnits="userSpaceOnUse">
<stop stop-color="#CE1567"/>
<stop offset="1" stop-color="#7A1DBC"/>
</linearGradient>
<linearGradient id="paint16_linear_255_3784" x1="344.174" y1="571.621" x2="321.948" y2="311.857" gradientUnits="userSpaceOnUse">
<stop stop-color="#F9B776"/>
<stop offset="1" stop-color="#F47960"/>
</linearGradient>
<linearGradient id="paint17_linear_255_3784" x1="347.166" y1="639.111" x2="340.504" y2="543.621" gradientUnits="userSpaceOnUse">
<stop stop-color="#CE1567"/>
<stop offset="1" stop-color="#7A1DBC"/>
</linearGradient>
<linearGradient id="paint18_linear_255_3784" x1="299.465" y1="575.486" x2="277.234" y2="315.654" gradientUnits="userSpaceOnUse">
<stop stop-color="#F9B776"/>
<stop offset="1" stop-color="#F47960"/>
</linearGradient>
<linearGradient id="paint19_linear_255_3784" x1="439.065" y1="235.68" x2="283.181" y2="368.582" gradientUnits="userSpaceOnUse">
<stop stop-color="#CB236D"/>
<stop offset="1" stop-color="#4C246D"/>
</linearGradient>
<linearGradient id="paint20_linear_255_3784" x1="390.683" y1="324.22" x2="140.831" y2="606.053" gradientUnits="userSpaceOnUse">
<stop stop-color="#2B3582"/>
<stop offset="1" stop-color="#150E42"/>
</linearGradient>
<linearGradient id="paint21_linear_255_3784" x1="341.484" y1="363.326" x2="341.484" y2="256.733" gradientUnits="userSpaceOnUse">
<stop stop-color="#F9B776"/>
<stop offset="1" stop-color="#F47960"/>
</linearGradient>
<linearGradient id="paint22_linear_255_3784" x1="334.597" y1="328.098" x2="470.496" y2="298.12" gradientUnits="userSpaceOnUse">
<stop stop-color="#F9B776"/>
<stop offset="1" stop-color="#F47960"/>
</linearGradient>
<linearGradient id="paint23_linear_255_3784" x1="349.61" y1="268.627" x2="339.839" y2="227.766" gradientUnits="userSpaceOnUse">
<stop stop-color="#F9B776"/>
<stop offset="1" stop-color="#F47960"/>
</linearGradient>
<linearGradient id="paint24_linear_255_3784" x1="357.33" y1="221.887" x2="330.586" y2="263.166" gradientUnits="userSpaceOnUse">
<stop stop-color="#2B3582"/>
<stop offset="1" stop-color="#150E42"/>
</linearGradient>
<linearGradient id="paint25_linear_255_3784" x1="340.683" y1="270.762" x2="330.912" y2="229.901" gradientUnits="userSpaceOnUse">
<stop stop-color="#F9B776"/>
<stop offset="1" stop-color="#F47960"/>
</linearGradient>
<linearGradient id="paint26_linear_255_3784" x1="357.376" y1="300.384" x2="423.997" y2="217.774" gradientUnits="userSpaceOnUse">
<stop stop-color="#F9B776"/>
<stop offset="1" stop-color="#F47960"/>
</linearGradient>
<linearGradient id="paint27_linear_255_3784" x1="419.217" y1="186.761" x2="394.79" y2="341.32" gradientUnits="userSpaceOnUse">
<stop stop-color="#F9B776"/>
<stop offset="1" stop-color="#F47960"/>
</linearGradient>
</defs>
</svg>
