<svg width="16" height="16" viewBox="0 0 16 16" fill="none" xmlns="http://www.w3.org/2000/svg">
<g clip-path="url(#clip0_475_3062)">
<mask id="path-1-inside-1_475_3062" fill="white">
<path d="M3.91285 5.34668H1.1049C0.863563 5.34668 0.667969 5.54239 0.667969 5.78361V15.1437C0.667969 15.385 0.863563 15.5806 1.1049 15.5806H3.91285C4.15418 15.5806 4.34978 15.385 4.34978 15.1437V5.78361C4.34978 5.54239 4.15418 5.34668 3.91285 5.34668ZM3.47592 14.7067H1.54183V6.22054H3.47592V14.7067Z"/>
</mask>
<path d="M3.91285 5.34668H1.1049C0.863563 5.34668 0.667969 5.54239 0.667969 5.78361V15.1437C0.667969 15.385 0.863563 15.5806 1.1049 15.5806H3.91285C4.15418 15.5806 4.34978 15.385 4.34978 15.1437V5.78361C4.34978 5.54239 4.15418 5.34668 3.91285 5.34668ZM3.47592 14.7067H1.54183V6.22054H3.47592V14.7067Z" fill="white"/>
<path d="M3.47592 14.7067V16.0401H4.80925V14.7067H3.47592ZM1.54183 14.7067H0.208493V16.0401H1.54183V14.7067ZM1.54183 6.22054V4.8872H0.208493V6.22054H1.54183ZM3.47592 6.22054H4.80925V4.8872H3.47592V6.22054ZM3.91285 5.34668V4.01335H1.1049V5.34668V6.68001H3.91285V5.34668ZM1.1049 5.34668V4.01335C0.126957 4.01335 -0.665365 4.80623 -0.665365 5.78361H0.667969H2.0013C2.0013 6.27854 1.60017 6.68001 1.1049 6.68001V5.34668ZM0.667969 5.78361H-0.665365V15.1437H0.667969H2.0013V5.78361H0.667969ZM0.667969 15.1437H-0.665365C-0.665365 16.1214 0.127183 16.9139 1.1049 16.9139V15.5806V14.2473C1.59994 14.2473 2.0013 14.6486 2.0013 15.1437H0.667969ZM1.1049 15.5806V16.9139H3.91285V15.5806V14.2473H1.1049V15.5806ZM3.91285 15.5806V16.9139C4.89056 16.9139 5.68311 16.1214 5.68311 15.1437H4.34978H3.01644C3.01644 14.6486 3.4178 14.2473 3.91285 14.2473V15.5806ZM4.34978 15.1437H5.68311V5.78361H4.34978H3.01644V15.1437H4.34978ZM4.34978 5.78361H5.68311C5.68311 4.80623 4.89079 4.01335 3.91285 4.01335V5.34668V6.68001C3.41758 6.68001 3.01644 6.27854 3.01644 5.78361H4.34978ZM3.47592 14.7067V13.3734H1.54183V14.7067V16.0401H3.47592V14.7067ZM1.54183 14.7067H2.87516V6.22054H1.54183H0.208493V14.7067H1.54183ZM1.54183 6.22054V7.55387H3.47592V6.22054V4.8872H1.54183V6.22054ZM3.47592 6.22054H2.14259V14.7067H3.47592H4.80925V6.22054H3.47592Z" fill="white" mask="url(#path-1-inside-1_475_3062)"/>
<mask id="path-3-inside-2_475_3062" fill="white">
<path d="M2.50899 0.666992C1.49381 0.666992 0.667969 1.49283 0.667969 2.50778C0.667969 3.52296 1.49381 4.34869 2.50899 4.34869C3.52405 4.34869 4.34978 3.52285 4.34978 2.50778C4.34978 1.49283 3.52405 0.666992 2.50899 0.666992ZM2.50899 3.47483C1.97568 3.47483 1.54183 3.04109 1.54183 2.50778C1.54183 1.97459 1.97568 1.54085 2.50899 1.54085C3.04218 1.54085 3.47592 1.97459 3.47592 2.50778C3.47592 3.04109 3.04218 3.47483 2.50899 3.47483Z"/>
</mask>
<path d="M2.50899 0.666992C1.49381 0.666992 0.667969 1.49283 0.667969 2.50778C0.667969 3.52296 1.49381 4.34869 2.50899 4.34869C3.52405 4.34869 4.34978 3.52285 4.34978 2.50778C4.34978 1.49283 3.52405 0.666992 2.50899 0.666992ZM2.50899 3.47483C1.97568 3.47483 1.54183 3.04109 1.54183 2.50778C1.54183 1.97459 1.97568 1.54085 2.50899 1.54085C3.04218 1.54085 3.47592 1.97459 3.47592 2.50778C3.47592 3.04109 3.04218 3.47483 2.50899 3.47483Z" fill="white"/>
<path d="M2.50899 0.666992V-0.666341C0.757537 -0.666341 -0.665365 0.756346 -0.665365 2.50778H0.667969H2.0013C2.0013 2.22932 2.23008 2.00033 2.50899 2.00033V0.666992ZM0.667969 2.50778H-0.665365C-0.665365 4.25945 0.757537 5.68202 2.50899 5.68202V4.34869V3.01535C2.23008 3.01535 2.0013 2.78647 2.0013 2.50778H0.667969ZM2.50899 4.34869V5.68202C4.26054 5.68202 5.68311 4.25912 5.68311 2.50778H4.34978H3.01644C3.01644 2.78657 2.78756 3.01535 2.50899 3.01535V4.34869ZM4.34978 2.50778H5.68311C5.68311 0.756507 4.26048 -0.666341 2.50899 -0.666341V0.666992V2.00033C2.78762 2.00033 3.01644 2.22916 3.01644 2.50778H4.34978ZM2.50899 3.47483V2.1415C2.71186 2.1415 2.87516 2.3045 2.87516 2.50778H1.54183H0.208493C0.208493 3.77767 1.23951 4.80816 2.50899 4.80816V3.47483ZM1.54183 2.50778H2.87516C2.87516 2.71128 2.71176 2.87418 2.50899 2.87418V1.54085V0.207517C1.23961 0.207517 0.208493 1.23791 0.208493 2.50778H1.54183ZM2.50899 1.54085V2.87418C2.3058 2.87418 2.14259 2.71097 2.14259 2.50778H3.47592H4.80925C4.80925 1.23821 3.77856 0.207517 2.50899 0.207517V1.54085ZM3.47592 2.50778H2.14259C2.14259 2.30481 2.30569 2.1415 2.50899 2.1415V3.47483V4.80816C3.77866 4.80816 4.80925 3.77736 4.80925 2.50778H3.47592Z" fill="white" mask="url(#path-3-inside-2_475_3062)"/>
<path d="M10.9329 5.28516C10.2688 5.28516 9.6142 5.44525 9.02799 5.74473C9.00807 5.52183 8.8209 5.34694 8.59276 5.34694H5.78459C5.54336 5.34694 5.34766 5.54265 5.34766 5.78387V15.1439C5.34766 15.3853 5.54336 15.5809 5.78459 15.5809H8.59276C8.8341 15.5809 9.02969 15.3853 9.02969 15.1439V9.99591C9.02969 9.33369 9.56857 8.79492 10.2308 8.79492C10.893 8.79492 11.4317 9.33369 11.4317 9.99591V15.1439C11.4317 15.3853 11.6274 15.5809 11.8686 15.5809H14.6767C14.918 15.5809 15.1136 15.3853 15.1136 15.1439V9.46579C15.1136 7.16054 13.2382 5.28516 10.9329 5.28516ZM14.2397 14.707H12.3056V9.99591C12.3056 8.85182 11.3749 7.92107 10.2309 7.92107C9.0867 7.92107 8.15583 8.85182 8.15583 9.99591V14.707H6.22163V6.2208H8.15583V6.5436C8.15583 6.71166 8.25221 6.86481 8.40377 6.93752C8.55521 7.01023 8.73499 6.98952 8.86618 6.8845C9.45786 6.40991 10.1726 6.15901 10.9329 6.15901C12.7563 6.15901 14.2397 7.64241 14.2397 9.46579V14.707Z" fill="white"/>
</g>
<defs>
<clipPath id="clip0_475_3062">
<rect width="16" height="16" fill="white"/>
</clipPath>
</defs>
</svg>
