<svg width="216" height="55" viewBox="0 0 216 55" fill="none" xmlns="http://www.w3.org/2000/svg">
<path d="M32.498 18.6802C38.1294 23.0057 46.9179 29.7563 46.9179 29.7563L60.7109 21.2925V53.8567" stroke="url(#paint0_linear_255_2846)" stroke-width="10.2402"/>
<path d="M0 19.7251H30.5117V34.9809M30.5117 34.9809C30.5117 34.9809 18.7299 34.9809 11.1806 34.9809M30.5117 34.9809V48.7739H0" stroke="url(#paint1_linear_255_2846)" stroke-width="10.2402"/>
<path d="M78.3001 13.2363V35.1323C78.3001 36.021 78.4482 36.6539 78.7444 37.031C79.0407 37.408 79.5389 37.5966 80.2392 37.5966C80.6432 37.5966 80.9798 37.5696 81.2491 37.5158C81.5185 37.4619 81.8417 37.3811 82.2187 37.2734L81.7743 41.394C81.2895 41.6903 80.6566 41.9327 79.8756 42.1212C79.0946 42.3097 78.327 42.404 77.5729 42.404C75.4183 42.404 73.8562 41.9057 72.8867 40.9092C71.9171 39.9127 71.4323 38.2833 71.4323 36.021V13.2363H78.3001ZM96.3162 29.1937C96.3162 28.2511 96.0469 27.5104 95.5082 26.9718C94.9965 26.4062 94.2963 26.1234 93.4075 26.1234C92.5187 26.1234 91.7512 26.3523 91.1048 26.8102C90.4853 27.2411 90.0544 28.0222 89.812 29.1533L83.9947 27.7798C84.3717 25.8406 85.3682 24.292 86.9841 23.1339C88.6001 21.9759 90.8759 21.3968 93.8115 21.3968C95.7775 21.3968 97.4473 21.6931 98.8209 22.2856C100.221 22.8512 101.285 23.713 102.012 24.8711C102.766 26.0022 103.144 27.4027 103.144 29.0725V36.4654C103.144 37.5158 103.615 38.041 104.557 38.041C105.042 38.041 105.433 37.9871 105.729 37.8794L105.325 41.798C104.517 42.1751 103.534 42.3636 102.376 42.3636C101.326 42.3636 100.396 42.202 99.5884 41.8788C98.7805 41.5287 98.1476 41.017 97.6897 40.3437C97.2319 39.6434 97.0029 38.7681 97.0029 37.7178V37.4754L97.7705 37.1926C97.7705 38.3507 97.4204 39.3202 96.7202 40.1013C96.0469 40.8823 95.1581 41.4614 94.0539 41.8384C92.9766 42.2155 91.8454 42.404 90.6604 42.404C89.2869 42.404 88.0884 42.1885 87.0649 41.7576C86.0415 41.3267 85.247 40.7073 84.6814 39.8993C84.1428 39.0644 83.8735 38.041 83.8735 36.829C83.8735 35.3747 84.3044 34.1762 85.1662 33.2335C86.055 32.264 87.442 31.5907 89.3273 31.2136L96.9625 29.6381L96.9222 33.2739L93.0439 34.0819C92.2359 34.2435 91.63 34.4859 91.226 34.8091C90.8489 35.1053 90.6604 35.5632 90.6604 36.1826C90.6604 36.7751 90.8759 37.2195 91.3068 37.5158C91.7377 37.812 92.2494 37.9602 92.8419 37.9602C93.2998 37.9602 93.7307 37.8928 94.1347 37.7582C94.5656 37.6235 94.9426 37.4215 95.2658 37.1522C95.589 36.8559 95.8449 36.4924 96.0334 36.0614C96.2219 35.6305 96.3162 35.1188 96.3162 34.5263V29.1937ZM115.267 42.404C113.894 42.404 112.682 42.1751 111.631 41.7172C110.608 41.2324 109.8 40.4649 109.207 39.4145C108.615 38.3641 108.319 36.9906 108.319 35.2939V21.8008H115.186V33.6779C115.186 34.9707 115.442 35.8729 115.954 36.3846C116.466 36.8963 117.193 37.1522 118.135 37.1522C118.62 37.1522 119.078 37.0714 119.509 36.9098C119.94 36.7213 120.317 36.452 120.64 36.1018C120.963 35.7248 121.206 35.2535 121.367 34.6879C121.556 34.0954 121.65 33.4086 121.65 32.6276V21.8008H128.518V42H122.377L122.175 38.2025C121.529 39.63 120.627 40.6938 119.469 41.394C118.31 42.0673 116.91 42.404 115.267 42.404ZM133.452 42V21.8008H139.593L139.956 28.7493L139.189 27.9818C139.458 26.5274 139.929 25.3155 140.603 24.3459C141.303 23.3763 142.165 22.6492 143.188 22.1644C144.238 21.6527 145.41 21.3968 146.703 21.3968C148.103 21.3968 149.315 21.6661 150.339 22.2048C151.389 22.7434 152.21 23.5379 152.803 24.5883C153.395 25.6386 153.692 26.9583 153.692 28.5473V42H146.824V30.3653C146.824 28.9648 146.555 27.9952 146.016 27.4566C145.477 26.9179 144.791 26.6486 143.956 26.6486C143.309 26.6486 142.703 26.8102 142.138 27.1334C141.572 27.4296 141.128 27.9144 140.805 28.5877C140.481 29.261 140.32 30.1633 140.32 31.2944V42H133.452ZM168.078 21.3968C170.125 21.3968 171.822 21.6931 173.168 22.2856C174.542 22.8512 175.606 23.6187 176.36 24.5883C177.141 25.5309 177.626 26.5543 177.814 27.6586L171.472 29.7593C171.283 28.6012 170.933 27.7394 170.421 27.1738C169.937 26.5813 169.223 26.285 168.28 26.285C167.418 26.285 166.691 26.487 166.099 26.891C165.533 27.268 165.102 27.8875 164.806 28.7493C164.51 29.5842 164.362 30.6615 164.362 31.9812C164.362 33.3009 164.523 34.3782 164.846 35.2131C165.17 36.021 165.627 36.6135 166.22 36.9906C166.812 37.3407 167.513 37.5158 168.321 37.5158C168.994 37.5158 169.546 37.3946 169.977 37.1522C170.435 36.8829 170.812 36.5058 171.108 36.021C171.404 35.5363 171.593 34.9437 171.674 34.2435L177.855 36.223C177.666 37.408 177.154 38.4719 176.32 39.4145C175.512 40.3302 174.434 41.0574 173.088 41.596C171.741 42.1347 170.166 42.404 168.361 42.404C166.153 42.404 164.227 42 162.584 41.192C160.941 40.3571 159.675 39.1586 158.787 37.5966C157.898 36.0076 157.453 34.1088 157.453 31.9004C157.453 29.692 157.898 27.8067 158.787 26.2446C159.675 24.6556 160.914 23.4571 162.503 22.6492C164.119 21.8143 165.978 21.3968 168.078 21.3968ZM181.425 42V13.2363H188.293V25.4771C188.885 24.1304 189.734 23.1205 190.838 22.4472C191.942 21.7469 193.222 21.3968 194.676 21.3968C196.076 21.3968 197.288 21.6661 198.312 22.2048C199.362 22.7434 200.184 23.5379 200.776 24.5883C201.369 25.6386 201.665 26.9583 201.665 28.5473V42H194.797V30.4461C194.797 28.9917 194.528 27.9952 193.989 27.4566C193.477 26.891 192.791 26.6082 191.929 26.6082C191.282 26.6082 190.676 26.7698 190.111 27.093C189.545 27.4162 189.101 27.9279 188.778 28.6281C188.455 29.3284 188.293 30.2441 188.293 31.3752V42H181.425Z" fill="black"/>
<path d="M74.465 47.0475C74.9363 47.0475 75.3143 47.1688 75.599 47.4115C75.8837 47.6541 76.026 47.9831 76.026 48.3985C76.026 48.8138 75.8813 49.1381 75.592 49.3715C75.3073 49.6001 74.9293 49.7145 74.458 49.7145L74.409 49.7495H73.275V51.6675H72.715V47.0475H74.465ZM74.458 49.2245C74.7893 49.2245 75.0343 49.1568 75.193 49.0215C75.3563 48.8815 75.438 48.6738 75.438 48.3985C75.438 48.1231 75.3563 47.9178 75.193 47.7825C75.0343 47.6425 74.7893 47.5725 74.458 47.5725H73.275V49.2245H74.458ZM74.78 49.3365L76.306 51.6675H75.641L74.311 49.6445L74.78 49.3365ZM78.612 51.7375C78.2807 51.7375 77.9844 51.6651 77.723 51.5205C77.4664 51.3758 77.2657 51.1681 77.121 50.8975C76.9764 50.6221 76.904 50.2955 76.904 49.9175C76.904 49.5395 76.9764 49.2151 77.121 48.9445C77.2657 48.6691 77.464 48.4591 77.716 48.3145C77.968 48.1698 78.255 48.0975 78.577 48.0975C78.9037 48.0975 79.1814 48.1675 79.41 48.3075C79.6434 48.4475 79.8207 48.6388 79.942 48.8815C80.0634 49.1195 80.124 49.3878 80.124 49.6865C80.124 49.7658 80.1217 49.8381 80.117 49.9035C80.1124 49.9688 80.1054 50.0271 80.096 50.0785H77.268V49.5815H79.851L79.564 49.6375C79.564 49.3015 79.4707 49.0425 79.284 48.8605C79.102 48.6785 78.8617 48.5875 78.563 48.5875C78.3344 48.5875 78.136 48.6411 77.968 48.7485C77.8047 48.8511 77.6764 49.0028 77.583 49.2035C77.4944 49.3995 77.45 49.6375 77.45 49.9175C77.45 50.1928 77.4967 50.4308 77.59 50.6315C77.6834 50.8321 77.814 50.9861 77.982 51.0935C78.1547 51.1961 78.36 51.2475 78.598 51.2475C78.8547 51.2475 79.0624 51.1985 79.221 51.1005C79.3844 51.0025 79.515 50.8695 79.613 50.7015L80.054 50.9605C79.9654 51.1191 79.851 51.2568 79.711 51.3735C79.5757 51.4901 79.4147 51.5811 79.228 51.6465C79.046 51.7071 78.8407 51.7375 78.612 51.7375ZM82.4491 51.7375C82.1084 51.7375 81.7934 51.6651 81.5041 51.5205C81.2194 51.3758 81.0001 51.1705 80.8461 50.9045L81.3221 50.5615C81.4248 50.7761 81.5741 50.9441 81.7701 51.0655C81.9708 51.1868 82.2111 51.2475 82.4911 51.2475C82.7384 51.2475 82.9321 51.2008 83.0721 51.1075C83.2121 51.0095 83.2821 50.8835 83.2821 50.7295C83.2821 50.6315 83.2494 50.5428 83.1841 50.4635C83.1234 50.3795 83.0044 50.3188 82.8271 50.2815L81.9871 50.1065C81.6464 50.0365 81.4014 49.9198 81.2521 49.7565C81.1074 49.5931 81.0351 49.3901 81.0351 49.1475C81.0351 48.9561 81.0888 48.7811 81.1961 48.6225C81.3081 48.4638 81.4644 48.3378 81.6651 48.2445C81.8704 48.1465 82.1108 48.0975 82.3861 48.0975C82.7314 48.0975 83.0231 48.1651 83.2611 48.3005C83.4991 48.4358 83.6764 48.6271 83.7931 48.8745L83.3241 49.1825C83.2448 48.9771 83.1164 48.8278 82.9391 48.7345C82.7618 48.6365 82.5774 48.5875 82.3861 48.5875C82.2181 48.5875 82.0734 48.6108 81.9521 48.6575C81.8354 48.7041 81.7444 48.7695 81.6791 48.8535C81.6184 48.9328 81.5881 49.0238 81.5881 49.1265C81.5881 49.2291 81.6231 49.3248 81.6931 49.4135C81.7631 49.4975 81.8938 49.5581 82.0851 49.5955L82.9601 49.7775C83.2868 49.8428 83.5154 49.9501 83.6461 50.0995C83.7768 50.2488 83.8421 50.4308 83.8421 50.6455C83.8421 50.8648 83.7838 51.0585 83.6671 51.2265C83.5504 51.3898 83.3871 51.5158 83.1771 51.6045C82.9671 51.6931 82.7244 51.7375 82.4491 51.7375ZM86.3435 51.7375C86.0122 51.7375 85.7158 51.6651 85.4545 51.5205C85.1978 51.3758 84.9972 51.1681 84.8525 50.8975C84.7078 50.6221 84.6355 50.2955 84.6355 49.9175C84.6355 49.5395 84.7078 49.2151 84.8525 48.9445C84.9972 48.6691 85.1955 48.4591 85.4475 48.3145C85.6995 48.1698 85.9865 48.0975 86.3085 48.0975C86.6352 48.0975 86.9128 48.1675 87.1415 48.3075C87.3748 48.4475 87.5522 48.6388 87.6735 48.8815C87.7948 49.1195 87.8555 49.3878 87.8555 49.6865C87.8555 49.7658 87.8532 49.8381 87.8485 49.9035C87.8438 49.9688 87.8368 50.0271 87.8275 50.0785H84.9995V49.5815H87.5825L87.2955 49.6375C87.2955 49.3015 87.2022 49.0425 87.0155 48.8605C86.8335 48.6785 86.5932 48.5875 86.2945 48.5875C86.0658 48.5875 85.8675 48.6411 85.6995 48.7485C85.5362 48.8511 85.4078 49.0028 85.3145 49.2035C85.2258 49.3995 85.1815 49.6375 85.1815 49.9175C85.1815 50.1928 85.2282 50.4308 85.3215 50.6315C85.4148 50.8321 85.5455 50.9861 85.7135 51.0935C85.8862 51.1961 86.0915 51.2475 86.3295 51.2475C86.5862 51.2475 86.7938 51.1985 86.9525 51.1005C87.1158 51.0025 87.2465 50.8695 87.3445 50.7015L87.7855 50.9605C87.6968 51.1191 87.5825 51.2568 87.4425 51.3735C87.3072 51.4901 87.1462 51.5811 86.9595 51.6465C86.7775 51.7071 86.5722 51.7375 86.3435 51.7375ZM90.9645 49.4065C90.9645 49.1451 90.8945 48.9445 90.7545 48.8045C90.6145 48.6598 90.4162 48.5875 90.1595 48.5875C89.9169 48.5875 89.7115 48.6411 89.5435 48.7485C89.3755 48.8511 89.2519 49.0191 89.1725 49.2525L88.7175 48.9725C88.8109 48.7111 88.9835 48.5011 89.2355 48.3425C89.4875 48.1791 89.8002 48.0975 90.1735 48.0975C90.4255 48.0975 90.6542 48.1418 90.8595 48.2305C91.0649 48.3145 91.2259 48.4451 91.3425 48.6225C91.4639 48.7951 91.5245 49.0191 91.5245 49.2945V50.9885C91.5245 51.1565 91.6132 51.2405 91.7905 51.2405C91.8792 51.2405 91.9655 51.2288 92.0495 51.2055L92.0215 51.6465C91.9282 51.6931 91.8069 51.7165 91.6575 51.7165C91.5222 51.7165 91.4009 51.6908 91.2935 51.6395C91.1862 51.5881 91.1022 51.5111 91.0415 51.4085C90.9809 51.3011 90.9505 51.1681 90.9505 51.0095V50.9395L91.0905 50.9605C91.0345 51.1425 90.9389 51.2918 90.8035 51.4085C90.6682 51.5205 90.5165 51.6045 90.3485 51.6605C90.1805 51.7118 90.0149 51.7375 89.8515 51.7375C89.6462 51.7375 89.4549 51.7025 89.2775 51.6325C89.1002 51.5625 88.9579 51.4575 88.8505 51.3175C88.7479 51.1728 88.6965 50.9955 88.6965 50.7855C88.6965 50.5241 88.7829 50.3095 88.9555 50.1415C89.1329 49.9688 89.3779 49.8521 89.6905 49.7915L91.0765 49.5185V49.9805L89.9495 50.2115C89.7209 50.2581 89.5505 50.3235 89.4385 50.4075C89.3265 50.4915 89.2705 50.6081 89.2705 50.7575C89.2705 50.9021 89.3265 51.0211 89.4385 51.1145C89.5552 51.2031 89.7185 51.2475 89.9285 51.2475C90.0639 51.2475 90.1922 51.2311 90.3135 51.1985C90.4395 51.1611 90.5515 51.1075 90.6495 51.0375C90.7475 50.9628 90.8245 50.8718 90.8805 50.7645C90.9365 50.6525 90.9645 50.5218 90.9645 50.3725V49.4065ZM92.8854 51.6675V48.1675H93.3404L93.4174 48.7415C93.5154 48.5268 93.6577 48.3658 93.8444 48.2585C94.0357 48.1511 94.2667 48.0975 94.5374 48.0975C94.598 48.0975 94.6634 48.1021 94.7334 48.1115C94.808 48.1208 94.871 48.1395 94.9224 48.1675L94.8244 48.6785C94.773 48.6598 94.717 48.6458 94.6564 48.6365C94.5957 48.6271 94.5094 48.6225 94.3974 48.6225C94.2527 48.6225 94.1057 48.6645 93.9564 48.7485C93.8117 48.8325 93.6904 48.9608 93.5924 49.1335C93.4944 49.3015 93.4454 49.5161 93.4454 49.7775V51.6675H92.8854ZM97.0824 48.0975C97.3251 48.0975 97.5374 48.1348 97.7194 48.2095C97.9061 48.2841 98.0671 48.3915 98.2024 48.5315C98.3378 48.6715 98.4474 48.8371 98.5314 49.0285L97.9994 49.2805C97.9248 49.0565 97.8104 48.8861 97.6564 48.7695C97.5071 48.6481 97.3111 48.5875 97.0684 48.5875C96.8351 48.5875 96.6344 48.6411 96.4664 48.7485C96.2984 48.8511 96.1701 49.0028 96.0814 49.2035C95.9928 49.3995 95.9484 49.6375 95.9484 49.9175C95.9484 50.1928 95.9928 50.4308 96.0814 50.6315C96.1701 50.8321 96.2984 50.9861 96.4664 51.0935C96.6344 51.1961 96.8351 51.2475 97.0684 51.2475C97.2504 51.2475 97.4068 51.2195 97.5374 51.1635C97.6728 51.1075 97.7824 51.0258 97.8664 50.9185C97.9551 50.8111 98.0158 50.6805 98.0484 50.5265L98.5664 50.7085C98.4871 50.9231 98.3774 51.1075 98.2374 51.2615C98.1021 51.4155 97.9364 51.5345 97.7404 51.6185C97.5491 51.6978 97.3298 51.7375 97.0824 51.7375C96.7558 51.7375 96.4641 51.6651 96.2074 51.5205C95.9508 51.3758 95.7501 51.1681 95.6054 50.8975C95.4608 50.6221 95.3884 50.2955 95.3884 49.9175C95.3884 49.5395 95.4608 49.2151 95.6054 48.9445C95.7501 48.6691 95.9508 48.4591 96.2074 48.3145C96.4641 48.1698 96.7558 48.0975 97.0824 48.0975ZM99.5504 51.6675V46.5575H100.11V48.6925C100.232 48.4825 100.393 48.3308 100.593 48.2375C100.794 48.1441 101.013 48.0975 101.251 48.0975C101.503 48.0975 101.732 48.1465 101.937 48.2445C102.143 48.3378 102.306 48.4825 102.427 48.6785C102.553 48.8745 102.616 49.1241 102.616 49.4275V51.6675H102.056V49.6235C102.056 49.2361 101.972 48.9678 101.804 48.8185C101.641 48.6645 101.438 48.5875 101.195 48.5875C101.027 48.5875 100.859 48.6271 100.691 48.7065C100.523 48.7858 100.383 48.9165 100.271 49.0985C100.164 49.2758 100.11 49.5138 100.11 49.8125V51.6675H99.5504Z" fill="black"/>
<circle cx="106.628" cy="49.6672" r="0.72779" fill="black"/>
<path d="M111.684 47.0475C111.997 47.0475 112.267 47.1058 112.496 47.2225C112.729 47.3345 112.911 47.4955 113.042 47.7055C113.173 47.9155 113.238 48.1651 113.238 48.4545C113.238 48.7438 113.173 48.9935 113.042 49.2035C112.911 49.4135 112.729 49.5768 112.496 49.6935C112.267 49.8055 111.997 49.8615 111.684 49.8615H110.613V51.6675H110.053V47.0475H111.684ZM111.6 49.3365C111.964 49.3365 112.23 49.2618 112.398 49.1125C112.566 48.9585 112.65 48.7391 112.65 48.4545C112.65 48.1651 112.566 47.9458 112.398 47.7965C112.23 47.6471 111.964 47.5725 111.6 47.5725H110.613V49.3365H111.6ZM115.608 48.0975C115.939 48.0975 116.231 48.1698 116.483 48.3145C116.739 48.4591 116.94 48.6691 117.085 48.9445C117.229 49.2151 117.302 49.5395 117.302 49.9175C117.302 50.2955 117.229 50.6221 117.085 50.8975C116.94 51.1681 116.739 51.3758 116.483 51.5205C116.231 51.6651 115.939 51.7375 115.608 51.7375C115.281 51.7375 114.989 51.6651 114.733 51.5205C114.476 51.3758 114.275 51.1681 114.131 50.8975C113.986 50.6221 113.914 50.2955 113.914 49.9175C113.914 49.5395 113.986 49.2151 114.131 48.9445C114.275 48.6691 114.476 48.4591 114.733 48.3145C114.989 48.1698 115.281 48.0975 115.608 48.0975ZM115.608 48.5805C115.37 48.5805 115.167 48.6341 114.999 48.7415C114.831 48.8488 114.7 49.0028 114.607 49.2035C114.518 49.3995 114.474 49.6375 114.474 49.9175C114.474 50.1928 114.518 50.4308 114.607 50.6315C114.7 50.8321 114.831 50.9861 114.999 51.0935C115.167 51.2008 115.37 51.2545 115.608 51.2545C115.846 51.2545 116.049 51.2008 116.217 51.0935C116.385 50.9861 116.513 50.8321 116.602 50.6315C116.695 50.4308 116.742 50.1928 116.742 49.9175C116.742 49.6375 116.695 49.3995 116.602 49.2035C116.513 49.0028 116.385 48.8488 116.217 48.7415C116.049 48.6341 115.846 48.5805 115.608 48.5805ZM119.616 51.7375C119.275 51.7375 118.96 51.6651 118.671 51.5205C118.386 51.3758 118.167 51.1705 118.013 50.9045L118.489 50.5615C118.592 50.7761 118.741 50.9441 118.937 51.0655C119.138 51.1868 119.378 51.2475 119.658 51.2475C119.905 51.2475 120.099 51.2008 120.239 51.1075C120.379 51.0095 120.449 50.8835 120.449 50.7295C120.449 50.6315 120.416 50.5428 120.351 50.4635C120.29 50.3795 120.171 50.3188 119.994 50.2815L119.154 50.1065C118.813 50.0365 118.568 49.9198 118.419 49.7565C118.274 49.5931 118.202 49.3901 118.202 49.1475C118.202 48.9561 118.256 48.7811 118.363 48.6225C118.475 48.4638 118.631 48.3378 118.832 48.2445C119.037 48.1465 119.278 48.0975 119.553 48.0975C119.898 48.0975 120.19 48.1651 120.428 48.3005C120.666 48.4358 120.843 48.6271 120.96 48.8745L120.491 49.1825C120.412 48.9771 120.283 48.8278 120.106 48.7345C119.929 48.6365 119.744 48.5875 119.553 48.5875C119.385 48.5875 119.24 48.6108 119.119 48.6575C119.002 48.7041 118.911 48.7695 118.846 48.8535C118.785 48.9328 118.755 49.0238 118.755 49.1265C118.755 49.2291 118.79 49.3248 118.86 49.4135C118.93 49.4975 119.061 49.5581 119.252 49.5955L120.127 49.7775C120.454 49.8428 120.682 49.9501 120.813 50.0995C120.944 50.2488 121.009 50.4308 121.009 50.6455C121.009 50.8648 120.951 51.0585 120.834 51.2265C120.717 51.3898 120.554 51.5158 120.344 51.6045C120.134 51.6931 119.891 51.7375 119.616 51.7375ZM122.327 47.4955C122.201 47.4955 122.099 47.4581 122.019 47.3835C121.945 47.3041 121.907 47.2015 121.907 47.0755C121.907 46.9495 121.945 46.8491 122.019 46.7745C122.099 46.6951 122.201 46.6555 122.327 46.6555C122.453 46.6555 122.554 46.6951 122.628 46.7745C122.708 46.8491 122.747 46.9495 122.747 47.0755C122.747 47.2015 122.708 47.3041 122.628 47.3835C122.554 47.4581 122.453 47.4955 122.327 47.4955ZM122.607 48.1675V51.6675H122.047V48.1675H122.607ZM124.733 47.1735V50.7015C124.733 50.8741 124.782 51.0025 124.88 51.0865C124.978 51.1705 125.104 51.2125 125.258 51.2125C125.393 51.2125 125.51 51.1891 125.608 51.1425C125.706 51.0958 125.795 51.0328 125.874 50.9535L126.07 51.4225C125.963 51.5205 125.834 51.5975 125.685 51.6535C125.54 51.7095 125.372 51.7375 125.181 51.7375C125.004 51.7375 124.838 51.7071 124.684 51.6465C124.53 51.5811 124.406 51.4808 124.313 51.3455C124.224 51.2055 124.178 51.0235 124.173 50.7995V47.3275L124.733 47.1735ZM126.007 48.1675V48.6505H123.473V48.1675H126.007ZM127.119 47.4955C126.993 47.4955 126.891 47.4581 126.811 47.3835C126.737 47.3041 126.699 47.2015 126.699 47.0755C126.699 46.9495 126.737 46.8491 126.811 46.7745C126.891 46.6951 126.993 46.6555 127.119 46.6555C127.245 46.6555 127.346 46.6951 127.42 46.7745C127.5 46.8491 127.539 46.9495 127.539 47.0755C127.539 47.2015 127.5 47.3041 127.42 47.3835C127.346 47.4581 127.245 47.4955 127.119 47.4955ZM127.399 48.1675V51.6675H126.839V48.1675H127.399ZM130.148 48.0975C130.479 48.0975 130.771 48.1698 131.023 48.3145C131.28 48.4591 131.48 48.6691 131.625 48.9445C131.77 49.2151 131.842 49.5395 131.842 49.9175C131.842 50.2955 131.77 50.6221 131.625 50.8975C131.48 51.1681 131.28 51.3758 131.023 51.5205C130.771 51.6651 130.479 51.7375 130.148 51.7375C129.821 51.7375 129.53 51.6651 129.273 51.5205C129.016 51.3758 128.816 51.1681 128.671 50.8975C128.526 50.6221 128.454 50.2955 128.454 49.9175C128.454 49.5395 128.526 49.2151 128.671 48.9445C128.816 48.6691 129.016 48.4591 129.273 48.3145C129.53 48.1698 129.821 48.0975 130.148 48.0975ZM130.148 48.5805C129.91 48.5805 129.707 48.6341 129.539 48.7415C129.371 48.8488 129.24 49.0028 129.147 49.2035C129.058 49.3995 129.014 49.6375 129.014 49.9175C129.014 50.1928 129.058 50.4308 129.147 50.6315C129.24 50.8321 129.371 50.9861 129.539 51.0935C129.707 51.2008 129.91 51.2545 130.148 51.2545C130.386 51.2545 130.589 51.2008 130.757 51.0935C130.925 50.9861 131.053 50.8321 131.142 50.6315C131.235 50.4308 131.282 50.1928 131.282 49.9175C131.282 49.6375 131.235 49.3995 131.142 49.2035C131.053 49.0028 130.925 48.8488 130.757 48.7415C130.589 48.6341 130.386 48.5805 130.148 48.5805ZM132.896 51.6675V48.1675H133.386L133.435 48.9515L133.344 48.8745C133.419 48.6878 133.519 48.5385 133.645 48.4265C133.771 48.3098 133.916 48.2258 134.079 48.1745C134.247 48.1231 134.42 48.0975 134.597 48.0975C134.849 48.0975 135.078 48.1465 135.283 48.2445C135.488 48.3378 135.652 48.4825 135.773 48.6785C135.899 48.8745 135.962 49.1241 135.962 49.4275V51.6675H135.402V49.6235C135.402 49.2361 135.318 48.9678 135.15 48.8185C134.987 48.6645 134.784 48.5875 134.541 48.5875C134.373 48.5875 134.205 48.6271 134.037 48.7065C133.869 48.7858 133.729 48.9141 133.617 49.0915C133.51 49.2688 133.456 49.5068 133.456 49.8055V51.6675H132.896Z" fill="black"/>
<circle cx="139.964" cy="49.6672" r="0.72779" fill="black"/>
<path d="M147.071 51.6675H146.476L145.986 50.3865H143.893L143.403 51.6675H142.815L144.614 47.0475H145.279L147.071 51.6675ZM144.096 49.8615H145.783L144.936 47.5865L144.096 49.8615ZM147.905 53.1375V48.1675H148.395L148.444 49.0215L148.367 48.9235C148.428 48.7601 148.519 48.6178 148.64 48.4965C148.761 48.3705 148.908 48.2725 149.081 48.2025C149.254 48.1325 149.44 48.0975 149.641 48.0975C149.926 48.0975 150.187 48.1698 150.425 48.3145C150.668 48.4591 150.861 48.6668 151.006 48.9375C151.151 49.2081 151.223 49.5348 151.223 49.9175C151.223 50.2955 151.148 50.6221 150.999 50.8975C150.854 51.1681 150.661 51.3758 150.418 51.5205C150.175 51.6651 149.909 51.7375 149.62 51.7375C149.331 51.7375 149.076 51.6675 148.857 51.5275C148.642 51.3828 148.488 51.2008 148.395 50.9815L148.465 50.8765V53.1375H147.905ZM149.564 51.2475C149.909 51.2475 150.178 51.1261 150.369 50.8835C150.565 50.6408 150.663 50.3188 150.663 49.9175C150.663 49.5161 150.567 49.1941 150.376 48.9515C150.189 48.7088 149.926 48.5875 149.585 48.5875C149.361 48.5875 149.165 48.6435 148.997 48.7555C148.829 48.8628 148.698 49.0168 148.605 49.2175C148.512 49.4135 148.465 49.6468 148.465 49.9175C148.465 50.1835 148.509 50.4168 148.598 50.6175C148.691 50.8181 148.82 50.9745 148.983 51.0865C149.151 51.1938 149.345 51.2475 149.564 51.2475ZM152.294 53.1375V48.1675H152.784L152.833 49.0215L152.756 48.9235C152.816 48.7601 152.907 48.6178 153.029 48.4965C153.15 48.3705 153.297 48.2725 153.47 48.2025C153.642 48.1325 153.829 48.0975 154.03 48.0975C154.314 48.0975 154.576 48.1698 154.814 48.3145C155.056 48.4591 155.25 48.6668 155.395 48.9375C155.539 49.2081 155.612 49.5348 155.612 49.9175C155.612 50.2955 155.537 50.6221 155.388 50.8975C155.243 51.1681 155.049 51.3758 154.807 51.5205C154.564 51.6651 154.298 51.7375 154.009 51.7375C153.719 51.7375 153.465 51.6675 153.246 51.5275C153.031 51.3828 152.877 51.2008 152.784 50.9815L152.854 50.8765V53.1375H152.294ZM153.953 51.2475C154.298 51.2475 154.566 51.1261 154.758 50.8835C154.954 50.6408 155.052 50.3188 155.052 49.9175C155.052 49.5161 154.956 49.1941 154.765 48.9515C154.578 48.7088 154.314 48.5875 153.974 48.5875C153.75 48.5875 153.554 48.6435 153.386 48.7555C153.218 48.8628 153.087 49.0168 152.994 49.2175C152.9 49.4135 152.854 49.6468 152.854 49.9175C152.854 50.1835 152.898 50.4168 152.987 50.6175C153.08 50.8181 153.208 50.9745 153.372 51.0865C153.54 51.1938 153.733 51.2475 153.953 51.2475ZM156.682 51.6675V48.1675H157.137L157.214 48.7415C157.312 48.5268 157.455 48.3658 157.641 48.2585C157.833 48.1511 158.064 48.0975 158.334 48.0975C158.395 48.0975 158.46 48.1021 158.53 48.1115C158.605 48.1208 158.668 48.1395 158.719 48.1675L158.621 48.6785C158.57 48.6598 158.514 48.6458 158.453 48.6365C158.393 48.6271 158.306 48.6225 158.194 48.6225C158.05 48.6225 157.903 48.6645 157.753 48.7485C157.609 48.8325 157.487 48.9608 157.389 49.1335C157.291 49.3015 157.242 49.5161 157.242 49.7775V51.6675H156.682ZM160.879 48.0975C161.211 48.0975 161.502 48.1698 161.754 48.3145C162.011 48.4591 162.212 48.6691 162.356 48.9445C162.501 49.2151 162.573 49.5395 162.573 49.9175C162.573 50.2955 162.501 50.6221 162.356 50.8975C162.212 51.1681 162.011 51.3758 161.754 51.5205C161.502 51.6651 161.211 51.7375 160.879 51.7375C160.553 51.7375 160.261 51.6651 160.004 51.5205C159.748 51.3758 159.547 51.1681 159.402 50.8975C159.258 50.6221 159.185 50.2955 159.185 49.9175C159.185 49.5395 159.258 49.2151 159.402 48.9445C159.547 48.6691 159.748 48.4591 160.004 48.3145C160.261 48.1698 160.553 48.0975 160.879 48.0975ZM160.879 48.5805C160.641 48.5805 160.438 48.6341 160.27 48.7415C160.102 48.8488 159.972 49.0028 159.878 49.2035C159.79 49.3995 159.745 49.6375 159.745 49.9175C159.745 50.1928 159.79 50.4308 159.878 50.6315C159.972 50.8321 160.102 50.9861 160.27 51.0935C160.438 51.2008 160.641 51.2545 160.879 51.2545C161.117 51.2545 161.32 51.2008 161.488 51.0935C161.656 50.9861 161.785 50.8321 161.873 50.6315C161.967 50.4308 162.013 50.1928 162.013 49.9175C162.013 49.6375 161.967 49.3995 161.873 49.2035C161.785 49.0028 161.656 48.8488 161.488 48.7415C161.32 48.6341 161.117 48.5805 160.879 48.5805ZM165.672 49.4065C165.672 49.1451 165.602 48.9445 165.462 48.8045C165.322 48.6598 165.123 48.5875 164.867 48.5875C164.624 48.5875 164.419 48.6411 164.251 48.7485C164.083 48.8511 163.959 49.0191 163.88 49.2525L163.425 48.9725C163.518 48.7111 163.691 48.5011 163.943 48.3425C164.195 48.1791 164.507 48.0975 164.881 48.0975C165.133 48.0975 165.361 48.1418 165.567 48.2305C165.772 48.3145 165.933 48.4451 166.05 48.6225C166.171 48.7951 166.232 49.0191 166.232 49.2945V50.9885C166.232 51.1565 166.32 51.2405 166.498 51.2405C166.586 51.2405 166.673 51.2288 166.757 51.2055L166.729 51.6465C166.635 51.6931 166.514 51.7165 166.365 51.7165C166.229 51.7165 166.108 51.6908 166.001 51.6395C165.893 51.5881 165.809 51.5111 165.749 51.4085C165.688 51.3011 165.658 51.1681 165.658 51.0095V50.9395L165.798 50.9605C165.742 51.1425 165.646 51.2918 165.511 51.4085C165.375 51.5205 165.224 51.6045 165.056 51.6605C164.888 51.7118 164.722 51.7375 164.559 51.7375C164.353 51.7375 164.162 51.7025 163.985 51.6325C163.807 51.5625 163.665 51.4575 163.558 51.3175C163.455 51.1728 163.404 50.9955 163.404 50.7855C163.404 50.5241 163.49 50.3095 163.663 50.1415C163.84 49.9688 164.085 49.8521 164.398 49.7915L165.784 49.5185V49.9805L164.657 50.2115C164.428 50.2581 164.258 50.3235 164.146 50.4075C164.034 50.4915 163.978 50.6081 163.978 50.7575C163.978 50.9021 164.034 51.0211 164.146 51.1145C164.262 51.2031 164.426 51.2475 164.636 51.2475C164.771 51.2475 164.899 51.2311 165.021 51.1985C165.147 51.1611 165.259 51.1075 165.357 51.0375C165.455 50.9628 165.532 50.8718 165.588 50.7645C165.644 50.6525 165.672 50.5218 165.672 50.3725V49.4065ZM169.041 48.0975C169.284 48.0975 169.496 48.1348 169.678 48.2095C169.865 48.2841 170.026 48.3915 170.161 48.5315C170.297 48.6715 170.406 48.8371 170.49 49.0285L169.958 49.2805C169.884 49.0565 169.769 48.8861 169.615 48.7695C169.466 48.6481 169.27 48.5875 169.027 48.5875C168.794 48.5875 168.593 48.6411 168.425 48.7485C168.257 48.8511 168.129 49.0028 168.04 49.2035C167.952 49.3995 167.907 49.6375 167.907 49.9175C167.907 50.1928 167.952 50.4308 168.04 50.6315C168.129 50.8321 168.257 50.9861 168.425 51.0935C168.593 51.1961 168.794 51.2475 169.027 51.2475C169.209 51.2475 169.366 51.2195 169.496 51.1635C169.632 51.1075 169.741 51.0258 169.825 50.9185C169.914 50.8111 169.975 50.6805 170.007 50.5265L170.525 50.7085C170.446 50.9231 170.336 51.1075 170.196 51.2615C170.061 51.4155 169.895 51.5345 169.699 51.6185C169.508 51.6978 169.289 51.7375 169.041 51.7375C168.715 51.7375 168.423 51.6651 168.166 51.5205C167.91 51.3758 167.709 51.1681 167.564 50.8975C167.42 50.6221 167.347 50.2955 167.347 49.9175C167.347 49.5395 167.42 49.2151 167.564 48.9445C167.709 48.6691 167.91 48.4591 168.166 48.3145C168.423 48.1698 168.715 48.0975 169.041 48.0975ZM171.509 51.6675V46.5575H172.069V48.6925C172.191 48.4825 172.352 48.3308 172.552 48.2375C172.753 48.1441 172.972 48.0975 173.21 48.0975C173.462 48.0975 173.691 48.1465 173.896 48.2445C174.102 48.3378 174.265 48.4825 174.386 48.6785C174.512 48.8745 174.575 49.1241 174.575 49.4275V51.6675H174.015V49.6235C174.015 49.2361 173.931 48.9678 173.763 48.8185C173.6 48.6645 173.397 48.5875 173.154 48.5875C172.986 48.5875 172.818 48.6271 172.65 48.7065C172.482 48.7858 172.342 48.9165 172.23 49.0985C172.123 49.2758 172.069 49.5138 172.069 49.8125V51.6675H171.509Z" fill="black"/>
<defs>
<linearGradient id="paint0_linear_255_2846" x1="46.6045" y1="18.6802" x2="107.623" y2="147.984" gradientUnits="userSpaceOnUse">
<stop stop-color="#FFB54C"/>
<stop offset="1" stop-color="#996C2D"/>
</linearGradient>
<linearGradient id="paint1_linear_255_2846" x1="15.2558" y1="19.7251" x2="58.8601" y2="101.406" gradientUnits="userSpaceOnUse">
<stop stop-color="#007EE4"/>
<stop offset="1" stop-color="#00467E"/>
</linearGradient>
</defs>
</svg>
