<svg width="216" height="55" viewBox="0 0 216 55" fill="none" xmlns="http://www.w3.org/2000/svg">
<path d="M32.498 18.6797C38.1294 23.0052 46.9179 29.7558 46.9179 29.7558L60.7109 21.292V53.8562" stroke="url(#paint0_linear_255_3216)" stroke-width="10.2402"/>
<path d="M0 19.7246H30.5117V34.9804M30.5117 34.9804C30.5117 34.9804 18.7299 34.9804 11.1806 34.9804M30.5117 34.9804V48.7734H0" stroke="url(#paint1_linear_255_3216)" stroke-width="10.2402"/>
<path d="M78.3001 13.2363V35.1323C78.3001 36.021 78.4482 36.6539 78.7444 37.031C79.0407 37.408 79.5389 37.5966 80.2392 37.5966C80.6432 37.5966 80.9798 37.5696 81.2491 37.5158C81.5185 37.4619 81.8417 37.3811 82.2187 37.2734L81.7743 41.394C81.2895 41.6903 80.6566 41.9327 79.8756 42.1212C79.0946 42.3097 78.327 42.404 77.5729 42.404C75.4183 42.404 73.8562 41.9057 72.8867 40.9092C71.9171 39.9127 71.4323 38.2833 71.4323 36.021V13.2363H78.3001ZM96.3162 29.1937C96.3162 28.2511 96.0469 27.5104 95.5082 26.9718C94.9965 26.4062 94.2963 26.1234 93.4075 26.1234C92.5187 26.1234 91.7512 26.3523 91.1048 26.8102C90.4853 27.2411 90.0544 28.0222 89.812 29.1533L83.9947 27.7798C84.3717 25.8406 85.3682 24.292 86.9841 23.1339C88.6001 21.9759 90.8759 21.3968 93.8115 21.3968C95.7775 21.3968 97.4473 21.6931 98.8209 22.2856C100.221 22.8512 101.285 23.713 102.012 24.8711C102.766 26.0022 103.144 27.4027 103.144 29.0725V36.4654C103.144 37.5158 103.615 38.041 104.557 38.041C105.042 38.041 105.433 37.9871 105.729 37.8794L105.325 41.798C104.517 42.1751 103.534 42.3636 102.376 42.3636C101.326 42.3636 100.396 42.202 99.5884 41.8788C98.7805 41.5287 98.1476 41.017 97.6897 40.3437C97.2319 39.6434 97.0029 38.7681 97.0029 37.7178V37.4754L97.7705 37.1926C97.7705 38.3507 97.4204 39.3202 96.7202 40.1013C96.0469 40.8823 95.1581 41.4614 94.0539 41.8384C92.9766 42.2155 91.8454 42.404 90.6604 42.404C89.2869 42.404 88.0884 42.1885 87.0649 41.7576C86.0415 41.3267 85.247 40.7073 84.6814 39.8993C84.1428 39.0644 83.8735 38.041 83.8735 36.829C83.8735 35.3747 84.3044 34.1762 85.1662 33.2335C86.055 32.264 87.442 31.5907 89.3273 31.2136L96.9625 29.6381L96.9222 33.2739L93.0439 34.0819C92.2359 34.2435 91.63 34.4859 91.226 34.8091C90.8489 35.1053 90.6604 35.5632 90.6604 36.1826C90.6604 36.7751 90.8759 37.2195 91.3068 37.5158C91.7377 37.812 92.2494 37.9602 92.8419 37.9602C93.2998 37.9602 93.7307 37.8928 94.1347 37.7582C94.5656 37.6235 94.9426 37.4215 95.2658 37.1522C95.589 36.8559 95.8449 36.4924 96.0334 36.0614C96.2219 35.6305 96.3162 35.1188 96.3162 34.5263V29.1937ZM115.267 42.404C113.894 42.404 112.682 42.1751 111.631 41.7172C110.608 41.2324 109.8 40.4649 109.207 39.4145C108.615 38.3641 108.319 36.9906 108.319 35.2939V21.8008H115.186V33.6779C115.186 34.9707 115.442 35.8729 115.954 36.3846C116.466 36.8963 117.193 37.1522 118.135 37.1522C118.62 37.1522 119.078 37.0714 119.509 36.9098C119.94 36.7213 120.317 36.452 120.64 36.1018C120.963 35.7248 121.206 35.2535 121.367 34.6879C121.556 34.0954 121.65 33.4086 121.65 32.6276V21.8008H128.518V42H122.377L122.175 38.2025C121.529 39.63 120.627 40.6938 119.469 41.394C118.31 42.0673 116.91 42.404 115.267 42.404ZM133.452 42V21.8008H139.593L139.956 28.7493L139.189 27.9818C139.458 26.5274 139.929 25.3155 140.603 24.3459C141.303 23.3763 142.165 22.6492 143.188 22.1644C144.238 21.6527 145.41 21.3968 146.703 21.3968C148.103 21.3968 149.315 21.6661 150.339 22.2048C151.389 22.7434 152.21 23.5379 152.803 24.5883C153.395 25.6386 153.692 26.9583 153.692 28.5473V42H146.824V30.3653C146.824 28.9648 146.555 27.9952 146.016 27.4566C145.477 26.9179 144.791 26.6486 143.956 26.6486C143.309 26.6486 142.703 26.8102 142.138 27.1334C141.572 27.4296 141.128 27.9144 140.805 28.5877C140.481 29.261 140.32 30.1633 140.32 31.2944V42H133.452ZM168.078 21.3968C170.125 21.3968 171.822 21.6931 173.168 22.2856C174.542 22.8512 175.606 23.6187 176.36 24.5883C177.141 25.5309 177.626 26.5543 177.814 27.6586L171.472 29.7593C171.283 28.6012 170.933 27.7394 170.421 27.1738C169.937 26.5813 169.223 26.285 168.28 26.285C167.418 26.285 166.691 26.487 166.099 26.891C165.533 27.268 165.102 27.8875 164.806 28.7493C164.51 29.5842 164.362 30.6615 164.362 31.9812C164.362 33.3009 164.523 34.3782 164.846 35.2131C165.17 36.021 165.627 36.6135 166.22 36.9906C166.812 37.3407 167.513 37.5158 168.321 37.5158C168.994 37.5158 169.546 37.3946 169.977 37.1522C170.435 36.8829 170.812 36.5058 171.108 36.021C171.404 35.5363 171.593 34.9437 171.674 34.2435L177.855 36.223C177.666 37.408 177.154 38.4719 176.32 39.4145C175.512 40.3302 174.434 41.0574 173.088 41.596C171.741 42.1347 170.166 42.404 168.361 42.404C166.153 42.404 164.227 42 162.584 41.192C160.941 40.3571 159.675 39.1586 158.787 37.5966C157.898 36.0076 157.453 34.1088 157.453 31.9004C157.453 29.692 157.898 27.8067 158.787 26.2446C159.675 24.6556 160.914 23.4571 162.503 22.6492C164.119 21.8143 165.978 21.3968 168.078 21.3968ZM181.425 42V13.2363H188.293V25.4771C188.885 24.1304 189.734 23.1205 190.838 22.4472C191.942 21.7469 193.222 21.3968 194.676 21.3968C196.076 21.3968 197.288 21.6661 198.312 22.2048C199.362 22.7434 200.184 23.5379 200.776 24.5883C201.369 25.6386 201.665 26.9583 201.665 28.5473V42H194.797V30.4461C194.797 28.9917 194.528 27.9952 193.989 27.4566C193.477 26.891 192.791 26.6082 191.929 26.6082C191.282 26.6082 190.676 26.7698 190.111 27.093C189.545 27.4162 189.101 27.9279 188.778 28.6281C188.455 29.3284 188.293 30.2441 188.293 31.3752V42H181.425Z" fill="white"/>
<path d="M74.465 47.048C74.9363 47.048 75.3143 47.1693 75.599 47.412C75.8837 47.6546 76.026 47.9836 76.026 48.399C76.026 48.8143 75.8813 49.1386 75.592 49.372C75.3073 49.6006 74.9293 49.715 74.458 49.715L74.409 49.75H73.275V51.668H72.715V47.048H74.465ZM74.458 49.225C74.7893 49.225 75.0343 49.1573 75.193 49.022C75.3563 48.882 75.438 48.6743 75.438 48.399C75.438 48.1236 75.3563 47.9183 75.193 47.783C75.0343 47.643 74.7893 47.573 74.458 47.573H73.275V49.225H74.458ZM74.78 49.337L76.306 51.668H75.641L74.311 49.645L74.78 49.337ZM78.612 51.738C78.2807 51.738 77.9844 51.6656 77.723 51.521C77.4664 51.3763 77.2657 51.1686 77.121 50.898C76.9764 50.6226 76.904 50.296 76.904 49.918C76.904 49.54 76.9764 49.2156 77.121 48.945C77.2657 48.6696 77.464 48.4596 77.716 48.315C77.968 48.1703 78.255 48.098 78.577 48.098C78.9037 48.098 79.1814 48.168 79.41 48.308C79.6434 48.448 79.8207 48.6393 79.942 48.882C80.0634 49.12 80.124 49.3883 80.124 49.687C80.124 49.7663 80.1217 49.8386 80.117 49.904C80.1124 49.9693 80.1054 50.0276 80.096 50.079H77.268V49.582H79.851L79.564 49.638C79.564 49.302 79.4707 49.043 79.284 48.861C79.102 48.679 78.8617 48.588 78.563 48.588C78.3344 48.588 78.136 48.6416 77.968 48.749C77.8047 48.8516 77.6764 49.0033 77.583 49.204C77.4944 49.4 77.45 49.638 77.45 49.918C77.45 50.1933 77.4967 50.4313 77.59 50.632C77.6834 50.8326 77.814 50.9866 77.982 51.094C78.1547 51.1966 78.36 51.248 78.598 51.248C78.8547 51.248 79.0624 51.199 79.221 51.101C79.3844 51.003 79.515 50.87 79.613 50.702L80.054 50.961C79.9654 51.1196 79.851 51.2573 79.711 51.374C79.5757 51.4906 79.4147 51.5816 79.228 51.647C79.046 51.7076 78.8407 51.738 78.612 51.738ZM82.4491 51.738C82.1084 51.738 81.7934 51.6656 81.5041 51.521C81.2194 51.3763 81.0001 51.171 80.8461 50.905L81.3221 50.562C81.4248 50.7766 81.5741 50.9446 81.7701 51.066C81.9708 51.1873 82.2111 51.248 82.4911 51.248C82.7384 51.248 82.9321 51.2013 83.0721 51.108C83.2121 51.01 83.2821 50.884 83.2821 50.73C83.2821 50.632 83.2494 50.5433 83.1841 50.464C83.1234 50.38 83.0044 50.3193 82.8271 50.282L81.9871 50.107C81.6464 50.037 81.4014 49.9203 81.2521 49.757C81.1074 49.5936 81.0351 49.3906 81.0351 49.148C81.0351 48.9566 81.0888 48.7816 81.1961 48.623C81.3081 48.4643 81.4644 48.3383 81.6651 48.245C81.8704 48.147 82.1108 48.098 82.3861 48.098C82.7314 48.098 83.0231 48.1656 83.2611 48.301C83.4991 48.4363 83.6764 48.6276 83.7931 48.875L83.3241 49.183C83.2448 48.9776 83.1164 48.8283 82.9391 48.735C82.7618 48.637 82.5774 48.588 82.3861 48.588C82.2181 48.588 82.0734 48.6113 81.9521 48.658C81.8354 48.7046 81.7444 48.77 81.6791 48.854C81.6184 48.9333 81.5881 49.0243 81.5881 49.127C81.5881 49.2296 81.6231 49.3253 81.6931 49.414C81.7631 49.498 81.8938 49.5586 82.0851 49.596L82.9601 49.778C83.2868 49.8433 83.5154 49.9506 83.6461 50.1C83.7768 50.2493 83.8421 50.4313 83.8421 50.646C83.8421 50.8653 83.7838 51.059 83.6671 51.227C83.5504 51.3903 83.3871 51.5163 83.1771 51.605C82.9671 51.6936 82.7244 51.738 82.4491 51.738ZM86.3435 51.738C86.0122 51.738 85.7158 51.6656 85.4545 51.521C85.1978 51.3763 84.9972 51.1686 84.8525 50.898C84.7078 50.6226 84.6355 50.296 84.6355 49.918C84.6355 49.54 84.7078 49.2156 84.8525 48.945C84.9972 48.6696 85.1955 48.4596 85.4475 48.315C85.6995 48.1703 85.9865 48.098 86.3085 48.098C86.6352 48.098 86.9128 48.168 87.1415 48.308C87.3748 48.448 87.5522 48.6393 87.6735 48.882C87.7948 49.12 87.8555 49.3883 87.8555 49.687C87.8555 49.7663 87.8532 49.8386 87.8485 49.904C87.8438 49.9693 87.8368 50.0276 87.8275 50.079H84.9995V49.582H87.5825L87.2955 49.638C87.2955 49.302 87.2022 49.043 87.0155 48.861C86.8335 48.679 86.5932 48.588 86.2945 48.588C86.0658 48.588 85.8675 48.6416 85.6995 48.749C85.5362 48.8516 85.4078 49.0033 85.3145 49.204C85.2258 49.4 85.1815 49.638 85.1815 49.918C85.1815 50.1933 85.2282 50.4313 85.3215 50.632C85.4148 50.8326 85.5455 50.9866 85.7135 51.094C85.8862 51.1966 86.0915 51.248 86.3295 51.248C86.5862 51.248 86.7938 51.199 86.9525 51.101C87.1158 51.003 87.2465 50.87 87.3445 50.702L87.7855 50.961C87.6968 51.1196 87.5825 51.2573 87.4425 51.374C87.3072 51.4906 87.1462 51.5816 86.9595 51.647C86.7775 51.7076 86.5722 51.738 86.3435 51.738ZM90.9645 49.407C90.9645 49.1456 90.8945 48.945 90.7545 48.805C90.6145 48.6603 90.4162 48.588 90.1595 48.588C89.9169 48.588 89.7115 48.6416 89.5435 48.749C89.3755 48.8516 89.2519 49.0196 89.1725 49.253L88.7175 48.973C88.8109 48.7116 88.9835 48.5016 89.2355 48.343C89.4875 48.1796 89.8002 48.098 90.1735 48.098C90.4255 48.098 90.6542 48.1423 90.8595 48.231C91.0649 48.315 91.2259 48.4456 91.3425 48.623C91.4639 48.7956 91.5245 49.0196 91.5245 49.295V50.989C91.5245 51.157 91.6132 51.241 91.7905 51.241C91.8792 51.241 91.9655 51.2293 92.0495 51.206L92.0215 51.647C91.9282 51.6936 91.8069 51.717 91.6575 51.717C91.5222 51.717 91.4009 51.6913 91.2935 51.64C91.1862 51.5886 91.1022 51.5116 91.0415 51.409C90.9809 51.3016 90.9505 51.1686 90.9505 51.01V50.94L91.0905 50.961C91.0345 51.143 90.9389 51.2923 90.8035 51.409C90.6682 51.521 90.5165 51.605 90.3485 51.661C90.1805 51.7123 90.0149 51.738 89.8515 51.738C89.6462 51.738 89.4549 51.703 89.2775 51.633C89.1002 51.563 88.9579 51.458 88.8505 51.318C88.7479 51.1733 88.6965 50.996 88.6965 50.786C88.6965 50.5246 88.7829 50.31 88.9555 50.142C89.1329 49.9693 89.3779 49.8526 89.6905 49.792L91.0765 49.519V49.981L89.9495 50.212C89.7209 50.2586 89.5505 50.324 89.4385 50.408C89.3265 50.492 89.2705 50.6086 89.2705 50.758C89.2705 50.9026 89.3265 51.0216 89.4385 51.115C89.5552 51.2036 89.7185 51.248 89.9285 51.248C90.0639 51.248 90.1922 51.2316 90.3135 51.199C90.4395 51.1616 90.5515 51.108 90.6495 51.038C90.7475 50.9633 90.8245 50.8723 90.8805 50.765C90.9365 50.653 90.9645 50.5223 90.9645 50.373V49.407ZM92.8854 51.668V48.168H93.3404L93.4174 48.742C93.5154 48.5273 93.6577 48.3663 93.8444 48.259C94.0357 48.1516 94.2667 48.098 94.5374 48.098C94.598 48.098 94.6634 48.1026 94.7334 48.112C94.808 48.1213 94.871 48.14 94.9224 48.168L94.8244 48.679C94.773 48.6603 94.717 48.6463 94.6564 48.637C94.5957 48.6276 94.5094 48.623 94.3974 48.623C94.2527 48.623 94.1057 48.665 93.9564 48.749C93.8117 48.833 93.6904 48.9613 93.5924 49.134C93.4944 49.302 93.4454 49.5166 93.4454 49.778V51.668H92.8854ZM97.0824 48.098C97.3251 48.098 97.5374 48.1353 97.7194 48.21C97.9061 48.2846 98.0671 48.392 98.2024 48.532C98.3378 48.672 98.4474 48.8376 98.5314 49.029L97.9994 49.281C97.9248 49.057 97.8104 48.8866 97.6564 48.77C97.5071 48.6486 97.3111 48.588 97.0684 48.588C96.8351 48.588 96.6344 48.6416 96.4664 48.749C96.2984 48.8516 96.1701 49.0033 96.0814 49.204C95.9928 49.4 95.9484 49.638 95.9484 49.918C95.9484 50.1933 95.9928 50.4313 96.0814 50.632C96.1701 50.8326 96.2984 50.9866 96.4664 51.094C96.6344 51.1966 96.8351 51.248 97.0684 51.248C97.2504 51.248 97.4068 51.22 97.5374 51.164C97.6728 51.108 97.7824 51.0263 97.8664 50.919C97.9551 50.8116 98.0158 50.681 98.0484 50.527L98.5664 50.709C98.4871 50.9236 98.3774 51.108 98.2374 51.262C98.1021 51.416 97.9364 51.535 97.7404 51.619C97.5491 51.6983 97.3298 51.738 97.0824 51.738C96.7558 51.738 96.4641 51.6656 96.2074 51.521C95.9508 51.3763 95.7501 51.1686 95.6054 50.898C95.4608 50.6226 95.3884 50.296 95.3884 49.918C95.3884 49.54 95.4608 49.2156 95.6054 48.945C95.7501 48.6696 95.9508 48.4596 96.2074 48.315C96.4641 48.1703 96.7558 48.098 97.0824 48.098ZM99.5504 51.668V46.558H100.11V48.693C100.232 48.483 100.393 48.3313 100.593 48.238C100.794 48.1446 101.013 48.098 101.251 48.098C101.503 48.098 101.732 48.147 101.937 48.245C102.143 48.3383 102.306 48.483 102.427 48.679C102.553 48.875 102.616 49.1246 102.616 49.428V51.668H102.056V49.624C102.056 49.2366 101.972 48.9683 101.804 48.819C101.641 48.665 101.438 48.588 101.195 48.588C101.027 48.588 100.859 48.6276 100.691 48.707C100.523 48.7863 100.383 48.917 100.271 49.099C100.164 49.2763 100.11 49.5143 100.11 49.813V51.668H99.5504Z" fill="white"/>
<circle cx="106.628" cy="49.6682" r="0.72779" fill="white"/>
<path d="M111.684 47.048C111.997 47.048 112.267 47.1063 112.496 47.223C112.729 47.335 112.911 47.496 113.042 47.706C113.173 47.916 113.238 48.1656 113.238 48.455C113.238 48.7443 113.173 48.994 113.042 49.204C112.911 49.414 112.729 49.5773 112.496 49.694C112.267 49.806 111.997 49.862 111.684 49.862H110.613V51.668H110.053V47.048H111.684ZM111.6 49.337C111.964 49.337 112.23 49.2623 112.398 49.113C112.566 48.959 112.65 48.7396 112.65 48.455C112.65 48.1656 112.566 47.9463 112.398 47.797C112.23 47.6476 111.964 47.573 111.6 47.573H110.613V49.337H111.6ZM115.608 48.098C115.939 48.098 116.231 48.1703 116.483 48.315C116.739 48.4596 116.94 48.6696 117.085 48.945C117.229 49.2156 117.302 49.54 117.302 49.918C117.302 50.296 117.229 50.6226 117.085 50.898C116.94 51.1686 116.739 51.3763 116.483 51.521C116.231 51.6656 115.939 51.738 115.608 51.738C115.281 51.738 114.989 51.6656 114.733 51.521C114.476 51.3763 114.275 51.1686 114.131 50.898C113.986 50.6226 113.914 50.296 113.914 49.918C113.914 49.54 113.986 49.2156 114.131 48.945C114.275 48.6696 114.476 48.4596 114.733 48.315C114.989 48.1703 115.281 48.098 115.608 48.098ZM115.608 48.581C115.37 48.581 115.167 48.6346 114.999 48.742C114.831 48.8493 114.7 49.0033 114.607 49.204C114.518 49.4 114.474 49.638 114.474 49.918C114.474 50.1933 114.518 50.4313 114.607 50.632C114.7 50.8326 114.831 50.9866 114.999 51.094C115.167 51.2013 115.37 51.255 115.608 51.255C115.846 51.255 116.049 51.2013 116.217 51.094C116.385 50.9866 116.513 50.8326 116.602 50.632C116.695 50.4313 116.742 50.1933 116.742 49.918C116.742 49.638 116.695 49.4 116.602 49.204C116.513 49.0033 116.385 48.8493 116.217 48.742C116.049 48.6346 115.846 48.581 115.608 48.581ZM119.616 51.738C119.275 51.738 118.96 51.6656 118.671 51.521C118.386 51.3763 118.167 51.171 118.013 50.905L118.489 50.562C118.592 50.7766 118.741 50.9446 118.937 51.066C119.138 51.1873 119.378 51.248 119.658 51.248C119.905 51.248 120.099 51.2013 120.239 51.108C120.379 51.01 120.449 50.884 120.449 50.73C120.449 50.632 120.416 50.5433 120.351 50.464C120.29 50.38 120.171 50.3193 119.994 50.282L119.154 50.107C118.813 50.037 118.568 49.9203 118.419 49.757C118.274 49.5936 118.202 49.3906 118.202 49.148C118.202 48.9566 118.256 48.7816 118.363 48.623C118.475 48.4643 118.631 48.3383 118.832 48.245C119.037 48.147 119.278 48.098 119.553 48.098C119.898 48.098 120.19 48.1656 120.428 48.301C120.666 48.4363 120.843 48.6276 120.96 48.875L120.491 49.183C120.412 48.9776 120.283 48.8283 120.106 48.735C119.929 48.637 119.744 48.588 119.553 48.588C119.385 48.588 119.24 48.6113 119.119 48.658C119.002 48.7046 118.911 48.77 118.846 48.854C118.785 48.9333 118.755 49.0243 118.755 49.127C118.755 49.2296 118.79 49.3253 118.86 49.414C118.93 49.498 119.061 49.5586 119.252 49.596L120.127 49.778C120.454 49.8433 120.682 49.9506 120.813 50.1C120.944 50.2493 121.009 50.4313 121.009 50.646C121.009 50.8653 120.951 51.059 120.834 51.227C120.717 51.3903 120.554 51.5163 120.344 51.605C120.134 51.6936 119.891 51.738 119.616 51.738ZM122.327 47.496C122.201 47.496 122.099 47.4586 122.019 47.384C121.945 47.3046 121.907 47.202 121.907 47.076C121.907 46.95 121.945 46.8496 122.019 46.775C122.099 46.6956 122.201 46.656 122.327 46.656C122.453 46.656 122.554 46.6956 122.628 46.775C122.708 46.8496 122.747 46.95 122.747 47.076C122.747 47.202 122.708 47.3046 122.628 47.384C122.554 47.4586 122.453 47.496 122.327 47.496ZM122.607 48.168V51.668H122.047V48.168H122.607ZM124.733 47.174V50.702C124.733 50.8746 124.782 51.003 124.88 51.087C124.978 51.171 125.104 51.213 125.258 51.213C125.393 51.213 125.51 51.1896 125.608 51.143C125.706 51.0963 125.795 51.0333 125.874 50.954L126.07 51.423C125.963 51.521 125.834 51.598 125.685 51.654C125.54 51.71 125.372 51.738 125.181 51.738C125.004 51.738 124.838 51.7076 124.684 51.647C124.53 51.5816 124.406 51.4813 124.313 51.346C124.224 51.206 124.178 51.024 124.173 50.8V47.328L124.733 47.174ZM126.007 48.168V48.651H123.473V48.168H126.007ZM127.119 47.496C126.993 47.496 126.891 47.4586 126.811 47.384C126.737 47.3046 126.699 47.202 126.699 47.076C126.699 46.95 126.737 46.8496 126.811 46.775C126.891 46.6956 126.993 46.656 127.119 46.656C127.245 46.656 127.346 46.6956 127.42 46.775C127.5 46.8496 127.539 46.95 127.539 47.076C127.539 47.202 127.5 47.3046 127.42 47.384C127.346 47.4586 127.245 47.496 127.119 47.496ZM127.399 48.168V51.668H126.839V48.168H127.399ZM130.148 48.098C130.479 48.098 130.771 48.1703 131.023 48.315C131.28 48.4596 131.48 48.6696 131.625 48.945C131.77 49.2156 131.842 49.54 131.842 49.918C131.842 50.296 131.77 50.6226 131.625 50.898C131.48 51.1686 131.28 51.3763 131.023 51.521C130.771 51.6656 130.479 51.738 130.148 51.738C129.821 51.738 129.53 51.6656 129.273 51.521C129.016 51.3763 128.816 51.1686 128.671 50.898C128.526 50.6226 128.454 50.296 128.454 49.918C128.454 49.54 128.526 49.2156 128.671 48.945C128.816 48.6696 129.016 48.4596 129.273 48.315C129.53 48.1703 129.821 48.098 130.148 48.098ZM130.148 48.581C129.91 48.581 129.707 48.6346 129.539 48.742C129.371 48.8493 129.24 49.0033 129.147 49.204C129.058 49.4 129.014 49.638 129.014 49.918C129.014 50.1933 129.058 50.4313 129.147 50.632C129.24 50.8326 129.371 50.9866 129.539 51.094C129.707 51.2013 129.91 51.255 130.148 51.255C130.386 51.255 130.589 51.2013 130.757 51.094C130.925 50.9866 131.053 50.8326 131.142 50.632C131.235 50.4313 131.282 50.1933 131.282 49.918C131.282 49.638 131.235 49.4 131.142 49.204C131.053 49.0033 130.925 48.8493 130.757 48.742C130.589 48.6346 130.386 48.581 130.148 48.581ZM132.896 51.668V48.168H133.386L133.435 48.952L133.344 48.875C133.419 48.6883 133.519 48.539 133.645 48.427C133.771 48.3103 133.916 48.2263 134.079 48.175C134.247 48.1236 134.42 48.098 134.597 48.098C134.849 48.098 135.078 48.147 135.283 48.245C135.488 48.3383 135.652 48.483 135.773 48.679C135.899 48.875 135.962 49.1246 135.962 49.428V51.668H135.402V49.624C135.402 49.2366 135.318 48.9683 135.15 48.819C134.987 48.665 134.784 48.588 134.541 48.588C134.373 48.588 134.205 48.6276 134.037 48.707C133.869 48.7863 133.729 48.9146 133.617 49.092C133.51 49.2693 133.456 49.5073 133.456 49.806V51.668H132.896Z" fill="white"/>
<circle cx="139.964" cy="49.6682" r="0.72779" fill="white"/>
<path d="M147.071 51.668H146.476L145.986 50.387H143.893L143.403 51.668H142.815L144.614 47.048H145.279L147.071 51.668ZM144.096 49.862H145.783L144.936 47.587L144.096 49.862ZM147.905 53.138V48.168H148.395L148.444 49.022L148.367 48.924C148.428 48.7606 148.519 48.6183 148.64 48.497C148.761 48.371 148.908 48.273 149.081 48.203C149.254 48.133 149.44 48.098 149.641 48.098C149.926 48.098 150.187 48.1703 150.425 48.315C150.668 48.4596 150.861 48.6673 151.006 48.938C151.151 49.2086 151.223 49.5353 151.223 49.918C151.223 50.296 151.148 50.6226 150.999 50.898C150.854 51.1686 150.661 51.3763 150.418 51.521C150.175 51.6656 149.909 51.738 149.62 51.738C149.331 51.738 149.076 51.668 148.857 51.528C148.642 51.3833 148.488 51.2013 148.395 50.982L148.465 50.877V53.138H147.905ZM149.564 51.248C149.909 51.248 150.178 51.1266 150.369 50.884C150.565 50.6413 150.663 50.3193 150.663 49.918C150.663 49.5166 150.567 49.1946 150.376 48.952C150.189 48.7093 149.926 48.588 149.585 48.588C149.361 48.588 149.165 48.644 148.997 48.756C148.829 48.8633 148.698 49.0173 148.605 49.218C148.512 49.414 148.465 49.6473 148.465 49.918C148.465 50.184 148.509 50.4173 148.598 50.618C148.691 50.8186 148.82 50.975 148.983 51.087C149.151 51.1943 149.345 51.248 149.564 51.248ZM152.294 53.138V48.168H152.784L152.833 49.022L152.756 48.924C152.816 48.7606 152.907 48.6183 153.029 48.497C153.15 48.371 153.297 48.273 153.47 48.203C153.642 48.133 153.829 48.098 154.03 48.098C154.314 48.098 154.576 48.1703 154.814 48.315C155.056 48.4596 155.25 48.6673 155.395 48.938C155.539 49.2086 155.612 49.5353 155.612 49.918C155.612 50.296 155.537 50.6226 155.388 50.898C155.243 51.1686 155.049 51.3763 154.807 51.521C154.564 51.6656 154.298 51.738 154.009 51.738C153.719 51.738 153.465 51.668 153.246 51.528C153.031 51.3833 152.877 51.2013 152.784 50.982L152.854 50.877V53.138H152.294ZM153.953 51.248C154.298 51.248 154.566 51.1266 154.758 50.884C154.954 50.6413 155.052 50.3193 155.052 49.918C155.052 49.5166 154.956 49.1946 154.765 48.952C154.578 48.7093 154.314 48.588 153.974 48.588C153.75 48.588 153.554 48.644 153.386 48.756C153.218 48.8633 153.087 49.0173 152.994 49.218C152.9 49.414 152.854 49.6473 152.854 49.918C152.854 50.184 152.898 50.4173 152.987 50.618C153.08 50.8186 153.208 50.975 153.372 51.087C153.54 51.1943 153.733 51.248 153.953 51.248ZM156.682 51.668V48.168H157.137L157.214 48.742C157.312 48.5273 157.455 48.3663 157.641 48.259C157.833 48.1516 158.064 48.098 158.334 48.098C158.395 48.098 158.46 48.1026 158.53 48.112C158.605 48.1213 158.668 48.14 158.719 48.168L158.621 48.679C158.57 48.6603 158.514 48.6463 158.453 48.637C158.393 48.6276 158.306 48.623 158.194 48.623C158.05 48.623 157.903 48.665 157.753 48.749C157.609 48.833 157.487 48.9613 157.389 49.134C157.291 49.302 157.242 49.5166 157.242 49.778V51.668H156.682ZM160.879 48.098C161.211 48.098 161.502 48.1703 161.754 48.315C162.011 48.4596 162.212 48.6696 162.356 48.945C162.501 49.2156 162.573 49.54 162.573 49.918C162.573 50.296 162.501 50.6226 162.356 50.898C162.212 51.1686 162.011 51.3763 161.754 51.521C161.502 51.6656 161.211 51.738 160.879 51.738C160.553 51.738 160.261 51.6656 160.004 51.521C159.748 51.3763 159.547 51.1686 159.402 50.898C159.258 50.6226 159.185 50.296 159.185 49.918C159.185 49.54 159.258 49.2156 159.402 48.945C159.547 48.6696 159.748 48.4596 160.004 48.315C160.261 48.1703 160.553 48.098 160.879 48.098ZM160.879 48.581C160.641 48.581 160.438 48.6346 160.27 48.742C160.102 48.8493 159.972 49.0033 159.878 49.204C159.79 49.4 159.745 49.638 159.745 49.918C159.745 50.1933 159.79 50.4313 159.878 50.632C159.972 50.8326 160.102 50.9866 160.27 51.094C160.438 51.2013 160.641 51.255 160.879 51.255C161.117 51.255 161.32 51.2013 161.488 51.094C161.656 50.9866 161.785 50.8326 161.873 50.632C161.967 50.4313 162.013 50.1933 162.013 49.918C162.013 49.638 161.967 49.4 161.873 49.204C161.785 49.0033 161.656 48.8493 161.488 48.742C161.32 48.6346 161.117 48.581 160.879 48.581ZM165.672 49.407C165.672 49.1456 165.602 48.945 165.462 48.805C165.322 48.6603 165.123 48.588 164.867 48.588C164.624 48.588 164.419 48.6416 164.251 48.749C164.083 48.8516 163.959 49.0196 163.88 49.253L163.425 48.973C163.518 48.7116 163.691 48.5016 163.943 48.343C164.195 48.1796 164.507 48.098 164.881 48.098C165.133 48.098 165.361 48.1423 165.567 48.231C165.772 48.315 165.933 48.4456 166.05 48.623C166.171 48.7956 166.232 49.0196 166.232 49.295V50.989C166.232 51.157 166.32 51.241 166.498 51.241C166.586 51.241 166.673 51.2293 166.757 51.206L166.729 51.647C166.635 51.6936 166.514 51.717 166.365 51.717C166.229 51.717 166.108 51.6913 166.001 51.64C165.893 51.5886 165.809 51.5116 165.749 51.409C165.688 51.3016 165.658 51.1686 165.658 51.01V50.94L165.798 50.961C165.742 51.143 165.646 51.2923 165.511 51.409C165.375 51.521 165.224 51.605 165.056 51.661C164.888 51.7123 164.722 51.738 164.559 51.738C164.353 51.738 164.162 51.703 163.985 51.633C163.807 51.563 163.665 51.458 163.558 51.318C163.455 51.1733 163.404 50.996 163.404 50.786C163.404 50.5246 163.49 50.31 163.663 50.142C163.84 49.9693 164.085 49.8526 164.398 49.792L165.784 49.519V49.981L164.657 50.212C164.428 50.2586 164.258 50.324 164.146 50.408C164.034 50.492 163.978 50.6086 163.978 50.758C163.978 50.9026 164.034 51.0216 164.146 51.115C164.262 51.2036 164.426 51.248 164.636 51.248C164.771 51.248 164.899 51.2316 165.021 51.199C165.147 51.1616 165.259 51.108 165.357 51.038C165.455 50.9633 165.532 50.8723 165.588 50.765C165.644 50.653 165.672 50.5223 165.672 50.373V49.407ZM169.041 48.098C169.284 48.098 169.496 48.1353 169.678 48.21C169.865 48.2846 170.026 48.392 170.161 48.532C170.297 48.672 170.406 48.8376 170.49 49.029L169.958 49.281C169.884 49.057 169.769 48.8866 169.615 48.77C169.466 48.6486 169.27 48.588 169.027 48.588C168.794 48.588 168.593 48.6416 168.425 48.749C168.257 48.8516 168.129 49.0033 168.04 49.204C167.952 49.4 167.907 49.638 167.907 49.918C167.907 50.1933 167.952 50.4313 168.04 50.632C168.129 50.8326 168.257 50.9866 168.425 51.094C168.593 51.1966 168.794 51.248 169.027 51.248C169.209 51.248 169.366 51.22 169.496 51.164C169.632 51.108 169.741 51.0263 169.825 50.919C169.914 50.8116 169.975 50.681 170.007 50.527L170.525 50.709C170.446 50.9236 170.336 51.108 170.196 51.262C170.061 51.416 169.895 51.535 169.699 51.619C169.508 51.6983 169.289 51.738 169.041 51.738C168.715 51.738 168.423 51.6656 168.166 51.521C167.91 51.3763 167.709 51.1686 167.564 50.898C167.42 50.6226 167.347 50.296 167.347 49.918C167.347 49.54 167.42 49.2156 167.564 48.945C167.709 48.6696 167.91 48.4596 168.166 48.315C168.423 48.1703 168.715 48.098 169.041 48.098ZM171.509 51.668V46.558H172.069V48.693C172.191 48.483 172.352 48.3313 172.552 48.238C172.753 48.1446 172.972 48.098 173.21 48.098C173.462 48.098 173.691 48.147 173.896 48.245C174.102 48.3383 174.265 48.483 174.386 48.679C174.512 48.875 174.575 49.1246 174.575 49.428V51.668H174.015V49.624C174.015 49.2366 173.931 48.9683 173.763 48.819C173.6 48.665 173.397 48.588 173.154 48.588C172.986 48.588 172.818 48.6276 172.65 48.707C172.482 48.7863 172.342 48.917 172.23 49.099C172.123 49.2763 172.069 49.5143 172.069 49.813V51.668H171.509Z" fill="white"/>
<defs>
<linearGradient id="paint0_linear_255_3216" x1="46.6045" y1="18.6797" x2="107.623" y2="147.984" gradientUnits="userSpaceOnUse">
<stop stop-color="#FFB54C"/>
<stop offset="1" stop-color="#996C2D"/>
</linearGradient>
<linearGradient id="paint1_linear_255_3216" x1="15.2558" y1="19.7246" x2="58.8601" y2="101.405" gradientUnits="userSpaceOnUse">
<stop stop-color="#007EE4"/>
<stop offset="1" stop-color="#00467E"/>
</linearGradient>
</defs>
</svg>
