<svg width="54" height="54" viewBox="0 0 54 54" fill="none" xmlns="http://www.w3.org/2000/svg">
<rect width="54" height="54" rx="27" fill="#012F55" fill-opacity="0.04"/>
<path d="M26.475 34.8984C25.9125 34.0781 25.268 33.1523 24.5414 32.1211C23.8383 31.0898 23.3344 30.3633 23.0297 29.9414C22.725 29.5195 22.3734 29.0039 21.975 28.3945C21.5766 27.7617 21.307 27.3164 21.1664 27.0586C21.0492 26.8008 20.9086 26.4727 20.7445 26.0742C20.6039 25.6758 20.5102 25.3359 20.4633 25.0547C20.4398 24.75 20.4281 24.3984 20.4281 24C20.4281 22.125 21.0844 20.5312 22.3969 19.2188C23.7094 17.9062 25.3031 17.25 27.1781 17.25C29.0531 17.25 30.6469 17.9062 31.9594 19.2188C33.2719 20.5312 33.9281 22.125 33.9281 24C33.9281 24.3984 33.9047 24.75 33.8578 25.0547C33.8344 25.3359 33.7406 25.6758 33.5766 26.0742C33.4359 26.4727 33.2953 26.8008 33.1547 27.0586C33.0375 27.3164 32.7797 27.7617 32.3812 28.3945C31.9828 29.0039 31.6312 29.5195 31.3266 29.9414C31.0219 30.3633 30.5062 31.0898 29.7797 32.1211C29.0766 33.1523 28.4437 34.0781 27.8812 34.8984C27.7172 35.1328 27.4828 35.25 27.1781 35.25C26.8734 35.25 26.6391 35.1328 26.475 34.8984ZM25.1742 26.0039C25.7367 26.543 26.4047 26.8125 27.1781 26.8125C27.9516 26.8125 28.6078 26.543 29.1469 26.0039C29.7094 25.4414 29.9906 24.7734 29.9906 24C29.9906 23.2266 29.7094 22.5703 29.1469 22.0312C28.6078 21.4688 27.9516 21.1875 27.1781 21.1875C26.4047 21.1875 25.7367 21.4688 25.1742 22.0312C24.6352 22.5703 24.3656 23.2266 24.3656 24C24.3656 24.7734 24.6352 25.4414 25.1742 26.0039Z" fill="#012F55"/>
</svg>
