<svg width="54" height="54" viewBox="0 0 54 54" fill="none" xmlns="http://www.w3.org/2000/svg">
<rect width="54" height="54" rx="27" fill="#012F55" fill-opacity="0.04"/>
<path d="M33.2756 35.7573C33.1059 36.1796 32.8018 36.3521 32.3633 36.2747C27.9316 35.4933 24.423 33.2563 21.8375 29.5637C19.2519 25.8712 18.3498 21.8091 19.1312 17.3774C19.2085 16.9389 19.4746 16.7121 19.9295 16.6971L23.6767 16.5011C24.1356 16.463 24.4187 16.6795 24.526 17.1506L25.5041 21.3213C25.6006 21.7191 25.4628 22.028 25.0908 22.248L22.7144 23.5782C23.0974 25.0499 23.7283 26.3987 24.6069 27.6246C25.4814 28.8735 26.5331 29.9276 27.7619 30.7869L29.8593 29.0148C30.1702 28.7364 30.5076 28.7126 30.8715 28.9434L34.4561 31.289C34.839 31.5469 34.9341 31.8849 34.7414 32.3031L33.2756 35.7573Z" fill="#012F55"/>
</svg>
