<svg width="54" height="54" viewBox="0 0 54 54" fill="none" xmlns="http://www.w3.org/2000/svg">
<rect width="54" height="54" rx="27" fill="#012F55" fill-opacity="0.04"/>
<path d="M20.9656 20.0977C22.6766 18.3867 24.7391 17.5312 27.1531 17.5312C29.5672 17.5312 31.618 18.3867 33.3055 20.0977C35.0164 21.7852 35.8719 23.8359 35.8719 26.25C35.8719 28.6641 35.0164 30.7266 33.3055 32.4375C31.618 34.125 29.5672 34.9688 27.1531 34.9688C24.7391 34.9688 22.6766 34.125 20.9656 32.4375C19.2781 30.7266 18.4344 28.6641 18.4344 26.25C18.4344 23.8359 19.2781 21.7852 20.9656 20.0977ZM29.157 29.8359C29.3914 30 29.5906 29.9766 29.7547 29.7656L30.7391 28.3945C30.9031 28.1602 30.8797 27.9609 30.6688 27.7969L28.4188 26.1797V21.3281C28.4188 21.0469 28.2781 20.9062 27.9969 20.9062H26.3094C26.0281 20.9062 25.8875 21.0469 25.8875 21.3281V27.2344C25.8875 27.375 25.9461 27.4922 26.0633 27.5859L29.157 29.8359Z" fill="#012F55"/>
</svg>
