<svg width="16" height="16" viewBox="0 0 16 16" fill="none" xmlns="http://www.w3.org/2000/svg">
<g clip-path="url(#clip0_475_3092)">
<path d="M3.69531 -1.5L8.70996 5.64062L8.94043 5.96875L9.49316 6.75586L17.0381 17.5H12.3047L7.00098 9.94727L6.63574 9.42773L6.21582 9.9043L-0.461914 17.5H-0.894531L6.18359 9.44922L6.44336 9.1543L6.21777 8.83203L-1.03809 -1.5H3.69531ZM-0.00683594 -0.40918L6.28809 8.40039L7.0791 9.50879L12.4678 17.0498L12.6172 17.2598H16.5566L15.9912 16.4688L9.3877 7.22656L8.59668 6.11914L3.5166 -0.991211L3.36719 -1.2002H-0.571289L-0.00683594 -0.40918ZM16.2432 -1.5L9.67676 5.96875H9.24316L9.49414 5.68359L15.8096 -1.5H16.2432Z" fill="white" stroke="white"/>
</g>
<defs>
<clipPath id="clip0_475_3092">
<rect width="16" height="16" fill="white"/>
</clipPath>
</defs>
</svg>
