<svg width="41" height="41" viewBox="0 0 41 41" fill="none" xmlns="http://www.w3.org/2000/svg">
<path fill-rule="evenodd" clip-rule="evenodd" d="M20.1015 40.5732C31.1473 40.5732 40.1015 31.6189 40.1015 20.5732C40.1015 9.52754 31.1473 0.573242 20.1015 0.573242C9.05585 0.573242 0.101562 9.52754 0.101562 20.5732C0.101562 31.6189 9.05585 40.5732 20.1015 40.5732ZM23.1885 16.0258C24.8933 14.3209 24.8933 11.5568 23.1885 9.8519C21.4836 8.14702 18.7195 8.14702 17.0146 9.8519C15.3098 11.5568 15.3098 14.3209 17.0146 16.0258L20.1015 19.1127L23.1885 16.0258ZM24.649 23.6602C26.3539 25.3651 29.118 25.3651 30.8229 23.6602C32.5277 21.9553 32.5277 19.1912 30.8229 17.4863C29.118 15.7815 26.3539 15.7815 24.649 17.4863L21.5621 20.5733L24.649 23.6602ZM23.1885 31.2946C24.8933 29.5897 24.8933 26.8256 23.1885 25.1207L20.1015 22.0338L17.0146 25.1207C15.3098 26.8256 15.3098 29.5897 17.0146 31.2946C18.7195 32.9995 21.4836 32.9995 23.1885 31.2946ZM9.38019 23.6602C7.67535 21.9553 7.67535 19.1912 9.38019 17.4863C11.0851 15.7815 13.8492 15.7815 15.5541 17.4863L18.641 20.5733L15.5541 23.6602C13.8492 25.3651 11.0851 25.3651 9.38019 23.6602Z" fill="#7F57F1"/>
</svg>
