<svg width="189" height="251" viewBox="0 0 189 251" fill="none" xmlns="http://www.w3.org/2000/svg">
<path d="M87.4996 245.749C88.2996 244.684 89.4996 244.684 90.2996 245.749C91.0996 246.813 91.0996 248.41 90.2996 249.474C89.4996 250.538 88.2996 250.538 87.4996 249.474C86.7996 248.543 86.7996 246.813 87.4996 245.749Z" fill="#2B34A3" fill-opacity="0.36"/>
<path d="M65.7992 216.875C66.5992 215.811 67.7992 215.811 68.5992 216.875C69.3992 217.94 69.3992 219.537 68.5992 220.601C67.7992 221.665 66.5992 221.665 65.7992 220.601C64.9992 219.537 64.9992 217.94 65.7992 216.875Z" fill="#2B34A3" fill-opacity="0.36"/>
<path d="M44.1 188.003C44.9 186.939 46.1 186.939 46.9 188.003C47.7 189.068 47.7 190.664 46.9 191.729C46.1 192.793 44.9 192.793 44.1 191.729C43.3 190.664 43.3 188.935 44.1 188.003Z" fill="#2B34A3" fill-opacity="0.36"/>
<path d="M23.6992 163.521C24.8038 163.521 25.6992 162.33 25.6992 160.86C25.6992 159.391 24.8038 158.199 23.6992 158.199C22.5946 158.199 21.6992 159.391 21.6992 160.86C21.6992 162.33 22.5946 163.521 23.6992 163.521Z" fill="#2B34A3" fill-opacity="0.36"/>
<path d="M0.6 130.125C1.4 129.061 2.6 129.061 3.4 130.125C4.2 131.19 4.2 132.787 3.4 133.851C2.6 134.915 1.4 134.915 0.6 133.851C-0.2 132.787 -0.2 131.057 0.6 130.125Z" fill="#2B34A3" fill-opacity="0.36"/>
<path d="M107 219.936C107.8 218.872 109 218.872 109.8 219.936C110.6 221 110.6 222.597 109.8 223.661C109 224.726 107.8 224.726 107 223.661C106.2 222.597 106.2 221 107 219.936Z" fill="#2B34A3" fill-opacity="0.36"/>
<path d="M85.2008 191.064C86.0008 190 87.2008 190 88.0008 191.064C88.8008 192.128 88.8008 193.725 88.0008 194.789C87.2008 195.854 86.0008 195.854 85.2008 194.789C84.5008 193.725 84.5008 191.995 85.2008 191.064Z" fill="#2B34A3" fill-opacity="0.36"/>
<path d="M63.5004 162.058C64.3004 160.994 65.5004 160.994 66.3004 162.058C67.1004 163.123 67.1004 164.719 66.3004 165.784C65.5004 166.848 64.3004 166.848 63.5004 165.784C62.7004 164.719 62.7004 163.123 63.5004 162.058Z" fill="#2B34A3" fill-opacity="0.36"/>
<path d="M43.1016 137.71C44.2061 137.71 45.1016 136.518 45.1016 135.049C45.1016 133.579 44.2061 132.388 43.1016 132.388C41.997 132.388 41.1016 133.579 41.1016 135.049C41.1016 136.518 41.997 137.71 43.1016 137.71Z" fill="#2B34A3" fill-opacity="0.36"/>
<path d="M21.4004 108.704C22.505 108.704 23.4004 107.513 23.4004 106.043C23.4004 104.573 22.505 103.382 21.4004 103.382C20.2958 103.382 19.4004 104.573 19.4004 106.043C19.4004 107.513 20.2958 108.704 21.4004 108.704Z" fill="#2B34A3" fill-opacity="0.36"/>
<path d="M127.801 198.647C128.905 198.647 129.801 197.456 129.801 195.986C129.801 194.517 128.905 193.325 127.801 193.325C126.696 193.325 125.801 194.517 125.801 195.986C125.801 197.456 126.696 198.647 127.801 198.647Z" fill="#2B34A3" fill-opacity="0.36"/>
<path d="M106 169.641C107.105 169.641 108 168.45 108 166.98C108 165.511 107.105 164.319 106 164.319C104.895 164.319 104 165.511 104 166.98C104 168.45 104.895 169.641 106 169.641Z" fill="#2B34A3" fill-opacity="0.36"/>
<path d="M82.9008 136.246C83.7008 135.181 84.9008 135.181 85.7008 136.246C86.5008 137.31 86.5008 138.907 85.7008 139.971C84.9008 141.035 83.7008 141.035 82.9008 139.971C82.1008 138.907 82.1008 137.31 82.9008 136.246Z" fill="#2B34A3" fill-opacity="0.36"/>
<path d="M61.1996 107.374C61.9996 106.309 63.1996 106.309 63.9996 107.374C64.7996 108.438 64.7996 110.035 63.9996 111.099C63.1996 112.163 61.9996 112.163 61.1996 111.099C60.3996 110.035 60.3996 108.305 61.1996 107.374Z" fill="#2B34A3" fill-opacity="0.36"/>
<path d="M39.4 78.3677C40.2 77.3032 41.4 77.3032 42.2 78.3677C43 79.4321 43 81.0287 42.2 82.0931C41.4 83.1576 40.2 83.1576 39.4 82.0931C38.7 81.0287 38.7 79.4321 39.4 78.3677Z" fill="#2B34A3" fill-opacity="0.36"/>
<path d="M145.8 168.311C146.6 167.247 147.8 167.247 148.6 168.311C149.4 169.375 149.4 170.972 148.6 172.037C147.8 173.101 146.6 173.101 145.8 172.037C145.1 170.972 145.1 169.242 145.8 168.311Z" fill="#2B34A3" fill-opacity="0.36"/>
<path d="M124.1 139.305C124.9 138.241 126.1 138.241 126.9 139.305C127.7 140.37 127.7 141.966 126.9 143.031C126.1 144.095 124.9 144.095 124.1 143.031C123.3 141.966 123.3 140.37 124.1 139.305Z" fill="#2B34A3" fill-opacity="0.36"/>
<path d="M102.3 110.433C103.1 109.369 104.3 109.369 105.1 110.433C105.9 111.498 105.9 113.094 105.1 114.159C104.3 115.223 103.1 115.223 102.3 114.159C101.6 113.094 101.6 111.364 102.3 110.433Z" fill="#2B34A3" fill-opacity="0.36"/>
<path d="M82 85.951C83.1046 85.951 84 84.7596 84 83.29C84 81.8203 83.1046 80.6289 82 80.6289C80.8954 80.6289 80 81.8203 80 83.29C80 84.7596 80.8954 85.951 82 85.951Z" fill="#2B34A3" fill-opacity="0.36"/>
<path d="M58.9008 52.5552C59.7008 51.4907 60.9008 51.4907 61.7008 52.5552C62.5008 53.6196 62.5008 55.2162 61.7008 56.2806C60.9008 57.3451 59.7008 57.3451 58.9008 56.2806C58.1008 55.2162 58.1008 53.6196 58.9008 52.5552Z" fill="#2B34A3" fill-opacity="0.36"/>
<path d="M165.199 142.367C165.999 141.302 167.199 141.302 167.999 142.367C168.799 143.431 168.799 145.028 167.999 146.092C167.199 147.157 165.999 147.157 165.199 146.092C164.499 145.028 164.499 143.431 165.199 142.367Z" fill="#2B34A3" fill-opacity="0.36"/>
<path d="M143.498 113.494C144.298 112.429 145.498 112.429 146.298 113.494C147.098 114.558 147.098 116.155 146.298 117.219C145.498 118.284 144.298 118.284 143.498 117.219C142.698 116.155 142.698 114.558 143.498 113.494Z" fill="#2B34A3" fill-opacity="0.36"/>
<path d="M121.799 84.6216C122.599 83.5571 123.799 83.5571 124.599 84.6216C125.399 85.686 125.399 87.2826 124.599 88.347C123.799 89.4115 122.599 89.4115 121.799 88.347C120.999 87.2826 120.999 85.5529 121.799 84.6216Z" fill="#2B34A3" fill-opacity="0.36"/>
<path d="M101.398 60.1395C102.503 60.1395 103.398 58.9481 103.398 57.4784C103.398 56.0088 102.503 54.8174 101.398 54.8174C100.294 54.8174 99.3984 56.0088 99.3984 57.4784C99.3984 58.9481 100.294 60.1395 101.398 60.1395Z" fill="#2B34A3" fill-opacity="0.36"/>
<path d="M79.6992 31.2674C80.8038 31.2674 81.6992 30.076 81.6992 28.6064C81.6992 27.1367 80.8038 25.9453 79.6992 25.9453C78.5946 25.9453 77.6992 27.1367 77.6992 28.6064C77.6992 30.076 78.5946 31.2674 79.6992 31.2674Z" fill="#2B34A3" fill-opacity="0.36"/>
<path d="M186.1 121.078C187.204 121.078 188.1 119.887 188.1 118.417C188.1 116.947 187.204 115.756 186.1 115.756C184.995 115.756 184.1 116.947 184.1 118.417C184.1 119.887 184.995 121.078 186.1 121.078Z" fill="#2B34A3" fill-opacity="0.36"/>
<path d="M164.301 92.2049C165.405 92.2049 166.301 91.0135 166.301 89.5439C166.301 88.0742 165.405 86.8828 164.301 86.8828C163.196 86.8828 162.301 88.0742 162.301 89.5439C162.301 91.0135 163.196 92.2049 164.301 92.2049Z" fill="#2B34A3" fill-opacity="0.36"/>
<path d="M141.2 58.6762C142 57.6118 143.2 57.6118 144 58.6762C144.8 59.7407 144.8 61.3373 144 62.4017C143.2 63.4661 142 63.4661 141.2 62.4017C140.4 61.3373 140.4 59.7407 141.2 58.6762Z" fill="#2B34A3" fill-opacity="0.36"/>
<path d="M119.498 29.8032C120.298 28.7388 121.498 28.7388 122.298 29.8032C123.098 30.8676 123.098 32.4643 122.298 33.5287C121.498 34.5931 120.298 34.5931 119.498 33.5287C118.698 32.4643 118.698 30.7346 119.498 29.8032Z" fill="#2B34A3" fill-opacity="0.36"/>
<path d="M97.6996 0.798316C98.4996 -0.266105 99.6996 -0.266105 100.5 0.798316C101.3 1.86274 101.3 3.45937 100.5 4.52379C99.6996 5.58822 98.4996 5.58822 97.6996 4.52379C96.8996 3.59243 96.8996 1.86274 97.6996 0.798316Z" fill="#2B34A3" fill-opacity="0.36"/>
</svg>
